<svg width="1178" height="873" viewBox="0 0 1178 873" fill="none" xmlns="http://www.w3.org/2000/svg">
<path d="M541.104 722.83C505.933 743.162 469.065 756.385 427.087 756.212C380.298 756.015 333.915 724.62 304.603 690.164C293.712 677.367 284.188 662.576 281.98 645.921C276.894 607.443 312.105 596.498 343.809 596.986C361.679 597.253 378.962 602.205 396.052 607.115C424.425 615.276 456.066 616.004 482.685 629.677C491.62 634.282 498.837 640.469 508.731 643.189C524.123 647.425 540.84 647.671 556.499 651.22C569.875 654.277 585.35 660.518 587.872 673.998C590.443 687.826 577.653 699.318 565.999 707.177C557.754 712.766 549.485 718.002 541.104 722.83Z" fill="url(#paint0_linear)"/>
<path d="M292.8 267.685C333.798 157.432 457.155 86.9824 573.386 96.193C629.435 100.643 681.635 125.71 730.793 152.964C774.122 176.983 817.026 203.828 851.439 239.921C874.934 264.556 895.142 296.034 911.325 326.078C935.538 371.069 939.394 435.735 876.184 446.409C861.354 448.915 847.466 446.763 832.717 445.517C820.784 444.5 810.529 449.375 798.64 450.363C768.718 452.856 738.371 449.047 709.089 443.053C649.407 430.811 592.113 408.354 531.679 399.62C482.158 392.486 431.73 394.892 383.114 406.707C362.604 411.695 341.399 418.409 320.815 413.734C270.076 402.189 275.467 336.23 283.946 297.792C286.181 287.559 289.14 277.498 292.8 267.685Z" fill="url(#paint1_linear)"/>
<path d="M792.509 161.678C804.569 168.201 849.33 183.109 843.062 154.285C841.491 147.106 836.558 140.971 830.873 136.824C824.365 132.06 817.882 130.313 812.235 124.29C805.354 117.032 797.931 110.445 790.063 104.613C773.912 92.4207 755.963 81.8962 736.832 79.9338C723.415 78.5628 702.791 84.785 700.803 102.037C697.901 127.153 735.452 122.428 748.644 128.092C761.158 133.445 770.486 145.626 781.515 154.421C784.998 157.193 788.679 159.622 792.509 161.678Z" fill="url(#paint2_linear)"/>
<path d="M588.693 174.827C614.29 182.519 635.899 198.123 660.184 209.005C700.615 227.119 748.483 221.127 791.926 229.97C836.226 238.999 873.347 260.8 897.191 299.486C927.983 349.417 945.44 413.489 944.213 472.875C942.855 538.245 914.357 588.427 864.751 629.388C815.174 670.324 755.988 698.257 694.502 716.088C688.57 717.814 682.619 719.418 676.619 720.928C541.845 754.768 350.563 751.26 269.103 617.527C268.357 616.305 267.629 615.08 266.895 613.835C258.204 598.842 251.339 582.862 246.447 566.236C228.958 507.333 223.276 438.982 230.489 377.98C235.331 336.915 260.321 304.897 286.665 274.419C323.678 231.601 373.853 202.876 427.337 185.727C466.943 173.03 512.012 160.896 553.895 166.977C565.674 168.721 577.306 171.344 588.693 174.827Z" fill="url(#paint3_linear)"/>
<path d="M902.258 591.85C878.601 624.875 850.466 652.125 812.152 669.277C769.445 688.391 714.243 678.915 673.331 659.612C658.132 652.444 643.356 642.897 634.477 628.634C613.977 595.677 641.541 571.187 670.626 558.558C687.016 551.432 704.803 548.817 722.397 546.244C751.612 541.978 780.737 529.595 810.625 531.075C820.665 531.586 829.79 534.246 839.926 532.644C855.695 530.157 871.026 523.487 886.756 520.263C900.202 517.533 916.873 516.837 924.73 528.078C932.774 539.615 925.86 555.359 918.484 567.324C913.278 575.815 907.903 583.995 902.258 591.85Z" fill="url(#paint4_linear)"/>
<path d="M506.432 412.302C506.091 412.302 505.748 412.194 505.455 411.968C505.188 411.758 498.859 406.759 494.026 396.562C489.594 387.211 485.658 371.534 492.066 349.921C496.412 335.259 500.768 324.836 504.609 315.634C511.583 298.94 516.623 286.878 517.03 261.306C517.043 260.431 517.689 259.68 518.643 259.741C519.525 259.757 520.225 260.476 520.212 261.357C519.795 287.54 514.389 300.48 507.545 316.863C503.734 325.988 499.416 336.328 495.117 350.828C483.431 390.23 507.17 409.27 507.412 409.454C508.102 409.995 508.226 410.994 507.689 411.688C507.374 412.092 506.906 412.302 506.432 412.302Z" fill="#000C3E"/>
<path d="M636.799 161.035C636.561 178.369 622.316 192.232 604.979 191.994C587.645 191.755 573.785 177.51 574.021 160.173C574.259 142.839 588.507 128.979 605.841 129.215C623.175 129.454 637.038 143.701 636.799 161.035Z" fill="#000C3E"/>
<path d="M503.394 401.089C503.394 401.089 513.051 419.858 550.808 425.645C588.563 431.43 617.749 417.125 647.024 426.963C676.299 436.804 717.907 422.091 725.928 409.699C733.952 397.306 729.001 262.282 705.577 240.179C682.153 218.075 561.792 202.02 536.433 229.138C511.075 256.259 486.55 386.268 503.394 401.089Z" fill="#000C3E"/>
<path d="M717.938 289.38C717.155 346.508 670.209 392.185 613.078 391.402C555.95 390.62 510.273 343.67 511.055 286.542C511.841 229.414 558.788 183.737 615.916 184.52C673.044 185.306 718.721 232.252 717.938 289.38Z" fill="#000C3E"/>
<path d="M529.966 286.087C529.966 286.087 537.198 411.52 622.201 414.925C707.201 418.329 702.915 241.46 671.801 225.363C640.687 209.27 512.587 215.471 529.966 286.087Z" fill="#FFCEB0"/>
<path d="M617.744 310.891C617.744 310.891 634.871 349.145 630.761 351.805C626.65 354.462 614.432 354.296 611.075 351.534C607.719 348.773 611.012 306.726 617.744 310.891Z" fill="#F5A473"/>
<path d="M592.633 324.426C592.522 328.83 588.863 332.31 584.46 332.199C580.056 332.091 576.575 328.432 576.687 324.028C576.795 319.625 580.454 316.144 584.86 316.252C589.264 316.364 592.745 320.023 592.633 324.426Z" fill="#41294A"/>
<path d="M661.01 319.045C660.899 323.449 657.24 326.929 652.836 326.818C648.433 326.71 644.952 323.051 645.064 318.647C645.172 314.244 648.831 310.763 653.237 310.871C657.641 310.982 661.122 314.641 661.01 319.045Z" fill="#41294A"/>
<path d="M595.202 217.554C595.202 217.554 565.118 232.995 559.986 260.758C554.851 288.522 559.525 359.192 527.205 356.713C527.205 356.713 461.451 218.196 595.202 217.554Z" fill="#41294A"/>
<path d="M611.256 217.774C608.542 219.816 642.679 218.922 662.759 242.12C682.842 265.318 688.881 324.343 691.926 325.367C694.971 326.395 705.257 251.735 683.329 229.899C661.4 208.066 626.7 206.151 611.256 217.774Z" fill="#41294A"/>
<path d="M684.725 330.584C684.725 330.584 692.103 298.964 706.542 309.813C720.98 320.663 708.938 353.807 694.998 357.119C681.062 360.432 677.372 346.966 684.725 330.584Z" fill="#FFCEB0"/>
<path d="M550.746 328.746C550.746 328.746 544.236 296.935 529.505 307.384C514.777 317.833 525.906 351.299 539.747 354.993C553.591 358.683 557.647 345.326 550.746 328.746Z" fill="#FFCEB0"/>
<path d="M649.183 290.911C649.183 290.911 664.195 282.991 673.444 294.369C681.58 304.372 663.011 296.265 656.177 297.56C649.339 298.859 640.31 298.292 649.183 290.911Z" fill="#41294A"/>
<path d="M589.527 293.793C589.527 293.793 574.13 286.65 565.473 298.483C557.859 308.89 575.989 299.845 582.883 300.793C589.775 301.738 598.767 300.71 589.527 293.793Z" fill="#41294A"/>
<path d="M643.732 375.18C643.732 375.18 633.939 360.382 623.344 361.314C612.745 362.249 604.622 375.889 603.197 376.462C603.197 376.462 619.736 384.229 643.732 375.18Z" fill="#41294A"/>
<path d="M584.172 306.667C570.914 306.667 559.979 317.46 559.794 330.721C559.708 337.231 562.158 343.391 566.702 348.062C571.245 352.729 577.332 355.348 583.845 355.437L584.185 355.44C597.443 355.44 608.379 344.651 608.56 331.389C608.745 317.947 597.959 306.858 584.513 306.671L584.172 306.667ZM584.185 358.622L583.8 358.619C576.438 358.52 569.556 355.555 564.42 350.279C559.285 345.001 556.514 338.039 556.612 330.677C556.819 315.684 569.183 303.486 584.172 303.486L584.557 303.489C599.757 303.699 611.949 316.235 611.742 331.431C611.539 346.423 599.174 358.622 584.185 358.622Z" fill="#FFFCF6"/>
<path d="M653.038 301.156C639.777 301.156 628.841 311.948 628.66 325.209C628.475 338.649 639.264 349.741 652.707 349.925L653.048 349.928C666.309 349.928 677.245 339.139 677.426 325.878C677.515 319.365 675.062 313.205 670.522 308.534C665.978 303.87 659.891 301.248 653.378 301.159L653.038 301.156ZM653.048 353.11L652.666 353.107C637.463 352.897 625.271 340.361 625.478 325.165C625.685 310.173 638.046 297.974 653.038 297.974L653.423 297.977C660.786 298.076 667.668 301.041 672.8 306.316C677.938 311.595 680.71 318.556 680.608 325.919C680.401 340.911 668.037 353.11 653.048 353.11Z" fill="#FFFCF6"/>
<path d="M558.887 326.727C558.705 326.727 558.517 326.695 558.339 326.631L548.135 322.883C547.311 322.578 546.888 321.665 547.191 320.838C547.493 320.017 548.412 319.6 549.233 319.896L559.434 323.641C560.261 323.946 560.681 324.859 560.379 325.687C560.143 326.329 559.536 326.727 558.887 326.727Z" fill="#FFFCF6"/>
<path d="M677.873 319.496C677.196 319.496 676.566 319.061 676.356 318.38C676.092 317.543 676.559 316.649 677.399 316.385L691.345 312.032C692.178 311.765 693.076 312.239 693.337 313.076C693.601 313.916 693.133 314.807 692.293 315.071L678.347 319.426C678.192 319.474 678.029 319.496 677.873 319.496Z" fill="#FFFCF6"/>
<path d="M610.759 246.942C610.759 246.942 610.788 278.673 629.69 284.404C648.59 290.137 697.21 287.608 696.717 279.854C692.265 209.846 659.357 213.368 631.873 204.408C583.673 188.7 544.251 267.4 550.153 286.001C556.055 304.598 596.737 287.232 605.445 284.617C614.151 281.998 609.327 260.436 610.759 246.942Z" fill="#000C3E"/>
<g opacity="0.210007">
<g opacity="0.210007">
<path opacity="0.210007" d="M562.015 354.112C562.015 354.112 604.895 329.37 623.715 332.829C642.535 336.291 675.565 336.832 677.06 343.583C678.559 350.332 635.185 347.29 621.844 348.588C608.503 349.886 557.287 365.244 562.015 354.112Z" fill="#DB5C5D"/>
</g>
</g>
<path d="M586.013 337.556C585.386 337.556 584.791 337.183 584.539 336.563C584.209 335.752 584.6 334.823 585.414 334.492C589.726 332.735 590.524 331.351 590.531 331.339C590.814 330.505 591.686 330.117 592.526 330.413C593.356 330.696 593.773 331.663 593.49 332.497C593.289 333.082 592.204 335.163 586.611 337.438C586.413 337.518 586.213 337.556 586.013 337.556Z" fill="#DB5C5D"/>
<path d="M651.524 334.188C650.242 334.188 648.078 333.8 644.68 332.142C643.888 331.76 643.56 330.809 643.945 330.016C644.327 329.227 645.284 328.903 646.07 329.285C650.261 331.324 651.82 330.984 651.839 330.984C652.65 330.643 653.516 331.041 653.859 331.849C654.203 332.657 653.764 333.612 652.952 333.959C652.742 334.048 652.291 334.188 651.524 334.188Z" fill="#DB5C5D"/>
<path d="M610.128 331.541C609.323 331.541 608.629 330.933 608.546 330.112C608.457 329.237 609.094 328.454 609.969 328.368L627.042 326.625C627.898 326.517 628.696 327.169 628.785 328.044C628.875 328.919 628.238 329.702 627.363 329.788L610.29 331.531C610.236 331.537 610.182 331.541 610.128 331.541Z" fill="#FFFCF6"/>
<path d="M586.487 191.565C586.255 191.565 586.016 191.515 585.794 191.403C576.767 187.016 571.307 180.757 569.557 172.8C565.676 155.131 581.46 135.583 582.135 134.759C582.695 134.078 583.694 133.979 584.371 134.536C585.052 135.093 585.154 136.092 584.597 136.773C584.441 136.964 569.112 155.968 572.666 172.125C574.196 179.08 579.08 184.604 587.184 188.546C587.973 188.928 588.304 189.882 587.919 190.671C587.645 191.235 587.079 191.565 586.487 191.565Z" fill="#000C3E"/>
<path d="M622.817 196.294C622.375 196.294 621.936 196.109 621.621 195.753C621.041 195.091 621.105 194.089 621.767 193.507C621.951 193.344 640.196 177.121 639.343 160.598C638.977 153.487 635.067 147.235 627.72 142.014C627.004 141.508 626.835 140.515 627.345 139.796C627.854 139.083 628.846 138.915 629.562 139.424C637.742 145.233 642.105 152.306 642.521 160.445C643.444 178.508 624.665 195.196 623.864 195.899C623.561 196.163 623.189 196.294 622.817 196.294Z" fill="#000C3E"/>
<path d="M717.447 405.181C716.986 405.181 716.528 404.983 716.213 404.592C715.659 403.914 715.761 402.912 716.442 402.355C716.652 402.184 737.578 384.706 731.517 357.057C729.181 346.398 725.087 334.67 720.75 322.255C713.231 300.724 705.455 278.459 704.822 256.874C704.797 255.992 705.49 255.264 706.368 255.235C707.192 255.264 707.978 255.9 708.004 256.778C708.624 277.873 716.315 299.904 723.753 321.205C728.122 333.716 732.249 345.53 734.625 356.373C741.113 385.979 718.679 404.64 718.449 404.824C718.154 405.063 717.8 405.181 717.447 405.181Z" fill="#000C3E"/>
<path d="M723.098 291.551C723.047 291.551 722.993 291.548 722.939 291.545C722.067 291.459 721.428 290.679 721.513 289.804C724.262 261.967 718.405 239.374 704.109 222.641C681.09 195.708 643.691 193.236 643.319 193.213C642.441 193.162 641.77 192.412 641.824 191.53C641.871 190.655 642.626 189.962 643.501 190.038C643.892 190.06 682.639 192.618 706.527 220.573C721.408 237.99 727.517 261.388 724.679 290.116C724.6 290.94 723.906 291.551 723.098 291.551Z" fill="#000C3E"/>
<path d="M609.154 378.321C609.154 378.321 625.008 367.197 639.167 376.733C639.167 376.733 622.635 382.928 609.154 378.321Z" fill="#DB5C5D"/>
<path d="M619.644 389.741C618.079 389.741 616.733 389.725 615.903 389.712C615.025 389.699 614.325 388.977 614.337 388.096C614.35 387.217 614.951 386.505 615.954 386.53C621.961 386.61 629.139 386.463 630.256 386.04C631.073 385.728 631.996 386.136 632.311 386.953C632.626 387.774 632.225 388.687 631.407 389.006C629.816 389.623 623.911 389.741 619.644 389.741Z" fill="#DB5C5D"/>
<path d="M542.48 346.203C542.337 346.203 542.194 346.184 542.051 346.143C541.204 345.907 540.711 345.032 540.946 344.183C545.299 328.583 533.743 318.538 533.625 318.436C532.957 317.87 532.874 316.865 533.444 316.193C534.01 315.525 535.016 315.442 535.687 316.015C536.228 316.473 548.907 327.498 544.01 345.042C543.813 345.742 543.177 346.203 542.48 346.203Z" fill="#DB5C5D"/>
<path d="M690.92 350.003C690.885 350.003 690.853 350.003 690.815 350C689.94 349.943 689.275 349.185 689.329 348.31C690.519 329.847 699.367 319.977 699.746 319.567C700.338 318.917 701.343 318.873 701.989 319.465C702.638 320.057 702.683 321.062 702.094 321.711C702.008 321.806 693.618 331.234 692.508 348.514C692.45 349.357 691.75 350.003 690.92 350.003Z" fill="#DB5C5D"/>
<path d="M658.972 401.941C658.972 401.941 664.031 458.534 657.318 467.485C650.604 476.438 608.084 469.721 596.893 467.485C585.703 465.248 585.681 371.648 587.94 377.97C606.623 430.185 657.684 383.977 658.972 401.941Z" fill="#FFCEB0"/>
<path d="M591.986 407.539C591.986 407.539 622.152 422.038 656.445 404.487C656.445 404.487 659.111 425.57 656.445 430.431C653.782 435.293 599.46 438.767 588.766 414.806C588.766 414.806 588.9 406.498 591.986 407.539Z" fill="#F5A473"/>
<path d="M427.249 850.876H817.622C817.622 850.876 837.562 511.474 788.662 474.566C739.759 437.655 524.486 456.093 473.804 487.621C423.122 519.149 427.249 850.876 427.249 850.876Z" fill="#FB4C47"/>
<path d="M622.153 460.778C622.153 460.778 607.106 591.241 613.674 609.399C620.237 627.558 611.828 708.065 609.155 718.53C606.48 728.994 525.374 733.439 504.445 725.068C483.515 716.697 509.777 491.045 521.492 449.298C533.211 407.547 620.864 432.145 622.153 460.778Z" fill="#05BA6E"/>
<path d="M383.969 300.932C383.969 300.932 416.598 363.425 439.465 364.004C462.335 364.583 539.454 270.668 567.889 269.7C596.328 268.736 620.747 271.495 620.859 264.718C620.97 257.937 581.307 250.537 581.307 250.537C581.307 250.537 638.667 254.189 626.802 247.915C614.941 241.641 586.515 235.999 586.515 235.999C586.515 235.999 627.741 237.663 628.04 233.254C628.339 228.844 585.118 222.35 585.118 222.35C585.118 222.35 637.712 220.67 628.094 213.435C618.472 206.199 600.365 209.34 551.389 216.82C502.409 224.3 391.602 289.688 383.969 300.932Z" fill="#FFCEB0"/>
<path d="M441.214 297.938C441.214 297.938 493.41 329.03 470.683 364.265C446.483 401.784 447.838 390.638 443.654 405.818C439.467 420.998 508.441 450.563 511.578 463.557C514.715 476.548 482.201 636.332 451.745 629.774C425.235 624.069 277.915 540.466 256.743 456.92C240.332 392.15 374.102 233.722 441.214 297.938Z" fill="#FB4C47"/>
<path d="M577.845 662.398C577.845 662.398 520.011 789.801 541.274 806.862C562.538 823.919 579.672 812.805 598.476 823.878C617.283 834.95 635.323 829.414 650.43 819.78C665.537 810.142 626.22 683.391 609.958 671.323C593.697 659.252 580.776 655.777 577.845 662.398Z" fill="white"/>
<path d="M770.001 465.5C770.001 465.5 801.099 469.296 825.51 514C843.824 547.541 879.304 743.529 825.51 771.454C771.716 799.377 721.261 784.771 701.736 765.953C682.209 747.135 716.95 650.154 740.108 642.915C763.268 635.679 770.001 465.5 770.001 465.5Z" fill="#FB4C47"/>
<path d="M780.071 462.496C780.071 462.496 781.525 453.434 736.742 434.055C701.005 418.588 670.393 444.691 615.88 447.501C561.368 450.313 566.287 428.706 527.727 438.748C468.223 454.239 515.599 493.244 534.772 497.622C553.945 502 618.181 609.985 780.071 462.496Z" fill="#05BA6E"/>
<path d="M623.78 353.6C623.78 353.6 623.614 357.291 625.733 357.625C627.852 357.959 631.769 356.776 630.76 351.803C630.76 351.803 625.447 353.511 623.78 353.6Z" fill="white"/>
<path d="M844.514 659.318C844.365 659.318 844.212 659.309 844.059 659.287C842.589 659.077 841.501 657.893 841.345 656.483C838.695 653.419 820.899 647.002 809.028 642.719C785.509 634.234 774.962 630.037 772.693 625.446C770.768 621.554 771.63 615.942 772.722 608.837C774.449 597.593 776.603 583.593 769.463 570.109C757.134 546.822 758.308 512.281 758.366 510.824C758.436 509.067 759.953 507.661 761.665 507.766C763.421 507.833 764.79 509.312 764.726 511.065C764.71 511.409 763.565 545.371 775.089 567.131C783.212 582.479 780.784 598.27 779.012 609.801C778.162 615.321 777.364 620.536 778.398 622.627C780.326 625.601 798.898 632.302 811.186 636.734C838.879 646.725 848.495 650.744 847.658 656.588C847.432 658.176 846.07 659.318 844.514 659.318Z" fill="#B31B1F"/>
<path d="M761.5 633.159C761.223 633.159 760.943 633.124 760.66 633.047C750.148 630.18 733.816 627.196 733.654 627.164C731.923 626.852 730.777 625.195 731.092 623.467C731.407 621.736 733.059 620.572 734.793 620.906C735.47 621.027 751.554 623.967 762.334 626.906C764.03 627.371 765.029 629.118 764.567 630.814C764.182 632.23 762.9 633.159 761.5 633.159Z" fill="#B31B1F"/>
<path d="M818.653 790.54C818.603 790.54 818.555 790.54 818.507 790.536C759.613 787.867 700.936 762.779 697.763 738.916C696.768 731.417 696.048 727.665 695.603 725.81C694.413 725.219 693.691 723.952 693.904 722.568C694.308 719.947 696.083 719.017 697.493 719.017H697.528C700.732 719.052 701.795 720.93 704.073 738.079C706.535 756.603 759.957 781.513 818.793 784.179C820.55 784.259 821.908 785.745 821.829 787.501C821.752 789.21 820.343 790.54 818.653 790.54Z" fill="#B31B1F"/>
<path d="M713.077 734.226C712.845 734.226 712.609 734.2 712.371 734.149C710.659 733.761 709.584 732.056 709.972 730.341C710.109 729.727 724.025 668.383 737.032 624.256C737.529 622.569 739.31 621.602 740.984 622.105C742.67 622.601 743.634 624.37 743.135 626.056C730.185 669.987 716.316 731.133 716.179 731.747C715.842 733.224 714.531 734.226 713.077 734.226Z" fill="#B31B1F"/>
<path d="M437 600.994C436.845 600.994 436.682 600.982 436.523 600.959C434.786 600.699 433.59 599.076 433.851 597.342C434.178 595.146 442.034 543.3 452.814 519.039C463.294 495.463 468.659 471.558 468.713 471.32C469.088 469.605 470.784 468.532 472.509 468.902C474.224 469.283 475.305 470.986 474.924 472.701C474.704 473.7 469.365 497.467 458.63 521.626C448.2 545.098 440.22 597.755 440.141 598.284C439.905 599.865 438.547 600.994 437 600.994Z" fill="#B31B1F"/>
<path d="M388.497 419.977C380.028 419.977 370.536 419.462 360.088 418.132C358.344 417.909 357.11 416.318 357.332 414.575C357.552 412.831 359.184 411.619 360.889 411.819C392.707 415.873 415.31 412.141 426.961 409.598C421.158 407.743 413.028 405.936 404.915 406.378C386.658 407.237 359.944 390.928 358.815 390.228C357.32 389.305 356.858 387.345 357.781 385.85C358.704 384.354 360.667 383.887 362.159 384.816C362.42 384.975 388.351 400.817 404.587 400.021C420.054 399.207 438.371 406.095 440.035 409.051C440.63 410.104 440.582 411.472 439.905 412.475C439.275 413.4 437.97 413.957 436.825 413.887C436.322 413.945 434.833 414.301 433.385 414.645C426.427 416.312 411.091 419.974 388.497 419.977Z" fill="#B31B1F"/>
<path d="M466.708 351.594C465.525 351.594 464.389 350.932 463.842 349.799C463.762 349.637 455.817 333.499 442.289 327.104C426.93 319.84 409.561 294.523 408.829 293.451C407.84 291.997 408.215 290.015 409.666 289.028C411.123 288.042 413.099 288.421 414.086 289.865C414.257 290.113 431.213 314.823 445.012 321.348C460.603 328.727 469.212 346.287 469.572 347.028C470.335 348.613 469.671 350.509 468.089 351.273C467.644 351.492 467.173 351.594 466.708 351.594Z" fill="#B31B1F"/>
<path d="M614.497 536.501C614.379 536.501 614.259 536.488 614.141 536.46C613.285 536.265 612.747 535.41 612.944 534.557C613.021 534.22 620.609 501.047 622.83 484.196C626.289 457.925 614.523 448.761 614.405 448.672C613.702 448.144 613.555 447.151 614.077 446.448C614.599 445.742 615.585 445.592 616.292 446.111C616.842 446.515 629.709 456.318 625.983 484.61C623.746 501.613 616.123 534.932 616.047 535.263C615.878 536.005 615.223 536.501 614.497 536.501Z" fill="#08824F"/>
<path d="M520.663 488.657L517.503 488.291C517.503 488.291 519.972 466.811 521.261 456.251C522.562 445.599 525.601 438.325 525.731 438.02C526.072 437.205 527.007 436.836 527.815 437.17C528.623 437.514 529.002 438.449 528.662 439.257C528.63 439.327 525.661 446.454 524.42 456.639C523.132 467.19 520.663 488.654 520.663 488.657Z" fill="#08824F"/>
<path d="M611.008 841.386C592.863 841.386 582.885 840.787 569.076 839.96C551.312 838.894 526.988 837.437 470.143 836.553C468.387 836.527 466.984 835.083 467.012 833.323C467.041 831.567 468.587 830.103 470.242 830.189C527.227 831.074 551.634 832.54 569.455 833.609C583.155 834.427 593.05 835.022 611.008 835.022C633.487 835.022 653.653 832.559 673.157 830.18C690.278 828.086 706.447 826.113 723.778 825.728C760.747 824.914 788.374 825.725 788.647 825.728C790.404 825.786 791.785 827.252 791.731 829.005C791.676 830.762 790.194 832.063 788.457 832.092C788.183 832.082 760.712 831.268 723.921 832.092C706.906 832.467 690.886 834.424 673.927 836.495C654.235 838.901 633.875 841.386 611.008 841.386Z" fill="#B31B1F"/>
<path d="M755.143 798.932C753.562 798.932 751.978 798.223 750.597 796.136C746.298 789.642 745 789.107 736.689 790.386C729.171 791.56 726.202 786.231 724.236 782.709C723.581 781.531 722.957 780.421 722.413 779.991C720.949 778.837 717.293 780.224 715.747 781.076L714.204 778.296C714.879 777.92 720.873 774.723 724.386 777.494C725.426 778.318 726.161 779.635 727.014 781.156C728.913 784.551 730.879 788.048 736.202 787.243C745.716 785.773 748.258 786.845 753.25 794.379C754.574 796.384 755.719 796.11 759.248 794.052C761.927 792.48 765.99 790.109 769.019 794.341L766.435 796.193C765.255 794.554 764.186 794.85 760.851 796.797C759.257 797.73 757.202 798.932 755.143 798.932Z" fill="white"/>
<path d="M718.124 649.085C718.124 649.085 642.125 621.604 609.153 635.661C576.181 649.715 549.009 685.948 554.042 688.344C559.076 690.743 586.012 669.852 586.012 669.852C586.012 669.852 558.544 697.609 563.638 700.387C568.732 703.164 595.201 688.344 595.201 688.344C595.201 688.344 576.725 708.096 584.66 709.607C592.595 711.119 609.608 694.844 627.349 694.233C645.094 693.619 667.455 707.641 689.638 711.59C711.818 715.535 718.124 649.085 718.124 649.085Z" fill="#FFCEB0"/>
<path d="M832.818 634.84C832.621 634.84 832.423 634.821 832.223 634.783C832 634.744 809.62 630.513 782.865 625.072C781.143 624.722 780.03 623.042 780.38 621.321C780.727 619.599 782.403 618.486 784.131 618.839C810.842 624.267 833.184 628.489 833.407 628.534C835.134 628.858 836.267 630.522 835.939 632.25C835.653 633.777 834.317 634.84 832.818 634.84Z" fill="#B31B1F"/>
<path fill-rule="evenodd" clip-rule="evenodd" d="M620.41 134.769C619.579 134.769 618.676 134.866 617.697 135.059C615.312 135.538 613.767 136.697 612.839 138.708C608.702 147.662 617.424 168.986 623.656 181.585C627.507 167.609 632.122 144.248 625.601 136.886C624.345 135.471 622.636 134.769 620.41 134.769ZM623.839 192.049C623.939 192.068 624.04 192.082 624.142 192.09C624.474 192.218 624.828 192.284 625.186 192.284C625.517 192.284 625.849 192.229 626.172 192.111C630.422 190.562 667.844 176.527 672.505 160.355C673.626 156.467 672.837 152.632 670.225 149.273C665.782 143.553 660.982 142.873 657.735 143.305C648.524 144.534 639.457 156.434 632.808 167.74C635.16 154.863 636.066 139.992 629.922 133.056C627.755 130.608 623.673 127.983 616.568 129.398C612.398 130.23 609.294 132.615 607.598 136.29C601.32 149.887 615.762 179.169 620.575 188.244C614.506 189.415 608.402 189.679 602.563 189.283C589.984 188.428 578.834 184.516 572.177 180.237L569.798 183.938C577.164 188.673 589.052 192.775 602.265 193.673C609.194 194.143 616.543 193.737 623.839 192.049ZM659.327 148.971C659.054 148.971 658.777 148.987 658.5 149.029C648.744 150.327 636.957 171.018 630.725 184.107C643.68 178.652 664.228 168.233 666.957 158.759C667.571 156.626 667.159 154.741 665.668 152.817C663.661 150.235 661.582 148.971 659.327 148.971Z" fill="#FFD310"/>
<path d="M197.27 243.75H310.515C317.784 243.75 324.662 247.045 329.218 252.71L362.458 294.048C367.173 299.91 374.363 303.223 381.883 302.997L594.85 296.596" stroke="#FFB2B1" stroke-width="5" stroke-linejoin="round"/>
<path d="M209.361 244.265C209.361 249.301 205.279 253.384 200.243 253.384C195.207 253.384 191.124 249.301 191.124 244.265C191.124 239.229 195.207 235.147 200.243 235.147C205.279 235.147 209.361 239.229 209.361 244.265Z" fill="#FF383D"/>
<path d="M11.0007 244.366C11.0007 205.356 42.625 173.732 81.6348 173.732C120.645 173.732 152.266 205.356 152.266 244.366C152.266 283.376 120.645 315 81.6348 315C42.625 315 11.0007 283.376 11.0007 244.366Z" fill="#FFE1E2"/>
<path d="M81.3303 156.49C130.103 156.49 169.64 196.028 169.64 244.8C169.64 293.573 130.103 333.113 81.3303 333.113V376.724" stroke="#FFD6D7" stroke-width="2.4" stroke-miterlimit="10"/>
<path d="M74.0679 378.928C74.0679 374.916 77.3185 371.665 81.3301 371.665C85.3418 371.665 88.5924 374.916 88.5924 378.928C88.5924 382.939 85.3418 386.19 81.3301 386.19C77.3185 386.19 74.0679 382.939 74.0679 378.928Z" fill="#F2AEB0"/>
<path d="M77.6514 245.708H75.0879C73.584 245.708 72.4512 245.747 71.6895 245.825C70.9375 245.903 70.5615 246.06 70.5615 246.294C70.5615 246.616 71.0156 246.777 71.9238 246.777C72.3242 246.777 72.6416 246.787 72.876 246.807C73.1104 246.826 73.623 246.88 74.4141 246.968C74.8828 247.026 75.2051 247.1 75.3809 247.188C75.6641 247.334 75.8057 247.588 75.8057 247.949C75.8057 249.775 75.2051 251.104 74.0039 251.934C72.6953 252.842 70.5322 253.296 67.5146 253.296C65.415 253.296 63.7451 252.939 62.5049 252.227C61.1865 251.465 60.5273 250.381 60.5273 248.975C60.5273 247.842 60.8398 246.641 61.4648 245.371C61.6895 244.912 62.2803 243.931 63.2373 242.427L63.8232 242.72C63.4521 243.354 63.0859 243.984 62.7246 244.609C62.168 245.684 61.8896 246.562 61.8896 247.246C61.8896 248.447 62.5146 249.36 63.7646 249.985C64.9561 250.581 66.5918 250.879 68.6719 250.879C70.0684 250.879 71.2988 250.771 72.3633 250.557C73.6719 250.293 74.3262 249.932 74.3262 249.473C74.3262 249.307 74.2529 249.185 74.1064 249.106C73.96 249.019 73.7158 248.975 73.374 248.975C73.1104 248.945 72.6953 248.916 72.1289 248.887C71.5723 248.848 71.2061 248.828 71.0303 248.828C70.415 248.828 69.9756 248.75 69.7119 248.594C69.4482 248.428 69.3164 248.184 69.3164 247.861C69.3164 246.65 69.6729 245.659 70.3857 244.888C70.9717 244.263 71.7578 243.799 72.7441 243.496C73.4863 243.271 74.2676 243.159 75.0879 243.159H77.6514V245.708ZM89.4873 245.708H87.9639C87.3096 245.708 86.5723 245.562 85.752 245.269C84.8047 244.927 83.9697 244.458 83.2471 243.862C82.6807 244.556 82.0996 245.039 81.5039 245.312C80.918 245.576 80.0586 245.708 78.9258 245.708H76.6406V243.159H78.8818C79.7705 243.159 80.5615 242.935 81.2549 242.485C81.792 242.134 82.2803 241.641 82.7197 241.006C83.3154 240.146 84.0479 239.399 84.917 238.765C85.6982 238.198 86.416 237.837 87.0703 237.681C87.7441 238.706 88.2812 239.629 88.6816 240.449C89.2188 241.562 89.4873 242.466 89.4873 243.159V245.708ZM87.8027 242.822C87.6758 242.256 87.4805 241.699 87.2168 241.152C86.9922 240.693 86.6943 240.22 86.3232 239.731C85.8545 239.849 85.459 240.068 85.1367 240.391C84.9219 240.596 84.668 240.942 84.375 241.431C84.7266 241.812 85.2197 242.153 85.8545 242.456C86.499 242.759 87.1045 242.944 87.6709 243.013L87.8027 242.822ZM105.396 245.708H88.4766V243.159H100.415C99.4189 242.388 98.5791 241.787 97.8955 241.357C97.0459 240.82 96.2695 240.43 95.5664 240.186C94.7754 239.912 93.9746 239.775 93.1641 239.775C92.666 239.775 92.1631 239.81 91.6553 239.878C91.9385 239.155 92.3096 238.574 92.7686 238.135C93.4326 237.5 94.2725 237.183 95.2881 237.183C96.2842 237.183 97.4609 237.671 98.8184 238.647C99.4922 239.136 100.591 240.063 102.114 241.431C103.296 242.495 104.097 243.071 104.517 243.159H105.396V245.708Z" fill="#FF383D"/>
<path d="M650.77 358.046H819.584C828.398 358.046 836.503 362.877 840.695 370.63L871.944 428.419C876.136 436.172 884.241 441.004 893.055 441.004H975.84" stroke="#FFB2B1" stroke-width="5" stroke-linejoin="round"/>
<path d="M979.944 440.905C979.944 445.941 975.862 450.023 970.826 450.023C965.79 450.023 961.708 445.941 961.708 440.905C961.708 435.868 965.79 431.786 970.826 431.786C975.862 431.786 979.944 435.868 979.944 440.905Z" fill="#FF383D"/>
<path opacity="0.15" d="M1005.73 459.366C1005.73 420.356 1037.36 388.732 1076.37 388.732C1115.38 388.732 1147 420.356 1147 459.366C1147 498.376 1115.38 530 1076.37 530C1037.36 530 1005.73 498.376 1005.73 459.366Z" fill="#FF383D"/>
<path d="M1047.52 462.708H1034.08C1032.02 462.708 1030.36 462.581 1029.1 462.327C1027.6 462.024 1026.46 461.521 1025.69 460.818C1024.85 460.057 1024.43 459.021 1024.43 457.713C1024.43 456.844 1024.68 455.828 1025.18 454.666C1025.54 453.875 1025.81 453.284 1025.98 452.894L1026.57 453.23C1026.15 454.08 1025.87 454.729 1025.73 455.179C1025.6 455.618 1025.53 456.019 1025.53 456.38C1025.53 457.669 1026.23 458.621 1027.64 459.236C1029.04 459.852 1031.28 460.159 1034.35 460.159H1045.14C1044 459.847 1043.16 459.485 1042.62 459.075C1042.01 458.606 1041.7 458.025 1041.7 457.332C1041.7 456.424 1042 455.452 1042.61 454.417C1043.29 453.255 1044.05 452.674 1044.88 452.674C1045.85 452.674 1046.54 453.245 1046.97 454.388C1047.34 455.345 1047.52 456.707 1047.52 458.475V462.708ZM1045.99 458.27C1045.99 457.42 1045.9 456.766 1045.71 456.307C1045.49 455.76 1045.15 455.486 1044.69 455.486C1044.36 455.486 1044.11 455.589 1043.94 455.794C1043.79 455.989 1043.71 456.268 1043.71 456.629C1043.71 457.107 1043.91 457.469 1044.31 457.713C1044.6 457.889 1045.16 458.074 1045.99 458.27ZM1044.56 447.825L1043.42 449.949L1041.04 448.719L1042.13 446.58L1044.56 447.825ZM1054.86 462.708H1046.51V460.159H1053.79C1053.79 459.007 1053.65 458.128 1053.38 457.522C1053.19 457.103 1052.73 456.497 1052 455.706L1053.14 453.318C1053.84 454.207 1054.28 454.9 1054.46 455.398C1054.72 456.15 1054.86 457.396 1054.86 459.134V462.708ZM1053.7 449.173L1052.56 451.297L1050.18 450.066L1051.27 447.928L1053.7 449.173ZM1070.06 447.225L1069.36 449.861L1068.49 449.437L1068.52 450.77C1068.52 452.078 1068.36 453.348 1068.02 454.578C1067.66 455.926 1067.09 457.259 1066.31 458.577C1066.68 459.261 1066.94 459.798 1067.09 460.188C1067.31 460.804 1067.42 461.429 1067.42 462.063C1067.42 462.425 1067.41 462.732 1067.39 462.986C1067.38 463.24 1067.33 463.538 1067.26 463.88C1066.23 464.114 1065.12 464.3 1063.94 464.437C1062.77 464.563 1061.62 464.627 1060.51 464.627C1060.52 464.441 1060.52 464.285 1060.52 464.158C1060.57 463.416 1060.69 462.728 1060.88 462.093C1062.54 461.204 1063.94 460.052 1065.08 458.636C1064.4 457.347 1063.9 456.434 1063.59 455.896C1063.24 455.311 1062.66 454.397 1061.84 453.157C1061.54 452.737 1061.27 452.4 1061.04 452.146C1060.71 451.805 1060.46 451.634 1060.28 451.634C1060.15 451.634 1059.94 451.707 1059.65 451.854C1059.49 451.932 1059.36 451.971 1059.25 451.971C1059.04 451.971 1058.7 451.756 1058.24 451.326C1057.84 450.945 1057.42 450.477 1056.98 449.92C1056.63 449.471 1056.39 449.1 1056.26 448.807C1056.13 448.504 1056.07 448.143 1056.07 447.723C1056.07 447.117 1056.11 446.644 1056.19 446.302C1056.31 445.784 1056.51 445.525 1056.79 445.525C1057.19 445.525 1057.77 445.906 1058.53 446.668C1059.21 447.352 1059.96 448.25 1060.79 449.363C1061.52 450.35 1062.24 451.414 1062.96 452.557L1064.45 454.959C1064.89 455.682 1065.34 456.502 1065.8 457.42C1066.45 456.102 1066.9 454.769 1067.15 453.421C1067.36 452.249 1067.47 450.755 1067.47 448.938L1066.63 448.455C1066.63 447.811 1066.69 447.229 1066.79 446.712C1066.91 446.185 1067.07 445.706 1067.28 445.276L1067.61 445.364C1067.65 445.784 1067.89 446.121 1068.32 446.375C1068.55 446.512 1068.85 446.668 1069.21 446.844C1069.58 447.02 1069.87 447.146 1070.06 447.225ZM1066.25 461.478C1066.25 461.263 1066.21 461.043 1066.12 460.818C1066.04 460.584 1065.86 460.203 1065.58 459.676C1065.29 460.057 1064.85 460.496 1064.26 460.994C1063.68 461.492 1063.11 461.917 1062.55 462.269C1063.7 462.269 1064.52 462.234 1065.01 462.166C1065.84 462.049 1066.25 461.819 1066.25 461.478ZM1076.12 458.973C1076.12 459.754 1075.98 460.511 1075.7 461.243C1075.55 461.634 1075.24 462.254 1074.75 463.104L1074.48 462.957C1074.51 462.674 1074.54 462.347 1074.56 461.976C1074.59 461.604 1074.6 461.355 1074.6 461.229C1074.6 460.213 1074.52 458.797 1074.35 456.98C1074.2 455.154 1074.01 453.25 1073.78 451.268C1073.64 450.066 1073.49 448.841 1073.33 447.591C1073.52 447.161 1073.74 446.697 1073.99 446.199C1074.24 445.701 1074.48 445.232 1074.7 444.793C1074.86 445.906 1075.06 447.43 1075.29 449.363C1075.53 451.297 1075.72 453.04 1075.86 454.593C1076.04 456.526 1076.12 457.986 1076.12 458.973ZM1101.51 462.708H1099.5C1098.32 462.708 1097.48 462.488 1096.98 462.049C1096.49 461.609 1096.24 460.882 1096.24 459.866C1096.24 459.485 1096.29 459.012 1096.38 458.445C1096.42 458.23 1096.48 457.947 1096.54 457.596C1094.88 458.104 1093.62 458.538 1092.77 458.899C1091.2 459.563 1089.99 460.315 1089.13 461.155C1088.05 462.21 1087.51 463.411 1087.51 464.759C1087.51 466.858 1088.6 468.436 1090.79 469.49C1092.69 470.408 1095.24 470.867 1098.42 470.867H1101.12L1101.2 471.028L1097.89 473.357H1097.04C1094.93 473.357 1093.18 473.162 1091.78 472.771C1090.11 472.303 1088.85 471.551 1087.99 470.516C1087.01 469.334 1086.53 467.771 1086.53 465.828C1086.53 464.158 1086.94 462.698 1087.77 461.448C1088.42 460.472 1089.36 459.578 1090.6 458.768C1090.96 458.523 1091.96 457.962 1093.62 457.083C1093.22 457.034 1092.81 456.995 1092.37 456.966C1091.94 456.927 1091.55 456.907 1091.2 456.907C1090.21 456.907 1089.41 456.951 1088.8 457.039C1088.59 457.068 1087.95 457.2 1086.88 457.435C1087.21 456.478 1087.56 455.813 1087.92 455.442C1088.73 454.622 1090 454.212 1091.73 454.212C1092.67 454.212 1093.7 454.305 1094.8 454.49C1095.91 454.666 1096.83 454.754 1097.58 454.754C1098.08 454.754 1098.57 454.734 1099.04 454.695C1099.51 454.656 1100.01 454.603 1100.53 454.534L1099.94 457.024C1099.54 457.073 1099.09 457.142 1098.58 457.229C1098.26 457.288 1097.81 457.371 1097.25 457.479L1097.22 458.299C1097.22 459.1 1097.46 459.637 1097.95 459.91C1098.25 460.076 1098.77 460.159 1099.5 460.159H1101.51V462.708ZM1117.45 462.708H1116.32C1115.7 462.708 1115.16 462.625 1114.71 462.459C1114.26 462.283 1113.85 462.039 1113.48 461.727C1113.02 462.088 1112.62 462.327 1112.28 462.444C1111.78 462.62 1111.1 462.708 1110.23 462.708H1109.27C1108.77 462.708 1108.26 462.61 1107.75 462.415C1107.42 462.288 1107.01 462.078 1106.52 461.785C1106.05 462.137 1105.62 462.381 1105.23 462.518C1104.84 462.645 1104.21 462.708 1103.33 462.708H1100.5V460.159H1103.33C1104.12 460.159 1104.68 460.091 1105.03 459.954C1105.59 459.729 1105.88 459.28 1105.88 458.606C1105.88 458.323 1105.86 458.04 1105.83 457.757C1105.8 457.474 1105.75 457.156 1105.67 456.805L1106.27 455.926C1106.54 456.824 1106.77 457.479 1106.95 457.889C1107.26 458.602 1107.6 459.139 1107.97 459.5C1108.42 459.939 1108.96 460.159 1109.58 460.159H1110.56C1111.3 460.159 1111.84 460.047 1112.19 459.822C1112.58 459.568 1112.78 459.163 1112.78 458.606C1112.78 458.304 1112.76 458.011 1112.72 457.728C1112.68 457.444 1112.62 457.137 1112.56 456.805L1113.17 455.926L1113.48 457.303C1113.74 458.387 1114.06 459.139 1114.45 459.559C1114.78 459.93 1115.23 460.115 1115.79 460.115C1116.06 460.115 1116.27 460.037 1116.42 459.881C1116.59 459.715 1116.67 459.505 1116.67 459.251C1116.67 458.704 1116.47 458.128 1116.07 457.522C1116 457.425 1115.76 457.107 1115.35 456.57L1116.31 454.974C1116.71 455.579 1116.98 456.102 1117.13 456.541C1117.34 457.205 1117.45 458.089 1117.45 459.192V462.708ZM1113.26 446.8L1112.13 448.938L1109.79 447.679L1110.87 445.54L1113.26 446.8ZM1116.14 449.407L1115 451.517L1112.63 450.257L1113.73 448.162L1116.14 449.407ZM1112.78 450.726L1111.66 452.85L1109.29 451.619L1110.37 449.495L1112.78 450.726ZM1132.13 462.708C1132.13 463.782 1131.67 464.896 1130.75 466.048C1129.95 467.063 1128.95 467.938 1127.76 468.67C1126.63 469.373 1125.7 469.725 1124.96 469.725C1124.29 469.725 1123.56 469.627 1122.78 469.432C1122.18 469.285 1121.47 469.056 1120.64 468.743C1119.94 468.479 1119.24 468.216 1118.55 467.952L1118.8 467.366C1119.44 467.493 1120.11 467.62 1120.8 467.747C1121.51 467.884 1122.14 467.952 1122.71 467.952C1123.96 467.952 1125.26 467.552 1126.62 466.751C1127.85 466.019 1128.9 465.096 1129.77 463.982C1130.64 462.859 1131.07 461.849 1131.07 460.95C1131.07 460.179 1130.85 459.368 1130.4 458.519C1130.04 457.835 1129.53 457.132 1128.87 456.409L1129.71 454.109C1130.51 454.852 1131.1 455.594 1131.48 456.336C1131.91 457.176 1132.13 458.113 1132.13 459.148V462.708Z" fill="#FF383D"/>
<path d="M1081.03 371.265C1129.8 371.265 1169.34 410.803 1169.34 459.578C1169.34 508.35 1129.8 547.888 1081.03 547.888V591.502" stroke="#FFD6D7" stroke-width="2.4" stroke-miterlimit="10"/>
<path d="M1073.77 593.704C1073.77 589.692 1077.02 586.442 1081.03 586.442C1085.04 586.442 1088.29 589.692 1088.29 593.704C1088.29 597.716 1085.04 600.966 1081.03 600.966C1077.02 600.966 1073.77 597.716 1073.77 593.704Z" fill="#F2AEB0"/>
<path opacity="0.15" d="M11.0007 730.366C11.0007 691.356 42.625 659.732 81.6348 659.732C120.645 659.732 152.266 691.356 152.266 730.366C152.266 769.376 120.645 801 81.6348 801C42.625 801 11.0007 769.376 11.0007 730.366Z" fill="#FF383D"/>
<path d="M47.6387 740.708H46.4814C45.8955 740.708 45.3779 740.63 44.9287 740.474C44.4893 740.308 44.04 740.049 43.5811 739.697C43.1709 740.068 42.8047 740.317 42.4824 740.444C42.0234 740.62 41.3545 740.708 40.4756 740.708H38.6738C38.6738 741.606 38.459 742.48 38.0293 743.33C37.4727 744.434 36.623 745.308 35.4805 745.952C34.0449 746.763 32.248 747.168 30.0898 747.168C28.1367 747.168 26.6426 746.826 25.6074 746.143C24.4746 745.391 23.9082 744.238 23.9082 742.686C23.9082 741.846 24.0107 740.996 24.2158 740.137C24.4209 739.277 24.6992 738.413 25.0508 737.544C25.2656 737.017 25.6367 736.206 26.1641 735.112L26.75 735.376C26.0664 736.782 25.6123 737.891 25.3877 738.701C25.1729 739.512 25.0654 740.254 25.0654 740.928C25.0654 742.139 25.4951 743.062 26.3545 743.696C27.2236 744.321 28.459 744.634 30.0605 744.634C31.9355 744.634 33.6104 744.307 35.085 743.652C36.9209 742.842 37.8389 741.709 37.8389 740.254C37.8389 739.277 37.6582 738.35 37.2969 737.471C37.0137 736.777 36.6133 736.113 36.0957 735.479L37.3115 732.476C37.7998 733.276 38.1318 733.984 38.3076 734.6C38.5518 735.469 38.6738 736.655 38.6738 738.159H40.4756C41.4033 738.159 42.0625 738.018 42.4531 737.734C42.7949 737.49 42.9658 737.114 42.9658 736.606C42.9658 736.323 42.9463 736.04 42.9072 735.757C42.8779 735.464 42.8291 735.146 42.7607 734.805L43.3467 733.926L43.5811 735.347C43.7959 736.304 44.084 736.992 44.4453 737.412C44.8457 737.881 45.4121 738.115 46.1445 738.115C46.3691 738.115 46.54 738.047 46.6572 737.91C46.7842 737.764 46.8477 737.583 46.8477 737.368C46.8477 736.88 46.6963 736.357 46.3936 735.801C46.1689 735.391 45.8711 734.98 45.5 734.57L46.4814 732.974C46.9404 733.726 47.2188 734.238 47.3164 734.512C47.5312 735.127 47.6387 736.021 47.6387 737.192V740.708ZM55.5195 740.708H46.6133V738.159H51.6377C52.2432 738.159 52.7559 738.14 53.1758 738.101C53.6055 738.052 54.0693 737.954 54.5674 737.808C52.8877 737.563 51.7988 737.334 51.3008 737.119C50.1777 736.631 49.6162 735.801 49.6162 734.629C49.6162 733.604 49.8848 732.637 50.4219 731.729C51.0273 730.703 51.7646 730.19 52.6338 730.19C53.6299 730.19 54.3867 730.825 54.9043 732.095C55.3145 733.101 55.5195 734.287 55.5195 735.654V740.708ZM54.2012 735.596C53.9766 734.814 53.7617 734.233 53.5566 733.853C53.1562 733.12 52.6729 732.754 52.1064 732.754C51.833 732.754 51.5986 732.861 51.4033 733.076C51.208 733.291 51.1104 733.545 51.1104 733.838C51.1104 734.58 51.4961 735.078 52.2676 735.332C52.541 735.42 53.1855 735.508 54.2012 735.596ZM54.2158 725.107L53.0732 727.231L50.7002 726.001L51.7842 723.862L54.2158 725.107ZM62.8438 740.708H54.4941V738.159H61.7744C61.7744 737.007 61.6377 736.128 61.3643 735.522C61.1787 735.103 60.7197 734.497 59.9873 733.706L61.1299 731.318C61.833 732.207 62.2725 732.9 62.4482 733.398C62.7119 734.15 62.8438 735.396 62.8438 737.134V740.708ZM61.6865 727.173L60.5439 729.297L58.1709 728.066L59.2549 725.928L61.6865 727.173ZM70.168 740.708H61.8184V738.159H69.0986C69.0986 737.007 68.9619 736.128 68.6885 735.522C68.5029 735.103 68.0439 734.497 67.3115 733.706L68.4541 731.318C69.1572 732.207 69.5967 732.9 69.7725 733.398C70.0361 734.15 70.168 735.396 70.168 737.134V740.708ZM70.0801 726.235L68.9961 728.359L66.5938 727.129L67.707 725.005L70.0801 726.235ZM66.7402 727.598L65.6416 729.692L63.2246 728.447L64.3672 726.338L66.7402 727.598ZM76.3789 740.708H69.1426V738.159H74.8994L73.1562 725.737L72.3945 725.371C72.3945 724.697 72.4531 724.067 72.5703 723.481C72.6875 722.886 72.8633 722.31 73.0977 721.753L73.3174 721.914C73.3174 722.48 73.6348 722.905 74.2695 723.188C74.7578 723.384 75.251 723.579 75.749 723.774C75.749 724.263 75.71 724.785 75.6318 725.342C75.5537 725.898 75.4609 726.313 75.3535 726.587L74.6504 726.353L76.3789 737.837V740.708ZM81.3301 736.973C81.3301 737.754 81.1885 738.511 80.9053 739.243C80.7588 739.634 80.4414 740.254 79.9531 741.104L79.6895 740.957C79.7188 740.674 79.7432 740.347 79.7627 739.976C79.792 739.604 79.8066 739.355 79.8066 739.229C79.8066 738.213 79.7236 736.797 79.5576 734.98C79.4014 733.154 79.2109 731.25 78.9863 729.268C78.8496 728.066 78.6982 726.841 78.5322 725.591C78.7275 725.161 78.9473 724.697 79.1914 724.199C79.4453 723.701 79.6846 723.232 79.9092 722.793C80.0654 723.906 80.2607 725.43 80.4951 727.363C80.7393 729.297 80.9297 731.04 81.0664 732.593C81.2422 734.526 81.3301 735.986 81.3301 736.973ZM108.386 742.202C108.386 742.642 108.327 743.076 108.21 743.506C108.093 743.936 107.917 744.346 107.683 744.736C107.458 745.117 107.17 745.469 106.818 745.791C106.477 746.113 106.071 746.387 105.603 746.611C103.933 747.432 101.716 747.842 98.9521 747.842C94.2939 747.842 91.9648 746.191 91.9648 742.891C91.9648 740.635 92.6387 738.252 93.9863 735.742L94.6016 736.006C93.5957 738.379 93.0928 740.239 93.0928 741.587C93.0928 744.019 95.0996 745.234 99.1133 745.234C100.168 745.234 101.145 745.161 102.043 745.015C102.951 744.878 103.796 744.663 104.577 744.37C105.026 744.204 105.417 744.009 105.749 743.784C106.091 743.56 106.374 743.32 106.599 743.066C106.833 742.812 107.004 742.559 107.111 742.305C107.229 742.041 107.287 741.787 107.287 741.543C107.287 741.396 107.277 741.265 107.258 741.147C107.248 741.021 107.214 740.874 107.155 740.708H104.797C103.938 740.708 103.239 740.513 102.702 740.122C102.048 739.644 101.721 738.936 101.721 737.998C101.721 736.885 102.004 735.825 102.57 734.819C103.195 733.696 103.947 733.135 104.826 733.135C105.979 733.135 106.882 733.916 107.536 735.479C108.103 736.787 108.386 738.325 108.386 740.093V742.202ZM106.218 738.115C106.13 737.773 106.018 737.446 105.881 737.134C105.754 736.821 105.622 736.577 105.485 736.401C105.339 736.206 105.148 736.04 104.914 735.903C104.68 735.767 104.465 735.698 104.27 735.698C104.074 735.698 103.903 735.742 103.757 735.83C103.62 735.918 103.503 736.025 103.405 736.152C103.317 736.279 103.249 736.416 103.2 736.562C103.151 736.709 103.127 736.841 103.127 736.958C103.127 737.261 103.278 737.505 103.581 737.69C103.835 737.847 104.147 737.954 104.519 738.013C104.616 738.032 104.738 738.052 104.885 738.071C105.041 738.081 105.197 738.091 105.354 738.101C105.52 738.101 105.676 738.105 105.822 738.115C105.979 738.115 106.11 738.115 106.218 738.115ZM106.613 727.202L105.529 729.326L103.127 728.096L104.24 725.972L106.613 727.202ZM103.273 728.564L102.175 730.659L99.7578 729.414L100.9 727.305L103.273 728.564ZM115.725 740.708H107.375V738.159H114.655C114.655 737.007 114.519 736.128 114.245 735.522C114.06 735.103 113.601 734.497 112.868 733.706L114.011 731.318C114.714 732.207 115.153 732.9 115.329 733.398C115.593 734.15 115.725 735.396 115.725 737.134V740.708ZM115.593 743.608L114.509 745.732L112.106 744.502L113.22 742.378L115.593 743.608ZM112.253 744.971L111.154 747.065L108.737 745.82L109.88 743.711L112.253 744.971ZM141.11 740.708H123.503C122.976 740.708 122.473 740.62 121.994 740.444C121.633 740.308 121.208 740.088 120.72 739.785C120.31 740.137 119.899 740.381 119.489 740.518C119.079 740.645 118.425 740.708 117.526 740.708H114.699V738.159H117.526C118.317 738.159 118.884 738.091 119.226 737.954C119.792 737.729 120.075 737.28 120.075 736.606C120.075 736.323 120.056 736.04 120.017 735.757C119.987 735.464 119.938 735.146 119.87 734.805L120.471 733.926C120.812 735.254 121.281 736.279 121.877 737.002C122.512 737.773 123.259 738.159 124.118 738.159C124.938 738.159 125.9 737.974 127.004 737.603C128.195 737.202 129.221 736.694 130.08 736.079C131.477 735.083 132.331 734.487 132.644 734.292C133.435 733.784 134.152 733.423 134.797 733.208C135.52 732.964 136.311 732.842 137.17 732.842C138.498 732.842 139.499 733.228 140.173 733.999C140.798 734.712 141.11 735.713 141.11 737.002V740.708ZM138.723 737.031C138.723 736.553 138.425 736.182 137.829 735.918C137.233 735.645 136.54 735.508 135.749 735.508C134.772 735.508 133.591 735.835 132.204 736.489C131.101 737.046 130.002 737.603 128.908 738.159H135.661C136.726 738.159 137.502 738.066 137.99 737.881C138.479 737.695 138.723 737.412 138.723 737.031ZM131.809 728.535L130.666 730.659L128.293 729.429L129.377 727.29L131.809 728.535Z" fill="#FF383D"/>
<path d="M81.3325 642.642C130.105 642.642 169.643 682.18 169.643 730.952C169.643 779.727 130.105 819.265 81.3325 819.265V862.876" stroke="#FFD6D7" stroke-width="2.4" stroke-miterlimit="10"/>
<path d="M74.0701 865.08C74.0701 861.068 77.3207 857.818 81.3323 857.818C85.344 857.818 88.5946 861.068 88.5946 865.08C88.5946 869.089 85.344 872.342 81.3323 872.342C77.3207 872.342 74.0701 869.089 74.0701 865.08Z" fill="#F2AEB0"/>
<path d="M186.74 742.834H365.033C374.666 742.834 383.365 737.075 387.127 728.207L443.54 595.233C447.302 586.365 456.002 580.606 465.634 580.606H672.809" stroke="#FFB2B1" stroke-width="5" stroke-linejoin="round"/>
<path d="M201.987 743.241C201.987 748.277 197.904 752.359 192.868 752.359C187.832 752.359 183.75 748.277 183.75 743.241C183.75 738.205 187.832 734.122 192.868 734.122C197.904 734.122 201.987 738.205 201.987 743.241Z" fill="#FF383D"/>
<path opacity="0.15" d="M159.268 488.366C159.268 449.356 127.644 417.732 88.6338 417.732C49.624 417.732 17.9998 449.356 17.9998 488.366C17.9998 527.376 49.624 559 88.6338 559C127.644 559 159.268 527.376 159.268 488.366Z" fill="#FF383D"/>
<path d="M60.4375 497.202C60.4375 497.642 60.3789 498.076 60.2617 498.506C60.1445 498.936 59.9688 499.346 59.7344 499.736C59.5098 500.117 59.2217 500.469 58.8701 500.791C58.5283 501.113 58.123 501.387 57.6543 501.611C55.9844 502.432 53.7676 502.842 51.0039 502.842C46.3457 502.842 44.0166 501.191 44.0166 497.891C44.0166 495.635 44.6904 493.252 46.0381 490.742L46.6533 491.006C45.6475 493.379 45.1445 495.239 45.1445 496.587C45.1445 499.019 47.1514 500.234 51.165 500.234C52.2197 500.234 53.1963 500.161 54.0947 500.015C55.0029 499.878 55.8477 499.663 56.6289 499.37C57.0781 499.204 57.4688 499.009 57.8008 498.784C58.1426 498.56 58.4258 498.32 58.6504 498.066C58.8848 497.812 59.0557 497.559 59.1631 497.305C59.2803 497.041 59.3389 496.787 59.3389 496.543C59.3389 496.396 59.3291 496.265 59.3096 496.147C59.2998 496.021 59.2656 495.874 59.207 495.708H56.8486C55.9893 495.708 55.291 495.513 54.7539 495.122C54.0996 494.644 53.7725 493.936 53.7725 492.998C53.7725 491.885 54.0557 490.825 54.6221 489.819C55.2471 488.696 55.999 488.135 56.8779 488.135C58.0303 488.135 58.9336 488.916 59.5879 490.479C60.1543 491.787 60.4375 493.325 60.4375 495.093V497.202ZM58.2695 493.115C58.1816 492.773 58.0693 492.446 57.9326 492.134C57.8057 491.821 57.6738 491.577 57.5371 491.401C57.3906 491.206 57.2002 491.04 56.9658 490.903C56.7314 490.767 56.5166 490.698 56.3213 490.698C56.126 490.698 55.9551 490.742 55.8086 490.83C55.6719 490.918 55.5547 491.025 55.457 491.152C55.3691 491.279 55.3008 491.416 55.252 491.562C55.2031 491.709 55.1787 491.841 55.1787 491.958C55.1787 492.261 55.3301 492.505 55.6328 492.69C55.8867 492.847 56.1992 492.954 56.5703 493.013C56.668 493.032 56.79 493.052 56.9365 493.071C57.0928 493.081 57.249 493.091 57.4053 493.101C57.5713 493.101 57.7275 493.105 57.874 493.115C58.0303 493.115 58.1621 493.115 58.2695 493.115ZM58.665 482.202L57.5811 484.326L55.1787 483.096L56.292 480.972L58.665 482.202ZM55.3252 483.564L54.2266 485.659L51.8096 484.414L52.9521 482.305L55.3252 483.564ZM66.6631 495.708H59.4268V493.159H65.1836L63.4404 480.737L62.6787 480.371C62.6787 479.697 62.7373 479.067 62.8545 478.481C62.9717 477.886 63.1475 477.31 63.3818 476.753L63.6016 476.914C63.6016 477.48 63.9189 477.905 64.5537 478.188C65.042 478.384 65.5352 478.579 66.0332 478.774C66.0332 479.263 65.9941 479.785 65.916 480.342C65.8379 480.898 65.7451 481.313 65.6377 481.587L64.9346 481.353L66.6631 492.837V495.708ZM82.5566 495.708H65.6377V493.159H77.5762C76.5801 492.388 75.7402 491.787 75.0566 491.357C74.207 490.82 73.4307 490.43 72.7275 490.186C71.9365 489.912 71.1357 489.775 70.3252 489.775C69.8271 489.775 69.3242 489.81 68.8164 489.878C69.0996 489.155 69.4707 488.574 69.9297 488.135C70.5938 487.5 71.4336 487.183 72.4492 487.183C73.4453 487.183 74.6221 487.671 75.9795 488.647C76.6533 489.136 77.752 490.063 79.2754 491.431C80.457 492.495 81.2578 493.071 81.6777 493.159H82.5566V495.708ZM88.7822 495.708H81.5459V493.159H87.3027L85.5596 480.737L84.7979 480.371C84.7979 479.697 84.8564 479.067 84.9736 478.481C85.0908 477.886 85.2666 477.31 85.501 476.753L85.7207 476.914C85.7207 477.48 86.0381 477.905 86.6729 478.188C87.1611 478.384 87.6543 478.579 88.1523 478.774C88.1523 479.263 88.1133 479.785 88.0352 480.342C87.957 480.898 87.8643 481.313 87.7568 481.587L87.0537 481.353L88.7822 492.837V495.708ZM93.7334 491.973C93.7334 492.754 93.5918 493.511 93.3086 494.243C93.1621 494.634 92.8447 495.254 92.3564 496.104L92.0928 495.957C92.1221 495.674 92.1465 495.347 92.166 494.976C92.1953 494.604 92.21 494.355 92.21 494.229C92.21 493.213 92.127 491.797 91.9609 489.98C91.8047 488.154 91.6143 486.25 91.3896 484.268C91.2529 483.066 91.1016 481.841 90.9355 480.591C91.1309 480.161 91.3506 479.697 91.5947 479.199C91.8486 478.701 92.0879 478.232 92.3125 477.793C92.4688 478.906 92.6641 480.43 92.8984 482.363C93.1426 484.297 93.333 486.04 93.4697 487.593C93.6455 489.526 93.7334 490.986 93.7334 491.973ZM113.479 495.708H111.736C110.115 495.708 108.699 495.859 107.488 496.162C105.955 496.543 105.188 497.09 105.188 497.803C105.188 498.447 105.296 499.136 105.511 499.868C105.735 500.601 105.96 501.343 106.185 502.095C106.419 502.847 106.536 503.535 106.536 504.16C106.536 504.531 106.507 504.868 106.448 505.171C106.399 505.474 106.307 505.869 106.17 506.357C105.916 505.547 105.667 504.736 105.423 503.926C104.954 502.383 104.607 501.216 104.383 500.425C104.031 499.175 103.855 498.423 103.855 498.169C103.855 496.919 104.114 495.962 104.632 495.298C105.159 494.624 105.965 494.126 107.049 493.804C107.908 493.55 109.202 493.335 110.931 493.159C110.315 492.534 109.935 492.163 109.788 492.046C109.29 491.655 108.787 491.46 108.279 491.46C107.957 491.46 107.649 491.558 107.356 491.753C107.122 491.909 106.839 492.178 106.507 492.559L105.833 492.134C106.126 491.401 106.458 490.815 106.829 490.376C107.444 489.653 108.172 489.292 109.012 489.292C109.617 489.292 110.223 489.517 110.828 489.966C111.326 490.337 111.834 490.854 112.352 491.519C112.605 491.841 112.981 492.388 113.479 493.159V495.708ZM128.685 480.225L127.981 482.861L127.117 482.437L127.146 483.77C127.146 485.078 126.98 486.348 126.648 487.578C126.287 488.926 125.716 490.259 124.935 491.577C125.306 492.261 125.564 492.798 125.711 493.188C125.936 493.804 126.048 494.429 126.048 495.063C126.048 495.425 126.038 495.732 126.019 495.986C125.999 496.24 125.955 496.538 125.887 496.88C124.852 497.114 123.743 497.3 122.562 497.437C121.39 497.563 120.247 497.627 119.134 497.627C119.144 497.441 119.148 497.285 119.148 497.158C119.197 496.416 119.314 495.728 119.5 495.093C121.16 494.204 122.562 493.052 123.704 491.636C123.021 490.347 122.522 489.434 122.21 488.896C121.868 488.311 121.287 487.397 120.467 486.157C120.164 485.737 119.896 485.4 119.661 485.146C119.339 484.805 119.085 484.634 118.899 484.634C118.772 484.634 118.562 484.707 118.27 484.854C118.113 484.932 117.981 484.971 117.874 484.971C117.659 484.971 117.322 484.756 116.863 484.326C116.463 483.945 116.043 483.477 115.604 482.92C115.252 482.471 115.013 482.1 114.886 481.807C114.759 481.504 114.695 481.143 114.695 480.723C114.695 480.117 114.734 479.644 114.812 479.302C114.93 478.784 115.13 478.525 115.413 478.525C115.813 478.525 116.395 478.906 117.156 479.668C117.83 480.352 118.582 481.25 119.412 482.363C120.145 483.35 120.867 484.414 121.58 485.557L123.074 487.959C123.514 488.682 123.963 489.502 124.422 490.42C125.076 489.102 125.525 487.769 125.77 486.421C125.984 485.249 126.092 483.755 126.092 481.938L125.257 481.455C125.257 480.811 125.311 480.229 125.418 479.712C125.535 479.185 125.696 478.706 125.901 478.276L126.238 478.364C126.277 478.784 126.512 479.121 126.941 479.375C127.176 479.512 127.474 479.668 127.835 479.844C128.206 480.02 128.489 480.146 128.685 480.225ZM124.876 494.478C124.876 494.263 124.832 494.043 124.744 493.818C124.666 493.584 124.485 493.203 124.202 492.676C123.909 493.057 123.47 493.496 122.884 493.994C122.308 494.492 121.736 494.917 121.17 495.269C122.322 495.269 123.143 495.234 123.631 495.166C124.461 495.049 124.876 494.819 124.876 494.478ZM134.749 491.973C134.749 492.754 134.607 493.511 134.324 494.243C134.178 494.634 133.86 495.254 133.372 496.104L133.108 495.957C133.138 495.674 133.162 495.347 133.182 494.976C133.211 494.604 133.226 494.355 133.226 494.229C133.226 493.213 133.143 491.797 132.977 489.98C132.82 488.154 132.63 486.25 132.405 484.268C132.269 483.066 132.117 481.841 131.951 480.591C132.146 480.161 132.366 479.697 132.61 479.199C132.864 478.701 133.104 478.232 133.328 477.793C133.484 478.906 133.68 480.43 133.914 482.363C134.158 484.297 134.349 486.04 134.485 487.593C134.661 489.526 134.749 490.986 134.749 491.973ZM135.877 475.391C135.555 475.918 135.179 476.304 134.749 476.548C134.329 476.792 133.797 476.914 133.152 476.914C132.996 476.914 132.84 476.904 132.684 476.885C132.527 476.865 132.366 476.841 132.2 476.812C131.771 476.714 131.429 476.665 131.175 476.665C130.979 476.665 130.809 476.704 130.662 476.782C130.516 476.86 130.384 476.938 130.267 477.017L130.076 476.855C130.242 476.504 130.442 476.216 130.677 475.991C130.911 475.757 131.15 475.64 131.395 475.64C131.473 475.64 131.6 475.654 131.775 475.684C131.961 475.703 132.225 475.737 132.566 475.786C132.771 475.815 132.967 475.84 133.152 475.859C133.338 475.879 133.514 475.889 133.68 475.889C134.051 475.889 134.407 475.82 134.749 475.684C135.091 475.547 135.403 475.386 135.687 475.2L135.877 475.391Z" fill="#FF383D"/>
<path d="M89.9726 400.026C41.2003 400.026 1.6626 439.563 1.6626 488.338C1.6626 537.111 41.2003 576.648 89.9726 576.648V620.262" stroke="#FFD6D7" stroke-width="2.4" stroke-miterlimit="10"/>
<path d="M97.4327 622.545C97.4327 618.533 94.1821 615.283 90.1705 615.283C86.1615 615.283 82.9082 618.533 82.9082 622.545C82.9082 626.556 86.1615 629.807 90.1705 629.807C94.1821 629.807 97.4327 626.556 97.4327 622.545Z" fill="#F2AEB0"/>
<path d="M190.511 503.07H393.822C401.243 503.07 408.246 499.638 412.792 493.772L455.528 438.629C460.074 432.763 467.077 429.331 474.498 429.331H631.721" stroke="#FFB2B1" stroke-width="5" stroke-linejoin="round"/>
<path d="M200.761 503.586C200.761 508.622 196.678 512.704 191.642 512.704C186.606 512.704 182.524 508.622 182.524 503.586C182.524 498.55 186.606 494.468 191.642 494.468C196.678 494.468 200.761 498.55 200.761 503.586Z" fill="#FF383D"/>
<path opacity="0.13" d="M1160 700.366C1160 661.356 1128.38 629.732 1089.37 629.732C1050.36 629.732 1018.74 661.356 1018.74 700.366C1018.74 739.376 1050.36 771 1089.37 771C1128.38 771 1160 739.376 1160 700.366Z" fill="#FF383D"/>
<path d="M1040.89 704.708H1034.33C1033.77 704.708 1033.27 704.547 1032.82 704.225C1032.38 703.902 1032.16 703.521 1032.16 703.082C1032.16 702.711 1032.18 702.374 1032.22 702.071C1032.26 701.769 1032.33 701.437 1032.44 701.075H1032.78C1032.88 701.476 1033.08 701.764 1033.36 701.939C1033.6 702.086 1033.92 702.159 1034.33 702.159H1040C1040 700.411 1039.75 699.005 1039.27 697.94C1038.66 696.612 1037.65 695.729 1036.23 695.289L1036.45 692.447C1038.14 693.277 1039.34 694.601 1040.04 696.417C1040.61 697.882 1040.89 699.796 1040.89 702.159V704.708ZM1055.57 704.708C1055.57 705.782 1055.11 706.896 1054.19 708.048C1053.39 709.063 1052.4 709.938 1051.21 710.67C1050.07 711.373 1049.14 711.725 1048.41 711.725C1047.73 711.725 1047.01 711.627 1046.22 711.432C1045.63 711.285 1044.92 711.056 1044.09 710.743C1043.38 710.479 1042.68 710.216 1041.99 709.952L1042.24 709.366C1042.88 709.493 1043.55 709.62 1044.25 709.747C1044.95 709.884 1045.58 709.952 1046.15 709.952C1047.4 709.952 1048.71 709.552 1050.06 708.751C1051.29 708.019 1052.34 707.096 1053.21 705.982C1054.08 704.859 1054.52 703.849 1054.52 702.95C1054.52 702.179 1054.29 701.368 1053.84 700.519C1053.48 699.835 1052.97 699.132 1052.32 698.409L1053.15 696.109C1053.95 696.852 1054.54 697.594 1054.93 698.336C1055.36 699.176 1055.57 700.113 1055.57 701.148V704.708ZM1062.91 704.708H1054.56V702.159H1061.84C1061.84 701.007 1061.7 700.128 1061.43 699.522C1061.24 699.103 1060.79 698.497 1060.05 697.706L1061.2 695.318C1061.9 696.207 1062.34 696.9 1062.51 697.398C1062.78 698.15 1062.91 699.396 1062.91 701.134V704.708ZM1061.42 708.268L1060.27 710.392L1057.9 709.161L1058.98 707.022L1061.42 708.268ZM1075.87 703.829C1075.87 705.44 1075.28 707.042 1074.09 708.634C1072.76 710.411 1071.22 711.3 1069.49 711.3C1068.84 711.3 1068.18 711.227 1067.49 711.08C1067 710.973 1066.35 710.787 1065.55 710.523C1064.91 710.299 1064.28 710.079 1063.64 709.864L1063.89 709.352C1064.44 709.479 1065.01 709.61 1065.6 709.747C1066.21 709.894 1066.75 709.967 1067.23 709.967C1068.42 709.967 1069.55 709.664 1070.61 709.059C1071.44 708.58 1072.27 707.887 1073.1 706.979C1073.52 706.52 1074.12 705.772 1074.89 704.737C1073.57 704.737 1072.59 704.527 1071.93 704.107C1071.19 703.629 1070.82 702.843 1070.82 701.749C1070.82 700.743 1071.05 699.811 1071.52 698.951C1072.07 697.955 1072.76 697.457 1073.6 697.457C1074.45 697.457 1075.06 697.95 1075.43 698.937C1075.73 699.708 1075.87 700.782 1075.87 702.159V703.829ZM1074.95 702.232C1074.74 701.295 1074.48 700.646 1074.17 700.284C1073.91 699.972 1073.59 699.815 1073.21 699.815C1072.93 699.815 1072.69 699.908 1072.49 700.094C1072.29 700.27 1072.2 700.494 1072.2 700.768C1072.2 701.246 1072.41 701.612 1072.84 701.866C1073.27 702.11 1073.97 702.232 1074.95 702.232ZM1108.88 704.708H1107.72C1107.13 704.708 1106.62 704.63 1106.17 704.474C1105.73 704.308 1105.28 704.049 1104.82 703.697C1104.41 704.068 1104.04 704.317 1103.72 704.444C1103.26 704.62 1102.59 704.708 1101.71 704.708H1099.91C1099.91 705.606 1099.7 706.48 1099.27 707.33C1098.71 708.434 1097.86 709.308 1096.72 709.952C1095.28 710.763 1093.49 711.168 1091.33 711.168C1089.37 711.168 1087.88 710.826 1086.84 710.143C1085.71 709.391 1085.15 708.238 1085.15 706.686C1085.15 705.846 1085.25 704.996 1085.45 704.137C1085.66 703.277 1085.94 702.413 1086.29 701.544C1086.5 701.017 1086.87 700.206 1087.4 699.112L1087.99 699.376C1087.3 700.782 1086.85 701.891 1086.62 702.701C1086.41 703.512 1086.3 704.254 1086.3 704.928C1086.3 706.139 1086.73 707.062 1087.59 707.696C1088.46 708.321 1089.7 708.634 1091.3 708.634C1093.17 708.634 1094.85 708.307 1096.32 707.652C1098.16 706.842 1099.08 705.709 1099.08 704.254C1099.08 703.277 1098.9 702.35 1098.53 701.471C1098.25 700.777 1097.85 700.113 1097.33 699.479L1098.55 696.476C1099.04 697.276 1099.37 697.984 1099.54 698.6C1099.79 699.469 1099.91 700.655 1099.91 702.159H1101.71C1102.64 702.159 1103.3 702.018 1103.69 701.734C1104.03 701.49 1104.2 701.114 1104.2 700.606C1104.2 700.323 1104.18 700.04 1104.14 699.757C1104.12 699.464 1104.07 699.146 1104 698.805L1104.58 697.926L1104.82 699.347C1105.03 700.304 1105.32 700.992 1105.68 701.412C1106.08 701.881 1106.65 702.115 1107.38 702.115C1107.61 702.115 1107.78 702.047 1107.89 701.91C1108.02 701.764 1108.08 701.583 1108.08 701.368C1108.08 700.88 1107.93 700.357 1107.63 699.801C1107.41 699.391 1107.11 698.98 1106.74 698.57L1107.72 696.974C1108.18 697.726 1108.46 698.238 1108.55 698.512C1108.77 699.127 1108.88 700.021 1108.88 701.192V704.708ZM1104.83 688.8L1103.71 690.938L1101.36 689.679L1102.45 687.54L1104.83 688.8ZM1107.72 691.407L1106.58 693.517L1104.2 692.257L1105.3 690.162L1107.72 691.407ZM1104.35 692.726L1103.24 694.85L1100.86 693.619L1101.95 691.495L1104.35 692.726ZM1115.76 704.708H1113.71C1113.05 704.708 1112.51 704.439 1112.11 703.902C1111.76 703.434 1111.49 702.735 1111.31 701.808C1111.13 700.88 1111 699.737 1110.9 698.38C1110.84 697.276 1110.78 696.144 1110.71 694.981C1110.65 693.819 1110.57 692.94 1110.46 692.345C1110.36 691.739 1110.22 691.246 1110.05 690.865C1109.83 690.396 1109.54 689.986 1109.15 689.635L1110.96 686.793C1111.34 687.965 1111.61 689.366 1111.76 690.997C1111.86 692.013 1111.96 694.415 1112.05 698.204C1112.23 699.942 1112.48 701.056 1112.82 701.544C1113.09 701.954 1113.39 702.159 1113.71 702.159H1115.76V704.708ZM1129.87 700.138L1128.86 702.804C1127.38 703.341 1125.67 703.795 1123.73 704.166C1121.8 704.527 1120.01 704.708 1118.38 704.708H1114.74V702.159H1118.25C1117.97 701.7 1117.74 701.183 1117.56 700.606C1117.39 700.021 1117.3 699.454 1117.3 698.907C1117.3 697.755 1117.78 696.788 1118.73 696.007C1119.7 695.226 1120.94 694.835 1122.46 694.835C1123.66 694.835 1124.65 695.128 1125.43 695.714C1125.76 695.958 1126.32 696.559 1127.11 697.516L1126.83 697.765C1126.16 697.579 1125.56 697.442 1125.02 697.354C1124.48 697.257 1123.92 697.208 1123.35 697.208C1122 697.208 1120.94 697.359 1120.17 697.662C1119.41 697.955 1119.03 698.346 1119.03 698.834C1119.03 699.312 1119.27 699.85 1119.75 700.445C1120.23 701.031 1120.86 701.554 1121.62 702.013C1123.22 701.769 1124.54 701.534 1125.56 701.31C1126.59 701.075 1128.02 700.685 1129.87 700.138ZM1146.21 704.708C1146.21 705.782 1145.76 706.896 1144.84 708.048C1144.04 709.063 1143.04 709.938 1141.85 710.67C1140.72 711.373 1139.78 711.725 1139.05 711.725C1138.38 711.725 1137.65 711.627 1136.87 711.432C1136.27 711.285 1135.56 711.056 1134.73 710.743C1134.03 710.479 1133.33 710.216 1132.64 709.952L1132.88 709.366C1133.53 709.493 1134.2 709.62 1134.89 709.747C1135.59 709.884 1136.23 709.952 1136.8 709.952C1138.05 709.952 1139.35 709.552 1140.71 708.751C1141.94 708.019 1142.99 707.096 1143.86 705.982C1144.73 704.859 1145.16 703.849 1145.16 702.95C1145.16 702.179 1144.94 701.368 1144.49 700.519C1144.12 699.835 1143.62 699.132 1142.96 698.409L1143.8 696.109C1144.6 696.852 1145.19 697.594 1145.57 698.336C1146 699.176 1146.21 700.113 1146.21 701.148V704.708Z" fill="#FA5652"/>
<path d="M1089.87 613.801C1041.1 613.801 1001.56 653.339 1001.56 702.111C1001.56 750.886 1041.1 790.424 1089.87 790.424V834.035" stroke="#FFD6D7" stroke-width="2.4" stroke-miterlimit="10"/>
<path d="M1097.13 836.239C1097.13 832.227 1093.88 828.976 1089.86 828.976C1085.85 828.976 1082.6 832.227 1082.6 836.239C1082.6 840.248 1085.85 843.501 1089.86 843.501C1093.88 843.501 1097.13 840.248 1097.13 836.239Z" fill="#F2AEB0"/>
<path d="M725.738 754.401H816.846C824.124 754.401 831.009 751.098 835.565 745.421L861.096 713.605C865.651 707.929 872.536 704.626 879.814 704.626H973.995" stroke="#FFA6A6" stroke-width="5" stroke-linejoin="round"/>
<path d="M979.943 703.913C979.943 708.949 975.861 713.031 970.825 713.031C965.789 713.031 961.706 708.949 961.706 703.913C961.706 698.876 965.789 694.794 970.825 694.794C975.861 694.794 979.943 698.876 979.943 703.913Z" fill="#FF383D"/>
<path opacity="0.15" d="M1160 214.366C1160 175.356 1128.38 143.732 1089.37 143.732C1050.36 143.732 1018.74 175.356 1018.74 214.366C1018.74 253.376 1050.36 285 1089.37 285C1128.38 285 1160 253.376 1160 214.366Z" fill="#FF383D"/>
<path d="M1077.47 225.911L1073.76 228.357C1071.73 228.357 1070.16 228.274 1069.05 228.108C1067.12 227.825 1065.64 227.259 1064.59 226.409C1063.27 225.345 1062.62 223.816 1062.62 221.824C1062.62 220.613 1062.8 219.524 1063.17 218.558C1063.47 217.767 1063.91 217.02 1064.48 216.316C1064.75 215.984 1065.23 215.481 1065.91 214.808C1064.97 214.339 1064.32 213.934 1063.96 213.592C1063.16 212.84 1062.76 211.888 1062.76 210.735C1062.76 209.7 1063.2 208.685 1064.07 207.688C1065.06 206.546 1066.27 205.975 1067.68 205.975C1068.32 205.975 1068.99 206.16 1069.71 206.531C1070.18 206.775 1070.78 207.181 1071.51 207.747C1070.55 207.747 1069.57 207.811 1068.56 207.938C1067.26 208.104 1066.21 208.343 1065.41 208.655C1064.44 209.036 1063.95 209.505 1063.95 210.062C1063.95 210.657 1064.51 211.224 1065.63 211.761C1066.58 212.21 1067.65 212.527 1068.86 212.713C1069.83 212.186 1070.78 211.736 1071.71 211.365C1072.75 210.955 1073.82 210.613 1074.93 210.34L1074.32 212.625C1072.29 213.416 1070.82 214.021 1069.92 214.441C1068.11 215.301 1066.72 216.18 1065.75 217.078C1064.51 218.23 1063.89 219.466 1063.89 220.784C1063.89 222.161 1064.41 223.245 1065.44 224.036C1066.34 224.72 1067.66 225.203 1069.41 225.486C1070.8 225.711 1072.57 225.823 1074.71 225.823C1075.17 225.823 1075.63 225.818 1076.09 225.809C1076.55 225.799 1077.01 225.789 1077.47 225.779V225.911ZM1083.27 213.973C1083.27 214.754 1083.13 215.511 1082.84 216.243C1082.7 216.634 1082.38 217.254 1081.89 218.104L1081.63 217.957C1081.66 217.674 1081.68 217.347 1081.7 216.976C1081.73 216.604 1081.75 216.355 1081.75 216.229C1081.75 215.213 1081.66 213.797 1081.5 211.98C1081.34 210.154 1081.15 208.25 1080.93 206.268C1080.79 205.066 1080.64 203.841 1080.47 202.591C1080.67 202.161 1080.89 201.697 1081.13 201.199C1081.38 200.701 1081.62 200.232 1081.85 199.793C1082 200.906 1082.2 202.43 1082.43 204.363C1082.68 206.297 1082.87 208.04 1083.01 209.593C1083.18 211.526 1083.27 212.986 1083.27 213.973ZM1094.65 217.708H1088.09C1087.53 217.708 1087.03 217.547 1086.58 217.225C1086.14 216.902 1085.92 216.521 1085.92 216.082C1085.92 215.711 1085.94 215.374 1085.98 215.071C1086.02 214.769 1086.09 214.437 1086.2 214.075H1086.54C1086.64 214.476 1086.84 214.764 1087.12 214.939C1087.36 215.086 1087.68 215.159 1088.09 215.159H1093.76C1093.76 213.411 1093.51 212.005 1093.03 210.94C1092.42 209.612 1091.41 208.729 1089.99 208.289L1090.21 205.447C1091.9 206.277 1093.1 207.601 1093.8 209.417C1094.37 210.882 1094.65 212.796 1094.65 215.159V217.708ZM1120.05 217.708H1102.44C1101.92 217.708 1101.41 217.62 1100.94 217.444C1100.57 217.308 1100.15 217.088 1099.66 216.785C1099.25 217.137 1098.84 217.381 1098.43 217.518C1098.02 217.645 1097.37 217.708 1096.47 217.708H1093.64V215.159H1096.47C1097.26 215.159 1097.83 215.091 1098.17 214.954C1098.73 214.729 1099.02 214.28 1099.02 213.606C1099.02 213.323 1099 213.04 1098.96 212.757C1098.93 212.464 1098.88 212.146 1098.81 211.805L1099.41 210.926C1099.75 212.254 1100.22 213.279 1100.82 214.002C1101.45 214.773 1102.2 215.159 1103.06 215.159C1103.88 215.159 1104.84 214.974 1105.95 214.603C1107.14 214.202 1108.16 213.694 1109.02 213.079C1110.42 212.083 1111.27 211.487 1111.58 211.292C1112.38 210.784 1113.09 210.423 1113.74 210.208C1114.46 209.964 1115.25 209.842 1116.11 209.842C1117.44 209.842 1118.44 210.228 1119.11 210.999C1119.74 211.712 1120.05 212.713 1120.05 214.002V217.708ZM1117.66 214.031C1117.66 213.553 1117.37 213.182 1116.77 212.918C1116.17 212.645 1115.48 212.508 1114.69 212.508C1113.71 212.508 1112.53 212.835 1111.15 213.489C1110.04 214.046 1108.94 214.603 1107.85 215.159H1114.6C1115.67 215.159 1116.44 215.066 1116.93 214.881C1117.42 214.695 1117.66 214.412 1117.66 214.031Z" fill="#FF383D"/>
<path d="M1089.87 127.65C1041.1 127.65 1001.56 167.187 1001.56 215.96C1001.56 264.732 1041.1 304.272 1089.87 304.272V347.883" stroke="#FFD6D7" stroke-width="2.4" stroke-miterlimit="10"/>
<path d="M1097.13 350.087C1097.13 346.075 1093.88 342.825 1089.87 342.825C1085.86 342.825 1082.61 346.075 1082.61 350.087C1082.61 354.099 1085.86 357.349 1089.87 357.349C1093.88 357.349 1097.13 354.099 1097.13 350.087Z" fill="#F2AEB0"/>
<path d="M975.839 222.859H849.559C843.442 222.859 837.555 225.195 833.102 229.39L804.567 256.271C800.114 260.466 794.228 262.802 788.11 262.802H674.12" stroke="#FFB2B1" stroke-width="5" stroke-linejoin="round"/>
<path d="M979.941 222.146C979.941 227.182 975.859 231.264 970.822 231.264C965.786 231.264 961.704 227.182 961.704 222.146C961.704 217.11 965.786 213.027 970.822 213.027C975.859 213.027 979.941 217.11 979.941 222.146Z" fill="#FF383D"/>
<defs>
<linearGradient id="paint0_linear" x1="279.615" y1="651.802" x2="343.866" y2="780.175" gradientUnits="userSpaceOnUse">
<stop stop-color="#FFC8C8"/>
<stop offset="1" stop-color="#FFF2F5"/>
</linearGradient>
<linearGradient id="paint1_linear" x1="911.18" y1="248.499" x2="389.511" y2="38.2372" gradientUnits="userSpaceOnUse">
<stop stop-color="white"/>
<stop offset="1" stop-color="#FFD5D5"/>
</linearGradient>
<linearGradient id="paint2_linear" x1="843.946" y1="153.536" x2="682.873" y2="126.967" gradientUnits="userSpaceOnUse">
<stop stop-color="#FFD3D3"/>
<stop offset="1" stop-color="#FFF6F6"/>
</linearGradient>
<linearGradient id="paint3_linear" x1="205.431" y1="428.025" x2="962.765" y2="428.025" gradientUnits="userSpaceOnUse">
<stop stop-color="#FFF8F5"/>
<stop offset="1" stop-color="#FFDEDE"/>
</linearGradient>
<linearGradient id="paint4_linear" x1="893.009" y1="609.534" x2="694.623" y2="627.818" gradientUnits="userSpaceOnUse">
<stop stop-color="#FFC2C2"/>
<stop offset="1" stop-color="white"/>
</linearGradient>
</defs>
</svg>
