<svg width="354" height="425" viewBox="0 0 354 425" fill="none" xmlns="http://www.w3.org/2000/svg">
<path d="M50.713 54.2133C54.5271 57.0929 55.2026 62.3506 52.6369 66.7755C57.9961 71.8118 64.4375 77.2283 72.0594 82.5885C76.3048 85.5629 80.4933 88.2289 84.5234 90.6022C85.1118 89.9397 85.7162 89.2786 86.3305 88.6254C89.3193 85.4476 92.5042 82.5222 95.8334 79.8308C95.2495 77.0579 94.2742 73.8528 92.6285 70.4567C89.7981 64.5576 86.0191 60.2387 82.7669 57.2597C77.6647 59.5307 71.7938 58.5245 68.9398 54.6239C65.7195 50.2276 67.5225 43.8287 72.9858 40.3437C78.4402 36.8498 85.4676 37.567 88.6879 41.9633C91.6152 45.9703 90.3775 51.6391 86.0024 55.2581C87.4951 59.2965 90.3336 64.6522 95.7696 69.2379C98.4445 71.5028 101.174 73.0826 103.544 74.1965C109.242 70.4434 115.287 67.3169 121.584 64.8461C121.111 60.8853 120.318 56.4529 118.971 51.7069C117.029 44.8262 114.443 38.9441 111.845 34.126C106.441 34.9278 101.304 32.515 99.7169 28.1155C97.8903 23.0673 101.47 17.3065 107.689 15.2498C113.907 13.1941 120.438 15.6377 122.259 20.6915C123.842 25.0765 121.356 30.0068 116.593 32.5629C117.678 37.9205 119.429 44.0636 122.315 50.6046C124.266 55.0587 126.441 58.999 128.581 62.3861C134.756 60.45 141.097 59.1118 147.503 58.387C150.292 53.0792 152.899 46.36 154.026 38.4293C155.063 31.0006 154.538 24.5502 153.616 19.5727C148.156 18.8121 144.027 14.9395 144.059 10.2018C144.084 4.82634 149.416 0.375227 155.984 0.271246C162.539 0.14392 167.834 4.39986 167.799 9.76838C167.766 14.5061 163.632 18.5331 158.139 19.486C157.171 24.3699 156.532 30.8771 157.536 38.3679C158.644 46.6333 161.359 53.2274 163.827 57.8331C171.239 58.1779 178.593 59.3228 185.741 61.2955C186.837 58.7469 187.697 55.9879 188.219 53.0167C188.621 50.6522 188.771 48.4087 188.751 46.3275C183.431 44.699 180.067 40.1043 181.063 35.3755C182.157 30.0808 188.272 26.6033 194.711 27.6139C201.152 28.6236 205.476 33.7267 204.376 39.028C203.401 43.6796 198.556 46.9315 193.028 46.963C192.144 49.1202 191.341 51.4493 190.666 53.938C189.874 56.7899 189.319 59.557 188.962 62.2419C189.672 62.4648 190.365 62.6871 191.055 62.9305C199.202 65.6668 207.004 69.5254 214.234 74.51C218.027 72.5613 221.961 70.1859 225.899 67.2707C233.928 61.3159 239.454 54.9608 243.155 49.8274C239.841 45.8995 239.644 40.5384 242.988 36.9834C246.841 32.8866 253.93 32.7454 258.824 36.6707C263.729 40.6039 264.581 47.1128 260.728 51.2096C257.328 54.8254 251.404 55.3508 246.692 52.7247C241.521 56.5626 234.946 62.4654 229.365 70.9447C226.921 74.6872 225.034 78.3715 223.56 81.894C229.75 87.4669 234.892 93.6758 239.003 100.334C240.987 99.7554 242.95 99.0513 245.053 98.0508C249.212 96.0638 252.449 93.673 254.902 91.4888C252.849 86.5344 254.601 81.0008 259.237 78.5805C264.339 75.9221 270.996 78.0479 274.108 83.334C277.21 88.6121 275.595 95.0505 270.482 97.7019C266.074 99.9911 260.523 98.7189 257.089 94.9365C253.792 96.2662 250.218 97.9819 246.557 100.251C244.605 101.442 242.813 102.701 241.133 103.99C244.61 110.308 247.174 116.969 248.848 123.822C252.848 124.106 257.159 124.17 261.753 123.878C272.327 123.203 281.139 120.88 287.653 118.584C287.611 113.501 291.002 108.991 295.976 108C301.672 106.868 307.285 110.768 308.514 116.709C309.733 122.644 306.111 128.376 300.426 129.515C295.383 130.505 290.431 127.581 288.492 122.782C282.054 122.95 272.89 124.007 262.811 128.01C258.196 129.836 254.168 131.98 250.67 134.187C250.804 135.427 250.929 136.696 251.012 137.954C251.398 144.276 251.062 150.665 249.968 156.992C252.018 157.856 254.215 158.674 256.565 159.403C264.208 161.771 271.14 162.535 276.544 162.691C278.682 157.909 283.756 154.968 288.728 155.915C294.368 156.983 297.754 162.679 296.283 168.632C294.824 174.591 289.056 178.547 283.397 177.463C278.437 176.522 275.225 172.006 275.517 166.882C270.499 165.061 263.818 163.238 255.772 162.589C253.369 162.395 251.069 162.333 248.852 162.348C246.493 172.141 242.299 181.691 236.244 190.546C239.36 193.522 242.876 196.571 246.889 199.589C252.619 203.9 258.234 207.318 263.391 210.042C267.334 206.034 273.439 204.928 277.722 207.679C282.436 210.708 283.153 217.231 279.331 222.254C275.499 227.269 268.583 228.886 263.88 225.864C259.685 223.168 258.673 217.714 261.183 212.998C256.593 209.468 251.171 205.79 244.842 202.283C240.453 199.848 236.2 197.822 232.122 196.09C230.611 197.992 228.992 199.842 227.285 201.657C223.23 205.969 218.84 209.843 214.165 213.264C215.704 218.6 218.352 225.376 223.157 232.496C227.367 238.736 232.016 243.439 236.027 246.865C240.928 244.42 246.739 245.103 249.828 248.773C253.339 252.951 251.977 259.435 246.767 263.241C241.556 267.048 234.475 266.738 230.964 262.559C227.917 258.937 228.537 253.612 232.126 249.777C229.125 245.092 225.288 239.876 220.368 234.539C214.719 228.409 208.998 223.592 203.883 219.845C196.61 223.908 188.858 226.985 180.885 229.1C181.362 231.599 182.033 234.224 183.013 236.962C184.875 242.195 187.336 246.494 189.754 249.937C195.027 248.388 200.555 250.109 202.809 254.278C205.368 259.028 202.69 265.177 196.812 267.996C193.12 269.763 189.036 269.808 185.877 268.408C184.009 267.591 182.461 266.267 181.506 264.498C181.231 263.979 181.005 263.426 180.856 262.865C179.655 258.682 181.99 253.876 186.641 251.236C184.994 247.306 182.819 242.979 179.868 238.481C177.96 235.585 175.983 233.002 174.017 230.684C169.38 231.594 164.678 232.167 159.987 232.414C159.545 232.442 159.093 232.462 158.664 232.474C156.967 237.489 155.404 243.983 155.098 251.593C154.803 259.045 155.777 265.424 157.009 270.366C162.482 270.8 166.837 274.378 167.162 279.067C167.54 284.42 162.532 289.191 155.977 289.724C149.448 290.265 143.827 286.356 143.459 281.011C143.129 276.363 146.865 272.151 152.142 270.783C152.565 265.427 152.577 259.014 151.595 251.888C150.526 244.226 148.579 237.627 146.515 232.26C137.764 231.568 129.095 229.738 120.81 226.76C118.939 229.211 117.08 231.981 115.381 235.097C111.674 241.878 109.757 248.159 108.738 253.097C113.527 255.586 115.89 260.562 114.102 265.027C112.064 270.089 105.436 272.581 99.2927 270.592C93.1595 268.61 89.834 262.887 91.8586 257.802C93.6272 253.394 98.8599 250.929 104.239 251.684C106.978 246.945 109.824 241.024 112.095 234.035C113.191 230.619 114.016 227.363 114.623 224.282C108.577 221.618 102.787 218.313 97.3477 214.321C92.8484 217.518 88.0735 221.304 83.2761 225.778C76.1351 232.43 70.6642 239.003 66.5251 244.732C69.8148 248.649 70.0015 254.002 66.666 257.549C62.813 261.646 55.725 261.786 50.8103 257.845C45.9153 253.919 45.0725 247.419 48.9255 243.323C52.2478 239.79 57.9892 239.201 62.6426 241.63C68.2653 236.888 74.4836 230.94 80.6556 223.677C84.8157 218.774 88.3285 213.987 91.3032 209.497C86.0106 204.906 81.4483 199.852 77.6242 194.456C76.5238 194.815 75.4068 195.209 74.2804 195.632C66.8305 198.408 60.9494 201.894 56.629 204.994C58.3348 209.765 56.5888 214.978 52.151 217.317C47.0786 220.018 40.4 217.934 37.242 212.678C34.0992 207.425 35.6565 200.973 40.7388 198.281C45.2437 195.889 51.0102 197.264 54.4577 201.271C59.2331 199.717 65.7875 196.842 72.1295 191.519C72.9202 190.863 73.667 190.198 74.3728 189.521C70.4671 183.143 67.5214 176.352 65.5325 169.336C60.0933 169.236 54.0442 169.471 47.5026 170.266C37.4403 171.484 28.8319 173.739 21.9895 176.034C21.998 181.079 18.6159 185.542 13.6755 186.534C7.97233 187.655 2.37137 183.761 1.14206 177.82C-0.0791251 171.888 3.53964 166.159 9.22923 165.016C14.1512 164.043 19.0153 166.821 21.0275 171.432C28.4379 170.82 37.2071 169.556 46.8365 167.082C53.0598 165.482 58.7145 163.619 63.7641 161.663C63.2106 158.581 62.8358 155.475 62.6299 152.337C62.314 147.213 62.4698 142.049 63.1301 136.921C57.6607 134.565 51.0138 132.208 43.2611 130.454C35.7905 128.751 28.9514 127.981 23.1253 127.702C21.0223 132.391 16.0772 135.325 11.1629 134.463C5.49096 133.485 2.0008 127.845 3.35076 121.872C4.70689 115.893 10.4099 111.858 16.0818 112.836C21.0344 113.694 24.3424 118.126 24.1697 123.216C29.3592 124.928 36.0562 126.587 43.9844 127.25C52.2157 127.942 59.4415 127.397 65.1419 126.5C66.3955 121.681 68.0969 116.921 70.2494 112.272C68.0888 110.659 65.6974 109.051 63.0961 107.538C56.3789 103.632 49.9535 101.26 44.6715 99.794C41.349 103.935 35.6942 105.632 31.1868 103.582C26.0337 101.24 24.287 94.9085 27.2843 89.4345C30.2924 83.9675 36.8942 81.43 42.0571 83.7792C46.5815 85.8299 48.4815 90.9844 46.8329 95.9281C51.1516 98.843 57.1112 102.153 64.7026 104.613C67.5814 105.536 70.3847 106.244 73.0487 106.768C75.3162 102.679 77.9423 98.7063 80.9568 94.8925C77.5701 91.6875 73.86 88.4021 69.783 85.1196C62.6024 79.327 55.5958 74.5669 49.1719 70.6811C44.9655 73.8625 39.2542 74.2727 35.4429 71.4085C31.0034 68.0503 30.818 61.4785 35.0476 56.7415C39.2673 51.9966 46.2824 50.864 50.713 54.2133Z" fill="#FFE1E1"/>
<path d="M231.636 319.818C233.524 321.001 234.066 323.405 233.075 325.549C235.771 327.668 238.982 329.922 242.737 332.103C244.827 333.313 246.878 334.383 248.843 335.323C249.086 334.994 249.336 334.665 249.591 334.34C250.832 332.755 252.174 331.28 253.594 329.907C253.202 328.648 252.612 327.205 251.703 325.699C250.137 323.083 248.203 321.234 246.571 319.983C244.314 321.231 241.559 320.993 240.071 319.301C238.391 317.395 238.943 314.368 241.313 312.545C243.679 310.719 246.955 310.778 248.635 312.685C250.162 314.423 249.839 317.091 247.977 318.933C248.843 320.741 250.389 323.106 253.1 325.014C254.434 325.957 255.764 326.582 256.907 327.005C259.374 325.049 262.028 323.37 264.827 321.984C264.435 320.172 263.875 318.155 263.045 316.014C261.847 312.909 260.395 310.291 258.984 308.166C256.524 308.746 254.046 307.83 253.12 305.858C252.056 303.596 253.456 300.795 256.238 299.604C259.019 298.413 262.142 299.289 263.204 301.554C264.127 303.519 263.195 305.893 261.108 307.259C261.844 309.693 262.921 312.464 264.541 315.375C265.637 317.357 266.814 319.094 267.95 320.576C270.717 319.442 273.586 318.578 276.513 317.994C277.568 315.434 278.477 312.227 278.65 308.519C278.803 305.046 278.278 302.085 277.634 299.821C275.08 299.681 273.003 298.052 272.811 295.861C272.587 293.376 274.853 291.112 277.882 290.81C280.903 290.497 283.535 292.258 283.753 294.74C283.946 296.931 282.214 298.952 279.719 299.606C279.486 301.9 279.476 304.932 280.268 308.354C281.142 312.131 282.684 315.073 284.026 317.106C287.464 316.978 290.91 317.222 294.296 317.856C294.691 316.636 294.967 315.327 295.078 313.934C295.16 312.826 295.131 311.783 295.03 310.822C292.502 310.276 290.748 308.283 291 306.059C291.274 303.57 293.945 301.726 296.963 301.944C299.981 302.161 302.201 304.351 301.926 306.843C301.679 309.031 299.585 310.721 297.033 310.95C296.719 311.981 296.451 313.089 296.248 314.265C296.008 315.614 295.872 316.914 295.825 318.168C296.163 318.244 296.492 318.32 296.822 318.406C300.704 319.354 304.476 320.835 308.032 322.858C309.698 321.81 311.411 320.56 313.102 319.06C316.548 315.997 318.821 312.846 320.305 310.331C318.603 308.644 318.277 306.174 319.665 304.402C321.265 302.359 324.532 302.019 326.964 303.643C329.401 305.271 330.08 308.245 328.48 310.288C327.068 312.091 324.356 312.563 322.065 311.532C319.846 313.506 317.069 316.489 314.863 320.624C313.898 322.448 313.189 324.224 312.663 325.909C315.765 328.244 318.411 330.914 320.601 333.831C321.492 333.487 322.368 333.085 323.295 332.541C325.128 331.462 326.518 330.232 327.555 329.127C326.39 326.917 326.957 324.292 328.991 322.994C331.231 321.568 334.397 322.292 336.066 324.614C337.73 326.933 337.267 329.971 335.022 331.394C333.087 332.623 330.467 332.25 328.716 330.636C327.252 331.378 325.677 332.309 324.086 333.5C323.237 334.126 322.465 334.777 321.745 335.438C323.627 338.223 325.104 341.202 326.177 344.303C328.036 344.28 330.03 344.142 332.138 343.829C336.991 343.107 340.958 341.692 343.865 340.378C343.623 338.031 344.992 335.816 347.245 335.165C349.826 334.421 352.588 336.005 353.416 338.703C354.239 341.399 352.818 344.188 350.243 344.934C347.957 345.588 345.543 344.429 344.437 342.286C341.472 342.613 337.286 343.457 332.808 345.697C330.757 346.72 328.991 347.867 327.472 349.023C327.589 349.591 327.702 350.172 327.795 350.75C328.251 353.657 328.375 356.622 328.148 359.588C329.132 359.908 330.182 360.201 331.299 360.447C334.932 361.245 338.167 361.329 340.669 361.192C341.447 358.899 343.66 357.343 345.998 357.588C348.649 357.863 350.462 360.363 350.044 363.172C349.631 365.982 347.141 368.034 344.481 367.752C342.149 367.51 340.468 365.547 340.378 363.168C337.981 362.521 334.816 361.938 331.073 361.95C329.955 361.953 328.89 362.014 327.867 362.107C327.207 366.723 325.689 371.299 323.281 375.626C324.85 376.88 326.607 378.153 328.593 379.392C331.427 381.162 334.17 382.524 336.671 383.583C338.316 381.578 341.086 380.83 343.184 381.935C345.494 383.152 346.111 386.139 344.566 388.608C343.016 391.074 339.894 392.09 337.59 390.875C335.534 389.792 334.828 387.311 335.78 385.035C333.506 383.581 330.841 382.092 327.765 380.716C325.632 379.762 323.58 378.99 321.621 378.348C321.006 379.285 320.34 380.203 319.631 381.108C317.948 383.258 316.09 385.218 314.082 386.98C315.026 389.387 316.546 392.415 319.076 395.519C321.294 398.239 323.646 400.232 325.649 401.66C327.805 400.34 330.518 400.43 332.105 402.007C333.91 403.801 333.565 406.85 331.326 408.811C329.086 410.772 325.803 410.904 323.998 409.109C322.433 407.553 322.486 405.068 323.975 403.157C322.384 401.108 320.384 398.847 317.878 396.571C315.001 393.958 312.148 391.953 309.622 390.42C306.442 392.579 302.997 394.302 299.408 395.588C299.738 396.725 300.163 397.912 300.735 399.139C301.824 401.485 303.149 403.377 304.417 404.873C306.783 403.954 309.411 404.535 310.635 406.374C312.025 408.469 311.058 411.415 308.467 412.945C306.84 413.905 304.956 414.084 303.436 413.56C302.538 413.254 301.765 412.703 301.246 411.922C301.096 411.693 300.968 411.446 300.874 411.193C300.137 409.306 301.004 406.995 303.036 405.595C302.103 403.843 300.909 401.927 299.349 399.963C298.341 398.699 297.316 397.582 296.306 396.587C294.205 397.187 292.059 397.634 289.904 397.93C289.701 397.96 289.493 397.987 289.295 398.009C288.731 400.392 288.294 403.454 288.487 406.983C288.677 410.438 289.406 413.348 290.192 415.584C292.738 415.572 294.905 417.057 295.261 419.211C295.67 421.67 293.567 424.069 290.563 424.569C287.573 425.072 284.805 423.484 284.402 421.028C284.045 418.893 285.586 416.802 287.962 415.965C287.923 413.474 287.647 410.51 286.882 407.255C286.052 403.756 284.864 400.782 283.676 398.381C279.605 398.401 275.522 397.891 271.566 396.836C270.809 398.041 270.072 399.394 269.424 400.899C268.01 404.177 267.4 407.154 267.146 409.475C269.466 410.44 270.775 412.647 270.145 414.78C269.426 417.198 266.475 418.607 263.551 417.926C260.632 417.248 258.845 414.732 259.557 412.303C260.181 410.198 262.489 408.856 265.006 408.996C266.063 406.7 267.118 403.854 267.86 400.536C268.217 398.915 268.455 397.379 268.6 395.931C265.692 394.935 262.873 393.632 260.187 391.998C258.249 393.65 256.21 395.584 254.191 397.838C251.185 401.189 248.947 404.438 247.287 407.246C248.978 408.929 249.298 411.395 247.914 413.163C246.314 415.206 243.047 415.545 240.605 413.915C238.173 412.291 237.499 409.32 239.098 407.277C240.478 405.516 243.103 405.021 245.358 405.963C247.747 403.554 250.357 400.564 252.889 396.968C254.595 394.541 256.007 392.193 257.184 390.003C254.539 388.087 252.211 385.928 250.209 383.583C249.716 383.791 249.218 384.017 248.716 384.256C245.398 385.827 242.835 387.666 240.976 389.266C241.973 391.405 241.395 393.882 239.448 395.135C237.224 396.579 234.049 395.875 232.361 393.569C230.679 391.263 231.115 388.221 233.344 386.78C235.32 385.5 238.043 385.912 239.81 387.63C241.947 386.727 244.848 385.144 247.543 382.439C247.879 382.105 248.195 381.768 248.491 381.428C246.408 378.632 244.75 375.608 243.524 372.443C241.008 372.608 238.226 372.951 235.24 373.572C230.647 374.525 226.771 375.901 223.712 377.227C223.937 379.558 222.571 381.751 220.333 382.401C217.749 383.14 214.992 381.558 214.164 378.86C213.34 376.166 214.76 373.379 217.337 372.63C219.567 371.989 221.935 373.084 223.066 375.137C226.461 374.567 230.455 373.643 234.793 372.126C237.596 371.146 240.126 370.066 242.372 368.966C241.981 367.563 241.672 366.142 241.439 364.7C241.069 362.345 240.914 359.952 240.995 357.557C238.366 356.68 235.193 355.849 231.537 355.339C228.012 354.842 224.821 354.751 222.118 354.848C221.352 357.096 219.198 358.644 216.891 358.436C214.229 358.204 212.37 355.733 212.732 352.921C213.096 350.105 215.552 348.019 218.214 348.251C220.539 348.456 222.26 350.376 222.404 352.734C224.875 353.324 228.04 353.831 231.73 353.83C235.561 353.831 238.874 353.299 241.467 352.663C241.834 350.388 242.412 348.122 243.202 345.89C242.133 345.229 240.959 344.579 239.691 343.98C236.418 342.436 233.347 341.589 230.844 341.116C229.491 343.158 226.955 344.162 224.783 343.389C222.301 342.507 221.217 339.649 222.362 337.003C223.511 334.36 226.448 332.931 228.935 333.817C231.114 334.589 232.217 336.897 231.673 339.246C233.795 340.425 236.692 341.724 240.305 342.566C241.675 342.881 243 343.1 244.253 343.239C245.121 341.261 246.159 339.323 247.384 337.444C245.68 336.094 243.823 334.72 241.796 333.361C238.227 330.963 234.783 329.035 231.646 327.488C229.843 329.121 227.224 329.532 225.339 328.356C223.142 326.977 222.768 323.947 224.514 321.594C226.254 319.238 229.444 318.442 231.636 319.818" fill="#FFE1E1"/>
</svg>
