<svg width="1064" height="812" viewBox="0 0 1064 812" fill="none" xmlns="http://www.w3.org/2000/svg">
<g opacity="0.67">
<path d="M742.943 365.954L761.078 371.999L743.28 360.812C743.425 359.104 743.605 357.384 743.822 355.65L753.398 357.492L744.335 351.881C746.408 338.514 751.023 321.736 757.355 304.611L792.653 318.235L758.922 300.45C767.779 277.441 779.613 254.264 792.456 238.28L811.428 251.671L796.301 233.742C807.988 220.743 820.33 214.127 831.91 219.242C845.979 225.459 850.011 255.602 845.679 291.95L836.177 291.781L845.468 293.639C843.469 309.547 839.889 326.572 834.866 343.267L798.627 331.036L833.226 348.549C825.573 372.409 814.969 395.244 801.822 412.742L787.534 398.454L799.142 416.19C788.072 429.947 775.314 439.921 761.078 443.684C761.078 443.684 740.934 409.831 742.943 365.954" fill="#00331E"/>
<path d="M759.003 443.684C759.003 443.684 738.859 409.831 740.868 365.954L759.003 371.999L741.205 360.812C741.351 359.104 741.53 357.384 741.747 355.65L751.323 357.492L742.26 351.881C744.333 338.514 748.948 321.736 755.28 304.613L790.578 318.235L756.847 300.451C765.704 277.441 777.538 254.264 790.381 238.28L809.353 251.672L794.226 233.742C805.913 220.743 818.255 214.127 829.835 219.242C829.835 219.242 777.16 344.815 760.027 443.384C759.685 443.481 759.346 443.592 759.003 443.684Z" fill="#046F42"/>
<path d="M770.33 471.274L783.75 474.406L771.494 467.766C772.755 464.164 774.26 460.409 776.069 456.484C779.797 448.411 785.129 439.174 791.306 430.242L803.379 439.416L794.874 425.243C813.599 399.862 838.213 379.341 850.314 399.307C855.288 407.513 855.616 420.576 852.181 435.26L824.714 434.297L851.195 439.151C848.452 449.172 844.051 459.79 838.248 470.042L828.979 465.872L836.966 472.261C830.852 482.642 823.304 492.561 814.6 500.998L795.699 480.38L811.986 503.455C800.538 513.883 787.238 521.709 772.656 524.756C772.656 524.756 759.383 506.14 770.33 471.274" fill="#00331E"/>
<path d="M773.738 524.505C773.376 524.588 773.017 524.679 772.653 524.755C772.653 524.755 759.38 506.139 770.327 471.275L783.748 474.406L771.491 467.766C772.752 464.165 774.257 460.409 776.068 456.484C779.794 448.411 785.126 439.174 791.303 430.24L803.376 439.416L794.872 425.243C812.522 401.317 835.401 381.727 848.105 396.28C837.93 410.001 795.057 469.438 773.738 524.505Z" fill="#046F42"/>
<path d="M811.653 509.602C819.144 502.525 832.512 493.838 848.031 485.852C854.762 495.796 862.275 507.026 863.568 509.486C863.753 509.925 863.822 510.076 863.738 509.85C863.709 509.766 863.65 509.642 863.568 509.486C862.48 506.907 857.212 493.922 852.945 483.385C862.255 478.816 872.166 474.572 881.943 471.111L887.265 496.36L884.813 470.115C915.303 459.773 943.732 457.54 947.353 477.566C948.354 483.102 946.413 489.251 942.253 495.688C930.567 495.005 913.662 493.907 913.662 493.907L938.308 501.069C929.269 512.207 914.42 523.913 897.202 534.61L882.411 505.903L894.502 536.262C876.367 547.264 855.894 557.078 836.963 563.941C835.357 556.861 834.183 551.731 834.183 551.731L833.944 565.013C830.3 566.285 826.724 567.439 823.241 568.468L821.675 562.345L820.648 569.213C803.307 574.076 788.562 575.592 780.114 572.065C780.114 572.065 773.396 545.741 811.653 509.602" fill="#00331E"/>
<path d="M706.641 320.595C688.372 275.59 663.381 266.195 653.169 267.123C636.236 264.895 635.346 294.416 637.017 309.455H662.639L637.017 314.468C637.463 338.531 643.887 364.227 647.043 374.067L678.792 367.94L647.043 378.523C655.064 408.824 667.095 436.822 672.108 447.034L704.414 431.995L673.779 450.376L677.678 457.06L686.59 455.389L678.792 459.288C692.606 487.361 718.339 498.835 729.479 501.063C738.837 489.923 741.548 468.571 741.733 459.288L725.023 455.389H741.733C743.516 439.348 738.02 411.572 735.049 399.689L722.238 405.259L734.492 396.904L732.821 391.334L705.528 399.689L730.593 384.093C727.92 368.497 714.997 337.862 708.87 324.494L691.603 326.722L706.641 320.595Z" fill="#00331E"/>
<path d="M678.522 460.232C692.624 488.021 718.27 499.807 729.33 502.227C712.74 387.753 668.845 297.958 648.971 267.37C635.284 269.858 634.973 297.094 636.528 310.401L661.932 309.364L636.528 314.03C638.187 341.404 643.441 365.875 645.86 374.688L680.078 367.43L647.416 378.318C655.296 412.328 667.289 438.458 672.301 447.271L703.926 431.718L673.338 450.382L677.486 457.64L686.299 455.566L678.522 460.232Z" fill="#046F42"/>
<path fill-rule="evenodd" clip-rule="evenodd" d="M746.595 662.182L746.392 662.196C746.415 662.547 746.707 662.819 747.059 662.818C747.411 662.817 747.701 662.542 747.722 662.191C750.288 619.144 767.251 586.194 789.291 561.145C811.022 537.53 836.665 520.147 861.972 507.374C861.944 507.328 861.915 507.281 861.885 507.233C878.657 498.893 893.066 493.651 901.397 490.619L901.398 490.619C903.302 489.926 904.889 489.349 906.113 488.876C921.247 483.856 935.158 480.367 946.669 477.964C946.656 477.859 946.646 477.754 946.636 477.649C946.62 477.48 946.604 477.31 946.574 477.143C942.986 457.831 914.689 460.012 884.335 470.014L886.695 494.739C886.674 494.748 886.652 494.756 886.63 494.765L881.478 470.975C871.744 474.324 861.875 478.426 852.603 482.838C856.049 491.096 860.146 500.901 862.139 505.621C861.816 505.78 861.493 505.941 861.168 506.102C858.335 501.696 852.443 493.091 847.047 485.282C831.4 493.168 817.922 501.745 810.368 508.729C771.792 544.398 778.546 570.356 778.546 570.356C778.919 570.508 779.31 570.648 779.711 570.779C763.372 592.429 750.994 619.249 747.236 652.325C747.001 646.493 746.743 638.212 746.622 627.912C746.37 606.412 746.714 576.119 749.097 540.953C753.866 470.609 766.795 380.811 799.416 302.882C799.558 302.542 799.398 302.152 799.058 302.01C798.719 301.868 798.328 302.028 798.186 302.367C765.483 380.491 752.54 470.456 747.767 540.863C745.381 576.071 745.036 606.4 745.289 627.928C745.415 638.692 745.691 647.257 745.935 653.131C746.057 656.068 746.171 658.333 746.255 659.864C746.297 660.63 746.331 661.212 746.355 661.603C746.366 661.799 746.376 661.947 746.382 662.046L746.389 662.158L746.391 662.186L746.392 662.193C746.392 662.194 746.392 662.195 746.595 662.182Z" fill="#128E5A"/>
<path d="M820.45 435.15C820.45 435.15 747.059 537.556 747.059 662.151C735.963 444.537 679.561 325.954 679.561 325.954" stroke="#014D2D" stroke-miterlimit="10" stroke-linecap="round" stroke-linejoin="round"/>
<path d="M723.088 627.692H781.954C781.954 627.692 797.804 753.176 746.861 767.741C695.92 782.306 723.088 627.692 723.088 627.692Z" fill="#BE0500"/>
<path d="M712.739 627.691H767.931C767.931 627.691 780.418 753.176 740.281 767.741C676.448 774.931 712.739 627.691 712.739 627.691Z" fill="#FA0700"/>
</g>
<g opacity="0.76">
<path d="M700.216 40.1782H719.255V115.099H700.216V40.1782Z" fill="#FF1F55"/>
<path d="M677.651 40.1782H696.69V115.099H677.651V40.1782Z" fill="#FFC702"/>
<path d="M663.58 41.5191L679.706 51.6428L639.827 115.101L623.701 104.977L663.58 41.5191Z" fill="#3D99EE"/>
<path d="M515.024 131.616H720.476C724.858 131.616 729.061 129.876 732.16 126.778C735.259 123.681 737 119.48 737 115.1H498.502C498.502 119.48 500.242 123.68 503.341 126.777C506.439 129.875 510.642 131.615 515.024 131.616V131.616Z" fill="#6F2A1A"/>
<path d="M511.114 42.9526H602.073V115.099H511.114V42.9526Z" fill="#BDD8F5"/>
<path d="M517.195 50.0393H595.987V107.998H517.195V50.0393Z" fill="#FB4C47"/>
<path d="M556.592 97.6162C546.32 97.6162 537.993 89.2931 537.993 79.026C537.993 68.7589 546.32 60.4358 556.592 60.4358C566.865 60.4358 575.192 68.7589 575.192 79.026C575.192 89.2931 566.865 97.6162 556.592 97.6162Z" fill="#FFC700"/>
<path d="M534.142 107.998H595.987V80.246C585.311 79.842 569.542 81.1398 554.643 89.7003C546.613 94.3121 539.632 100.543 534.142 107.998V107.998Z" fill="#1DB776"/>
<path d="M517.196 69.8806V107.999H566.781C563.604 101.367 559.52 95.2083 554.645 89.701C546.18 80.1869 534.105 71.9908 517.196 69.8806Z" fill="#11915B"/>
<path d="M688.763 145.954H703.589L701.541 115.099H690.811L688.763 145.954Z" fill="#592A3C"/>
<path d="M531.903 145.954H546.729L544.681 115.099H533.951L531.903 145.954Z" fill="#592A3C"/>
<path d="M220.084 98.9114H431.517V0H220.084V98.9114ZM422.45 89.8523H229.149V9.06164H422.453L422.45 89.8523Z" fill="#925C50"/>
<path d="M229.148 9.06177H422.452V89.8524H229.148V9.06177Z" fill="white"/>
<path d="M379.468 68.818C363.179 65.0036 353.068 48.7132 356.884 32.4325C360.701 16.1518 376.999 6.04582 393.288 9.86023C409.577 13.6746 419.688 29.965 415.872 46.2457C412.056 62.5265 395.757 72.6324 379.468 68.818Z" fill="#FFC700"/>
<path d="M422.452 64.3458L364.988 38.6967C360.41 36.6529 355.361 35.8974 350.384 36.5118C345.408 37.1262 340.694 39.0871 336.752 42.1829L276.023 89.8516H422.45L422.452 64.3458Z" fill="#11915B"/>
<path d="M322.121 53.6687L278.837 39.3656C274.208 37.8361 269.257 37.5621 264.487 38.5715C259.718 39.581 255.303 41.8378 251.692 45.1113L229.15 65.5483V89.8573H276.025L322.121 53.6687Z" fill="#1DB776"/>
</g>
<path opacity="0.89" d="M535.028 238.419C536.999 238.361 538.701 239.881 539.184 241.969C542.242 242.208 545.731 242.288 549.561 242.046C551.701 241.908 553.726 241.684 555.626 241.408C555.616 241.042 555.609 240.673 555.609 240.304C555.609 238.507 555.735 236.742 555.979 235.015C555.014 234.273 553.805 233.492 552.344 232.823C549.805 231.654 547.427 231.238 545.599 231.119C544.698 233.169 542.639 234.361 540.658 233.842C538.433 233.258 537.162 230.731 537.818 228.196C538.474 225.662 540.808 224.077 543.033 224.662C545.062 225.196 546.299 227.342 546.007 229.638C547.61 230.554 549.992 231.546 552.942 231.619C554.403 231.658 555.677 231.461 556.71 231.207C557.366 228.527 558.31 225.957 559.51 223.535C558.239 222.381 556.737 221.158 554.977 219.977C552.428 218.262 549.972 217.035 547.814 216.154C546.408 217.807 544.162 218.358 542.432 217.35C540.444 216.196 539.88 213.415 541.178 211.146C542.48 208.877 545.154 207.977 547.141 209.134C548.874 210.138 549.52 212.37 548.806 214.423C550.658 215.869 552.938 217.396 555.673 218.758C557.535 219.689 559.316 220.396 560.926 220.934C562.241 218.715 563.787 216.646 565.517 214.758C564.851 212.327 563.726 209.488 561.81 206.642C560.012 203.981 558.011 202.039 556.312 200.673C554.443 201.838 552.092 201.657 550.753 200.123C549.231 198.385 549.581 195.573 551.535 193.842C553.485 192.108 556.302 192.112 557.817 193.85C559.163 195.385 559.051 197.75 557.661 199.477C558.759 201.3 560.417 203.561 562.856 205.715C565.544 208.093 568.249 209.516 570.304 210.362C572.642 208.558 575.194 207.027 577.922 205.815C577.525 204.712 577.002 203.6 576.315 202.508C575.765 201.642 575.174 200.88 574.572 200.216C572.493 201.066 570.172 200.453 569.125 198.673C567.946 196.685 568.806 193.985 571.045 192.646C573.281 191.307 576.047 191.834 577.222 193.827C578.252 195.577 577.708 197.877 576.047 199.315C576.393 200.238 576.815 201.196 577.314 202.173C577.885 203.296 578.51 204.331 579.166 205.289C579.441 205.177 579.72 205.069 579.995 204.97C583.247 203.746 586.706 202.973 590.311 202.711C590.902 201.104 591.419 199.322 591.779 197.365C592.516 193.372 592.38 189.897 592.04 187.287C589.92 186.878 588.33 185.201 588.33 183.192C588.33 180.877 590.44 179 593.043 179C595.642 179 597.752 180.877 597.752 183.192C597.752 185.236 596.104 186.936 593.933 187.307C593.461 189.879 593.152 193.48 593.882 197.654C594.205 199.491 594.681 201.165 595.238 202.681C598.693 202.877 602.02 203.549 605.163 204.632C605.601 203.933 605.992 203.199 606.342 202.334C607.038 200.62 607.341 199.012 607.46 197.675C605.428 196.609 604.378 194.374 605.098 192.396C605.883 190.221 608.506 189.187 610.949 190.086C613.392 190.984 614.735 193.476 613.946 195.651C613.267 197.528 611.221 198.552 609.101 198.221C608.483 199.501 607.891 200.977 607.422 202.654C607.178 203.542 606.991 204.41 606.848 205.259C609.699 206.397 612.376 207.88 614.833 209.655C616.128 208.714 617.449 207.621 618.754 206.34C621.761 203.391 623.769 200.366 625.088 197.943C623.627 196.316 623.372 193.987 624.595 192.382C625.998 190.547 628.805 190.353 630.867 191.949C632.93 193.546 633.467 196.329 632.064 198.164C630.827 199.787 628.489 200.124 626.542 199.079C624.636 200.796 622.166 203.504 620.249 207.398C619.376 209.178 618.764 210.91 618.34 212.525C618.734 212.89 619.128 213.266 619.509 213.65C621.432 215.587 623.144 217.732 624.615 220.054C625.482 219.802 626.379 219.498 627.296 219.126C630.29 217.914 632.607 216.369 634.286 215.024C633.572 212.93 634.265 210.671 636.042 209.692C638.057 208.58 640.704 209.54 641.955 211.837C643.205 214.135 642.587 216.899 640.568 218.012C638.795 218.991 636.538 218.365 635.166 216.639C633.127 217.349 630.592 218.487 627.969 220.357C627.188 220.915 626.467 221.49 625.801 222.068C627.877 225.832 629.325 229.992 630.015 234.409C631.809 234.564 633.742 234.637 635.815 234.573C638.774 234.481 641.448 234.132 643.783 233.677C643.837 231.367 645.373 229.433 647.456 229.213C649.739 228.971 651.815 230.888 652.084 233.493C652.359 236.099 650.721 238.407 648.438 238.648C646.402 238.863 644.54 237.368 643.963 235.2C641.564 235.249 638.873 235.465 635.957 235.97C633.942 236.319 632.07 236.765 630.348 237.26C630.429 238.264 630.47 239.278 630.47 240.304C630.47 242.74 630.242 245.123 629.801 247.433C631.781 248.754 634.52 250.253 638 251.305C641.051 252.228 643.8 252.543 645.988 252.61C646.773 250.556 648.726 249.275 650.707 249.66C652.964 250.099 654.397 252.539 653.901 255.112C653.409 257.685 651.18 259.414 648.92 258.974C646.97 258.595 645.641 256.719 645.634 254.556C643.392 253.822 640.748 253.133 637.738 252.684C634.275 252.169 631.173 252.096 628.564 252.21C627.514 255.397 626.046 258.392 624.235 261.133C625.088 261.815 626.046 262.488 627.113 263.117C629.169 264.321 631.139 265.07 632.848 265.555C634.01 263.694 636.171 262.82 638.037 263.581C640.167 264.45 641.109 267.123 640.127 269.55C639.515 271.073 638.292 272.142 636.939 272.508C636.141 272.727 635.295 272.7 634.503 272.377C634.265 272.281 634.044 272.161 633.841 272.019C632.281 270.981 631.622 268.83 632.281 266.777C630.664 265.937 628.774 265.105 626.593 264.419C625.196 263.978 623.861 263.657 622.604 263.418C621.459 264.909 620.202 266.308 618.849 267.6C618.72 267.723 618.594 267.846 618.465 267.961C619.379 270.015 620.756 272.511 622.832 275.042C624.863 277.519 626.977 279.323 628.754 280.596C630.538 279.323 632.872 279.35 634.309 280.777C635.944 282.404 635.788 285.235 633.956 287.1C632.131 288.961 629.318 289.154 627.684 287.527C626.267 286.115 626.195 283.792 627.405 281.988C626.005 280.154 624.181 278.084 621.85 276.042C619.349 273.85 616.879 272.227 614.728 271.031C611.88 273.069 608.734 274.719 605.374 275.9C605.509 277.173 605.737 278.546 606.107 279.988C606.913 283.131 608.126 285.65 609.227 287.504C611.381 287.069 613.511 288.061 614.242 289.961C615.071 292.119 613.776 294.634 611.35 295.58C608.924 296.528 606.284 295.542 605.455 293.381C604.731 291.504 605.618 289.358 607.456 288.212C606.937 285.977 606.118 283.335 604.813 280.496C604.174 279.112 603.495 277.85 602.798 276.7C600.212 277.404 597.514 277.835 594.735 277.954C594.28 280.146 593.913 282.6 593.736 285.281C593.471 289.269 593.685 292.8 594.062 295.716C596.176 296.128 597.752 297.805 597.752 299.808C597.752 302.122 595.642 304 593.039 304C590.437 304 588.33 302.122 588.33 299.808C588.33 297.812 589.9 296.139 592 295.719C592.353 292.738 592.547 289.215 592.346 285.281C592.207 282.627 591.908 280.177 591.527 277.962C588.622 277.85 585.802 277.4 583.108 276.65C582.876 277.05 582.645 277.465 582.428 277.892C580.967 280.712 580.179 283.354 579.75 285.469C581.626 286.565 582.577 288.696 581.908 290.596C581.133 292.777 578.524 293.831 576.067 292.954C573.617 292.073 572.258 289.592 573.03 287.411C573.712 285.477 575.85 284.431 578.035 284.831C579.037 283.096 580.202 280.477 580.607 277.123C580.658 276.708 580.695 276.3 580.719 275.9C577.715 274.854 574.892 273.427 572.296 271.681C570.617 273.054 568.85 274.692 567.094 276.638C564.396 279.631 562.435 282.581 561.018 285.088C562.455 286.712 562.707 289.023 561.487 290.619C560.084 292.453 557.281 292.646 555.215 291.05C553.152 289.453 552.612 286.673 554.015 284.834C555.228 283.25 557.491 282.888 559.414 283.854C561.484 281.742 563.777 279.069 565.989 275.784C567.42 273.661 568.599 271.6 569.574 269.665C568.527 268.815 567.525 267.911 566.577 266.954C565.017 265.384 563.594 263.681 562.337 261.858C560.012 262.511 557.325 263.469 554.477 264.908C551.732 266.288 549.445 267.807 547.6 269.223C548.3 271.277 547.634 273.5 545.905 274.492C543.907 275.642 541.246 274.727 539.952 272.454C538.66 270.177 539.235 267.404 541.233 266.254C542.979 265.25 545.235 265.823 546.639 267.508C548.698 266.719 551.195 265.523 553.784 263.688C556.475 261.785 558.504 259.742 559.978 257.98C558.983 256.104 558.144 254.131 557.474 252.077C556.356 252.116 555.181 252.215 553.954 252.4C550.811 252.877 548.191 253.773 546.176 254.666C546.35 256.858 545.12 258.865 543.166 259.369C540.944 259.946 538.609 258.358 537.961 255.819C537.315 253.281 538.596 250.758 540.818 250.181C542.782 249.673 544.824 250.843 545.725 252.861C547.869 252.685 550.607 252.212 553.604 251.042C554.746 250.596 555.796 250.1 556.754 249.581C556.275 247.677 555.938 245.719 555.765 243.712C553.828 243.554 551.766 243.454 549.601 243.45C545.772 243.438 542.3 243.715 539.248 244.123C538.881 246.235 537.267 247.842 535.297 247.904C533 247.969 531.073 245.9 531.002 243.281C530.927 240.661 532.728 238.485 535.028 238.419" fill="#FB837F"/>
<path opacity="0.93" d="M881.19 134.743C884.219 134.654 886.834 136.999 887.576 140.224C892.275 140.592 897.637 140.717 903.521 140.343C906.81 140.129 909.922 139.784 912.841 139.357C912.825 138.793 912.814 138.223 912.814 137.653C912.814 134.879 913.008 132.154 913.383 129.488C911.901 128.342 910.042 127.136 907.797 126.102C903.897 124.298 900.242 123.656 897.433 123.472C896.05 126.637 892.886 128.477 889.842 127.677C886.422 126.774 884.469 122.872 885.477 118.959C886.485 115.046 890.071 112.598 893.491 113.501C896.608 114.326 898.509 117.64 898.06 121.185C900.524 122.599 904.184 124.131 908.716 124.244C910.961 124.303 912.919 124 914.506 123.608C915.514 119.469 916.965 115.502 918.808 111.761C916.855 109.98 914.548 108.091 911.843 106.268C907.927 103.62 904.153 101.725 900.837 100.366C898.676 102.918 895.225 103.768 892.567 102.212C889.513 100.431 888.646 96.1367 890.641 92.6336C892.64 89.1294 896.749 87.74 899.804 89.5272C902.466 91.0773 903.458 94.5223 902.362 97.6931C905.207 99.9262 908.711 102.283 912.914 104.386C915.775 105.823 918.511 106.916 920.985 107.747C923.006 104.32 925.381 101.125 928.039 98.2098C927.016 94.4568 925.288 90.0735 922.343 85.6797C919.581 81.5701 916.506 78.5714 913.895 76.4625C911.024 78.2624 907.411 77.9829 905.353 75.6135C903.014 72.9298 903.552 68.5888 906.554 65.9161C909.551 63.2382 913.879 63.244 916.208 65.9278C918.276 68.2977 918.103 71.9498 915.968 74.6161C917.654 77.4309 920.202 80.9224 923.951 84.248C928.081 87.9186 932.237 90.1158 935.395 91.4222C938.988 88.6365 942.909 86.273 947.101 84.4028C946.49 82.6985 945.686 80.9821 944.632 79.2958C943.786 77.9597 942.877 76.7832 941.953 75.7567C938.758 77.069 935.192 76.1239 933.584 73.3746C931.772 70.3047 933.093 66.1359 936.534 64.0692C939.969 62.0025 944.219 62.8161 946.026 65.8924C947.608 68.5946 946.772 72.1453 944.219 74.3662C944.752 75.7916 945.399 77.2708 946.167 78.7786C947.044 80.513 948.004 82.1105 949.012 83.5892C949.435 83.417 949.863 83.2506 950.286 83.0968C955.282 81.2082 960.598 80.0147 966.137 79.6101C967.046 77.1281 967.839 74.3773 968.393 71.356C969.526 65.1908 969.317 59.8249 968.795 55.7951C965.537 55.1637 963.093 52.5746 963.093 49.4724C963.093 45.898 966.335 42.9998 970.335 42.9998C974.329 42.9998 977.571 45.898 977.571 49.4724C977.571 52.6285 975.039 55.253 971.703 55.8262C970.977 59.7969 970.502 65.3567 971.624 71.8008C972.12 74.6378 972.851 77.2233 973.708 79.5631C979.017 79.8663 984.129 80.9039 988.958 82.5759C989.632 81.4966 990.232 80.3634 990.77 79.0268C991.84 76.3806 992.305 73.8987 992.488 71.8336C989.366 70.1885 987.752 66.7371 988.859 63.6836C990.065 60.3252 994.096 58.7281 997.85 60.116C1001.6 61.5038 1003.67 65.3509 1002.45 68.7087C1001.41 71.6069 998.267 73.1881 995.01 72.6767C994.059 74.6531 993.151 76.9327 992.43 79.5213C992.054 80.8928 991.767 82.2331 991.548 83.5443C995.928 85.3009 1000.04 87.591 1003.82 90.3318C1005.81 88.8785 1007.84 87.1906 1009.84 85.2121C1014.46 80.6588 1017.55 75.9886 1019.57 72.2472C1017.33 69.7352 1016.94 66.1396 1018.82 63.6619C1020.97 60.8276 1025.29 60.5281 1028.46 62.9936C1031.62 65.4586 1032.45 69.7553 1030.29 72.589C1028.39 75.0942 1024.8 75.6151 1021.81 74.0017C1018.88 76.6522 1015.08 80.8347 1012.14 86.8456C1010.8 89.5949 1009.86 92.2686 1009.21 94.7621C1009.81 95.3253 1010.42 95.9064 1011 96.4992C1013.96 99.4904 1016.59 102.802 1018.85 106.387C1020.18 105.998 1021.56 105.529 1022.97 104.954C1027.57 103.083 1031.13 100.698 1033.71 98.6203C1032.61 95.3882 1033.68 91.9004 1036.41 90.3889C1039.5 88.6709 1043.57 90.1533 1045.49 93.7002C1047.41 97.2478 1046.46 101.516 1043.36 103.234C1040.64 104.745 1037.17 103.78 1035.06 101.114C1031.93 102.21 1028.03 103.968 1024 106.855C1022.8 107.717 1021.69 108.604 1020.67 109.496C1023.86 115.308 1026.09 121.732 1027.15 128.551C1029.9 128.79 1032.87 128.903 1036.06 128.804C1040.61 128.662 1044.71 128.123 1048.3 127.421C1048.38 123.854 1050.74 120.868 1053.94 120.529C1057.45 120.156 1060.64 123.114 1061.06 127.138C1061.48 131.16 1058.96 134.724 1055.45 135.097C1052.33 135.429 1049.47 133.12 1048.58 129.773C1044.89 129.848 1040.76 130.181 1036.28 130.961C1033.18 131.5 1030.3 132.189 1027.66 132.954C1027.78 134.503 1027.84 136.069 1027.84 137.653C1027.84 141.415 1027.49 145.094 1026.82 148.66C1029.86 150.7 1034.07 153.015 1039.41 154.639C1044.1 156.064 1048.33 156.549 1051.69 156.654C1052.9 153.482 1055.9 151.504 1058.94 152.098C1062.41 152.776 1064.61 156.545 1063.85 160.516C1063.09 164.489 1059.67 167.159 1056.2 166.48C1053.2 165.895 1051.16 162.998 1051.15 159.658C1047.7 158.525 1043.64 157.462 1039.01 156.768C1033.69 155.973 1028.93 155.859 1024.92 156.036C1023.3 160.957 1021.05 165.581 1018.26 169.814C1019.57 170.866 1021.05 171.905 1022.69 172.876C1025.85 174.735 1028.87 175.892 1031.5 176.64C1033.29 173.768 1036.61 172.418 1039.47 173.592C1042.75 174.935 1044.19 179.062 1042.68 182.809C1041.74 185.16 1039.86 186.811 1037.79 187.375C1036.56 187.714 1035.26 187.672 1034.04 187.173C1033.68 187.025 1033.34 186.841 1033.02 186.621C1030.63 185.019 1029.61 181.697 1030.63 178.528C1028.14 177.231 1025.24 175.946 1021.89 174.886C1019.74 174.206 1017.69 173.711 1015.76 173.341C1014 175.644 1012.07 177.804 1009.99 179.799C1009.79 179.988 1009.6 180.178 1009.4 180.356C1010.8 183.527 1012.92 187.381 1016.11 191.289C1019.23 195.113 1022.48 197.899 1025.21 199.864C1027.95 197.899 1031.54 197.94 1033.74 200.143C1036.26 202.655 1036.02 207.026 1033.2 209.906C1030.4 212.78 1026.07 213.077 1023.56 210.565C1021.39 208.386 1021.28 204.799 1023.14 202.013C1020.98 199.181 1018.18 195.986 1014.6 192.833C1010.76 189.448 1006.96 186.942 1003.66 185.095C999.28 188.242 994.446 190.79 989.282 192.614C989.491 194.579 989.841 196.699 990.41 198.926C991.647 203.777 993.511 207.667 995.203 210.53C998.513 209.859 1001.79 211.39 1002.91 214.324C1004.18 217.656 1002.19 221.539 998.466 223C994.738 224.462 990.681 222.941 989.407 219.604C988.295 216.706 989.658 213.392 992.483 211.623C991.684 208.172 990.425 204.092 988.421 199.71C987.439 197.572 986.395 195.624 985.324 193.848C981.351 194.935 977.206 195.6 972.935 195.784C972.235 199.169 971.671 202.958 971.4 207.097C970.993 213.255 971.322 218.707 971.901 223.209C975.149 223.846 977.571 226.435 977.571 229.527C977.571 233.1 974.329 236 970.33 236C966.33 236 963.093 233.1 963.093 229.527C963.093 226.446 965.505 223.862 968.732 223.214C969.275 218.611 969.573 213.172 969.264 207.097C969.05 202.999 968.591 199.217 968.006 195.796C963.542 195.624 959.209 194.929 955.068 193.772C954.713 194.389 954.358 195.03 954.024 195.689C951.779 200.042 950.568 204.122 949.91 207.388C952.792 209.08 954.254 212.37 953.225 215.304C952.035 218.671 948.025 220.299 944.25 218.944C940.486 217.584 938.398 213.754 939.583 210.386C940.632 207.4 943.916 205.785 947.273 206.403C948.814 203.724 950.604 199.68 951.226 194.501C951.304 193.86 951.361 193.231 951.398 192.614C946.783 190.998 942.444 188.795 938.455 186.099C935.876 188.219 933.161 190.749 930.462 193.754C926.316 198.374 923.303 202.928 921.126 206.8C923.335 209.307 923.721 212.875 921.847 215.34C919.691 218.172 915.383 218.469 912.209 216.005C909.04 213.54 908.209 209.247 910.366 206.408C912.23 203.962 915.707 203.403 918.662 204.894C921.842 201.634 925.366 197.507 928.765 192.435C930.963 189.157 932.775 185.974 934.273 182.987C932.665 181.675 931.125 180.279 929.668 178.801C927.272 176.377 925.084 173.746 923.152 170.932C919.581 171.941 915.451 173.42 911.076 175.641C906.857 177.773 903.343 180.118 900.508 182.304C901.584 185.475 900.561 188.908 897.903 190.44C894.833 192.216 890.745 190.802 888.756 187.293C886.772 183.777 887.654 179.495 890.724 177.72C893.408 176.17 896.874 177.055 899.031 179.655C902.195 178.438 906.032 176.591 910.011 173.759C914.146 170.819 917.263 167.666 919.529 164.946C917.999 162.048 916.709 159.002 915.681 155.83C913.963 155.89 912.157 156.044 910.272 156.329C905.442 157.066 901.417 158.45 898.321 159.827C898.587 163.212 896.697 166.312 893.695 167.089C890.28 167.98 886.693 165.528 885.696 161.608C884.704 157.689 886.673 153.794 890.087 152.903C893.105 152.119 896.243 153.925 897.626 157.042C900.921 156.769 905.129 156.039 909.734 154.233C911.488 153.544 913.102 152.778 914.574 151.977C913.838 149.037 913.321 146.014 913.055 142.915C910.079 142.671 906.909 142.517 903.584 142.511C897.699 142.493 892.364 142.92 887.675 143.55C887.111 146.81 884.631 149.292 881.603 149.387C878.073 149.488 875.113 146.293 875.003 142.249C874.889 138.205 877.656 134.844 881.19 134.743Z" fill="#FB716D"/>
<path d="M17.7007 62.6159C19.5112 62.5617 21.0751 63.9837 21.5184 65.9386C24.3278 66.1618 27.5337 66.2374 31.0517 66.0106C33.0183 65.8813 34.8788 65.6721 36.6237 65.413C36.6144 65.071 36.6081 64.7254 36.6081 64.3799C36.6081 62.6985 36.7236 61.0463 36.9483 59.4299C36.0618 58.7353 34.9505 58.0044 33.6082 57.3777C31.2764 56.2837 29.0913 55.8945 27.4119 55.7831C26.5847 57.7021 24.693 58.8176 22.8731 58.3321C20.8285 57.7847 19.661 55.4196 20.2635 53.0471C20.8659 50.6749 23.0105 49.1915 25.0551 49.7388C26.9187 50.239 28.0549 52.248 27.7865 54.397C29.2599 55.254 31.4481 56.1828 34.1577 56.2513C35.4999 56.2872 36.6705 56.1033 37.6195 55.8657C38.222 53.3568 39.0898 50.9516 40.1917 48.6838C39.0242 47.6039 37.6445 46.459 36.0275 45.3538C33.6863 43.7483 31.4294 42.5998 29.4472 41.7758C28.1548 43.3233 26.0915 43.8383 24.5026 42.8948C22.6764 41.8152 22.1583 39.2121 23.3507 37.0884C24.5463 34.9641 27.003 34.1219 28.8291 35.2053C30.4211 36.1449 31.0142 38.2334 30.3587 40.1556C32.06 41.5093 34.1545 42.9383 36.6674 44.213C38.378 45.0841 40.0138 45.7464 41.4934 46.2502C42.7014 44.173 44.1218 42.2363 45.7106 40.4688C45.0988 38.1937 44.0656 35.5364 42.305 32.8728C40.6537 30.3815 38.815 28.5637 37.2543 27.2852C35.5374 28.3763 33.3773 28.2069 32.1474 26.7706C30.7489 25.1436 31.0704 22.512 32.8653 20.8918C34.6571 19.2684 37.2449 19.2719 38.6371 20.8989C39.8733 22.3356 39.7703 24.5495 38.4935 26.1659C39.5018 27.8723 41.0252 29.9889 43.2665 32.0049C45.7356 34.2301 48.2204 35.5621 50.109 36.3541C52.2566 34.6653 54.6009 33.2325 57.1075 32.0988C56.7423 31.0656 56.2616 30.0251 55.631 29.0028C55.1253 28.1928 54.5822 27.4796 54.0297 26.8573C52.1193 27.6529 49.9872 27.0799 49.0258 25.4133C47.9426 23.5522 48.7323 21.0251 50.7895 19.7722C52.8435 18.5193 55.3844 19.0125 56.4645 20.8774C57.4104 22.5156 56.9109 24.668 55.3845 26.0144C55.7029 26.8785 56.0899 27.7752 56.5488 28.6893C57.0732 29.7407 57.6476 30.7091 58.2501 31.6056C58.5029 31.5012 58.7589 31.4003 59.0117 31.3071C61.9991 30.1621 65.1769 29.4387 68.4889 29.1933C69.032 27.6887 69.5065 26.0211 69.8374 24.1896C70.5148 20.4521 70.3899 17.1992 70.0777 14.7562C68.1299 14.3735 66.669 12.8039 66.669 10.9234C66.669 8.75647 68.6075 6.99951 70.9986 6.99951C73.3866 6.99951 75.3251 8.75647 75.3251 10.9234C75.3251 12.8366 73.8112 14.4277 71.8165 14.7752C71.3826 17.1822 71.0985 20.5527 71.7696 24.4592C72.0662 26.179 72.5032 27.7464 73.0152 29.1648C76.1898 29.3487 79.2458 29.9777 82.1333 30.9913C82.536 30.337 82.895 29.65 83.2165 28.8398C83.8564 27.2356 84.1343 25.731 84.2435 24.4791C82.3768 23.4818 81.4122 21.3895 82.074 19.5384C82.7951 17.5025 85.2049 16.5343 87.4494 17.3757C89.6938 18.217 90.9268 20.5491 90.2026 22.5847C89.5783 24.3417 87.6991 25.3002 85.7512 24.9902C85.1831 26.1883 84.6399 27.5703 84.2092 29.1395C83.9844 29.9709 83.8127 30.7834 83.6816 31.5783C86.3006 32.6432 88.7605 34.0315 91.0174 35.6931C92.2067 34.812 93.421 33.7888 94.6197 32.5894C97.3823 29.8291 99.2271 26.998 100.438 24.7299C99.096 23.207 98.8619 21.0273 99.9857 19.5253C101.275 17.8071 103.853 17.6255 105.748 19.1201C107.643 20.6145 108.136 23.2192 106.847 24.9371C105.711 26.4557 103.563 26.7715 101.774 25.7934C100.023 27.4002 97.7537 29.9357 95.9932 33.5796C95.1909 35.2463 94.629 36.8671 94.2388 38.3788C94.6009 38.7202 94.963 39.0725 95.3127 39.4318C97.0795 41.2451 98.6527 43.2528 100.004 45.4258C100.8 45.1901 101.625 44.906 102.467 44.5573C105.217 43.4229 107.346 41.9772 108.888 40.7177C108.233 38.7583 108.87 36.6439 110.502 35.7276C112.353 34.6862 114.785 35.5848 115.934 37.735C117.083 39.8856 116.514 42.4733 114.66 43.5145C113.031 44.4308 110.958 43.8453 109.697 42.2296C107.824 42.8938 105.495 43.9596 103.085 45.7096C102.367 46.2322 101.706 46.7699 101.094 47.3109C103.001 50.8341 104.331 54.7281 104.965 58.8624C106.613 59.0072 108.389 59.0757 110.293 59.0158C113.012 58.9297 115.469 58.6027 117.613 58.177C117.663 56.015 119.074 54.2048 120.988 53.9989C123.085 53.7728 124.993 55.5663 125.239 58.0054C125.492 60.4439 123.988 62.6043 121.89 62.8305C120.02 63.0316 118.309 61.6317 117.779 59.6028C115.575 59.6486 113.103 59.8504 110.424 60.3231C108.573 60.6501 106.853 61.0677 105.271 61.5311C105.345 62.4701 105.383 63.4197 105.383 64.3799C105.383 66.6605 105.174 68.8911 104.768 71.0529C106.588 72.2894 109.104 73.6924 112.3 74.6773C115.104 75.5413 117.629 75.8353 119.639 75.8984C120.36 73.9759 122.155 72.7768 123.975 73.1368C126.048 73.548 127.365 75.8324 126.909 78.2402C126.457 80.6482 124.409 82.2668 122.333 81.8556C120.541 81.5008 119.321 79.7448 119.315 77.7201C117.254 77.0328 114.826 76.3884 112.06 75.9679C108.879 75.4859 106.029 75.4171 103.632 75.524C102.667 78.5073 101.319 81.3105 99.6548 83.8765C100.438 84.5141 101.319 85.1441 102.299 85.7327C104.187 86.86 105.998 87.5614 107.568 88.0146C108.636 86.2733 110.621 85.4554 112.335 86.167C114.292 86.9808 115.157 89.4826 114.254 91.7543C113.693 93.1798 112.569 94.1806 111.326 94.5226C110.593 94.7279 109.816 94.7026 109.088 94.3999C108.87 94.3103 108.667 94.1985 108.48 94.0653C107.047 93.0939 106.441 91.0804 107.047 89.1592C105.561 88.3726 103.825 87.5937 101.821 86.9513C100.538 86.5391 99.3114 86.2387 98.1564 86.0145C97.1044 87.4105 95.9494 88.7201 94.7071 89.9294C94.5884 90.0441 94.4729 90.1594 94.3543 90.2673C95.194 92.1898 96.4583 94.5261 98.3656 96.8951C100.232 99.2132 102.174 100.902 103.806 102.093C105.445 100.902 107.59 100.927 108.91 102.262C110.412 103.786 110.268 106.435 108.586 108.181C106.909 109.923 104.325 110.103 102.823 108.581C101.521 107.259 101.456 105.085 102.567 103.396C101.281 101.68 99.6049 99.7426 97.4634 97.8309C95.166 95.779 92.8965 94.2597 90.9206 93.1404C88.3047 95.0482 85.4141 96.5925 82.3269 97.698C82.4517 98.8894 82.6609 100.175 83.0011 101.524C83.7409 104.466 84.8554 106.824 85.8667 108.559C87.8458 108.152 89.8031 109.081 90.4742 110.859C91.2359 112.879 90.0466 115.233 87.8177 116.119C85.5889 117.005 83.1635 116.083 82.4018 114.06C81.7369 112.303 82.5516 110.294 84.2404 109.222C83.7628 107.13 83.0105 104.657 81.8118 102C81.2249 100.704 80.6006 99.5232 79.9607 98.4465C77.5852 99.1052 75.1066 99.5088 72.5532 99.6202C72.1349 101.672 71.7977 103.969 71.6354 106.478C71.3919 110.211 71.5886 113.516 71.9351 116.245C73.8767 116.632 75.3251 118.201 75.3251 120.075C75.3251 122.242 73.3866 124 70.9955 124C68.6044 124 66.669 122.242 66.669 120.075C66.669 118.208 68.1112 116.641 70.0403 116.249C70.3649 113.458 70.5429 110.161 70.3587 106.478C70.2307 103.994 69.956 101.701 69.6064 99.6276C66.9374 99.5232 64.3465 99.1017 61.8711 98.4C61.6588 98.7741 61.4466 99.1629 61.2468 99.5626C59.9045 102.202 59.1803 104.675 58.787 106.655C60.5101 107.681 61.3841 109.675 60.7692 111.453C60.0575 113.495 57.6601 114.481 55.4032 113.66C53.1525 112.836 51.9039 110.514 52.6125 108.472C53.2399 106.662 55.2034 105.683 57.2106 106.057C58.1315 104.433 59.2021 101.982 59.5736 98.8423C59.6204 98.4538 59.6548 98.0721 59.6766 97.698C56.9172 96.7186 54.3231 95.3832 51.9382 93.7485C50.3961 95.0337 48.7729 96.5675 47.1591 98.3891C44.6805 101.19 42.8794 103.951 41.5777 106.298C42.8981 107.818 43.1291 109.981 42.0085 111.475C40.7192 113.192 38.1439 113.372 36.246 111.878C34.3512 110.384 33.8549 107.781 35.1441 106.06C36.2585 104.578 38.3375 104.239 40.1043 105.143C42.0053 103.166 44.1124 100.664 46.1446 97.5898C47.4587 95.6025 48.5419 93.6733 49.4378 91.8622C48.4764 91.0667 47.5555 90.2205 46.6846 89.3244C45.2518 87.8554 43.9438 86.2605 42.7889 84.5545C40.6537 85.1662 38.1845 86.0626 35.5686 87.4089C33.0464 88.7015 30.9455 90.1232 29.2505 91.4481C29.8936 93.3706 29.2817 95.4514 27.6928 96.3801C25.8574 97.4568 23.4131 96.5998 22.2238 94.4723C21.0376 92.3413 21.5652 89.7453 23.4007 88.6692C25.0052 87.7295 27.0779 88.266 28.3671 89.8426C30.2588 89.1044 32.5532 87.9851 34.9318 86.2679C37.4041 84.4859 39.2677 82.5743 40.6225 80.9253C39.7078 79.1686 38.9368 77.322 38.3218 75.3995C37.2948 75.4356 36.2148 75.5292 35.0879 75.7018C32.2004 76.1485 29.7937 76.9873 27.9426 77.8225C28.1018 79.8741 26.9718 81.7535 25.1769 82.2249C23.1353 82.7648 20.9908 81.2782 20.3946 78.9022C19.8015 76.5261 20.9783 74.1648 23.0198 73.6249C24.8241 73.1493 26.7002 74.2443 27.5274 76.1338C29.4971 75.9682 32.0131 75.5256 34.7664 74.431C35.8152 74.0137 36.7798 73.549 37.6601 73.0631C37.2199 71.2812 36.9109 69.4483 36.7517 67.5697C34.9724 67.422 33.0776 67.3285 31.0891 67.3247C27.5711 67.3138 24.3809 67.5729 21.5777 67.9546C21.2405 69.9313 19.7578 71.4359 17.9472 71.4935C15.8371 71.5547 14.0671 69.6178 14.0016 67.1662C13.9329 64.7146 15.5873 62.677 17.7007 62.6159" fill="#FB7F7C"/>
<path d="M-104.655 417.493C-100.561 417.371 -97.0335 420.58 -96.0318 424.991C-89.6949 425.493 -82.4542 425.664 -74.5059 425.153C-70.0853 424.86 -65.8825 424.389 -61.9518 423.805C-61.9736 423.033 -61.9845 422.253 -61.9845 421.474C-61.9845 417.68 -61.7123 413.952 -61.2115 410.304C-63.2149 408.736 -65.7192 407.087 -68.7569 405.674C-74.0159 403.205 -78.9374 402.328 -82.7374 402.075C-84.5993 406.405 -88.8783 408.923 -92.9723 407.827C-97.5889 406.592 -100.235 401.254 -98.8627 395.902C-97.5017 390.548 -92.6674 387.202 -88.0508 388.436C-83.848 389.565 -81.2784 394.098 -81.8881 398.948C-78.5673 400.881 -73.624 402.977 -67.5048 403.131C-64.4888 403.212 -61.8429 402.798 -59.698 402.263C-58.337 396.6 -56.388 391.174 -53.8946 386.057C-56.5295 383.62 -59.6435 381.036 -63.2911 378.542C-68.5718 374.92 -73.6675 372.329 -78.1426 370.468C-81.0606 373.962 -85.7099 375.123 -89.3029 372.996C-93.4296 370.557 -94.5837 364.684 -91.8943 359.891C-89.2049 355.1 -83.6628 353.199 -79.5362 355.644C-75.954 357.764 -74.6039 362.475 -76.0847 366.813C-72.2411 369.867 -67.5157 373.091 -61.843 375.968C-57.9886 377.933 -54.2975 379.428 -50.9548 380.565C-48.2219 375.878 -45.0317 371.508 -41.4386 367.519C-42.8214 362.386 -45.1514 356.391 -49.1256 350.379C-52.8603 344.759 -56.9977 340.656 -60.5146 337.772C-64.3908 340.234 -69.2687 339.852 -72.0452 336.611C-75.2028 332.939 -74.4841 327.002 -70.4228 323.347C-66.3833 319.683 -60.5473 319.69 -57.4006 323.362C-54.6241 326.604 -54.8419 331.6 -57.7273 335.246C-55.4516 339.097 -52.0109 343.873 -46.9588 348.423C-41.3841 353.442 -35.7876 356.448 -31.5194 358.235C-26.6633 354.425 -21.3717 351.191 -15.7208 348.634C-16.5374 346.301 -17.6261 343.955 -19.0525 341.648C-20.1958 339.82 -21.4261 338.211 -22.6674 336.806C-26.9682 338.601 -31.7917 337.31 -33.9584 333.549C-36.3974 329.349 -34.6117 323.646 -29.9733 320.82C-25.3349 317.993 -19.6078 319.106 -17.1689 323.313C-15.0348 327.01 -16.1563 331.867 -19.6079 334.905C-18.8892 336.855 -18.0182 338.878 -16.9729 340.94C-15.7861 343.312 -14.5013 345.498 -13.1402 347.52C-12.5632 347.284 -11.997 347.058 -11.4199 346.846C-4.69106 344.263 2.48429 342.631 9.96445 342.078C11.1948 338.683 12.2619 334.92 13.0131 330.787C14.5375 322.354 14.2543 315.014 13.5466 309.502C9.14778 308.638 5.85959 305.097 5.85959 300.854C5.85959 295.964 10.2257 292 15.6153 292C21.0159 292 25.393 295.964 25.393 300.854C25.393 305.17 21.985 308.759 17.4773 309.544C16.4973 314.976 15.8549 322.581 17.3574 331.396C18.0325 335.276 19.0234 338.812 20.1775 342.013C27.3528 342.428 34.245 343.847 40.7561 346.135C41.6599 344.658 42.4765 343.108 43.206 341.28C44.6432 337.658 45.2639 334.265 45.5143 331.44C41.3006 329.19 39.1338 324.468 40.6146 320.292C42.2478 315.699 47.681 313.513 52.7549 315.412C57.8179 317.311 60.6053 322.573 58.9612 327.167C57.5457 331.13 53.3102 333.293 48.9223 332.593C47.6375 335.297 46.4071 338.415 45.4489 341.956C44.9263 343.832 44.5452 345.666 44.2512 347.46C50.1635 349.862 55.7055 352.995 60.8012 356.745C63.4797 354.756 66.2235 352.447 68.9347 349.742C75.1736 343.512 79.3329 337.123 82.0659 332.007C79.039 328.571 78.5054 323.652 81.0423 320.263C83.9495 316.385 89.7746 315.976 94.0537 319.348C98.3219 322.721 99.4324 328.598 96.5362 332.475C93.9557 335.9 89.1214 336.613 85.071 334.406C81.1294 338.033 76.0011 343.752 72.0378 351.975C70.2195 355.736 68.9565 359.393 68.0636 362.803C68.8802 363.574 69.7078 364.369 70.5026 365.18C74.4768 369.272 78.0372 373.802 81.0859 378.704C82.8825 378.174 84.7443 377.531 86.6497 376.745C92.8451 374.186 97.6468 370.924 101.131 368.081C99.6502 363.66 101.098 358.891 104.779 356.822C108.949 354.471 114.436 356.499 117.028 361.352C119.63 366.203 118.345 372.043 114.153 374.393C110.484 376.459 105.802 375.139 102.96 371.493C98.7356 372.992 93.4658 375.397 88.0326 379.345C86.4102 380.525 84.9294 381.738 83.5466 382.958C87.8474 390.908 90.8526 399.695 92.2789 409.024C95.9918 409.349 99.9986 409.505 104.299 409.369C110.44 409.176 115.982 408.438 120.828 407.477C120.937 402.598 124.116 398.515 128.428 398.05C133.175 397.538 137.476 401.586 138.042 407.089C138.597 412.593 135.211 417.467 130.475 417.976C126.25 418.431 122.396 415.272 121.187 410.694C116.222 410.797 110.647 411.252 104.604 412.319C100.412 413.057 96.5471 413.999 92.9649 415.045C93.1391 417.164 93.2153 419.307 93.2153 421.474C93.2153 426.619 92.7471 431.651 91.8325 436.53C95.9482 439.321 101.61 442.487 108.829 444.71C115.155 446.659 120.849 447.322 125.39 447.465C127.023 443.127 131.073 440.42 135.178 441.232C139.849 442.16 142.822 447.314 141.798 452.747C140.775 458.181 136.147 461.834 131.476 460.906C127.426 460.105 124.671 456.143 124.66 451.574C120.011 450.024 114.523 448.569 108.285 447.621C101.12 446.534 94.6852 446.377 89.2629 446.618C87.0962 453.351 84.0474 459.676 80.291 465.465C82.0658 466.905 84.0366 468.325 86.2687 469.653C90.5259 472.198 94.609 473.78 98.1585 474.804C100.554 470.873 105.04 469.028 108.916 470.634C113.326 472.47 115.275 478.115 113.249 483.241C111.976 486.458 109.439 488.716 106.63 489.488C104.975 489.951 103.221 489.895 101.577 489.212C101.098 489.009 100.63 488.757 100.206 488.456C96.9826 486.265 95.6107 481.721 96.9717 477.386C93.6181 475.611 89.6984 473.853 85.1907 472.403C82.2835 471.474 79.518 470.795 76.9157 470.29C74.5421 473.44 71.9289 476.395 69.1306 479.123C68.8693 479.383 68.5971 479.643 68.3358 479.886C70.2304 484.224 73.0831 489.496 77.384 494.841C81.5977 500.073 85.9747 503.881 89.6658 506.572C93.3569 503.881 98.2021 503.939 101.175 506.953C104.572 510.389 104.245 516.368 100.445 520.307C96.6669 524.238 90.8308 524.645 87.4446 521.209C84.4939 518.226 84.3524 513.322 86.8567 509.512C83.9604 505.636 80.1822 501.267 75.3587 496.953C70.165 492.323 65.0476 488.895 60.5834 486.369C54.6821 490.673 48.16 494.158 41.2025 496.652C41.4747 499.341 41.943 502.24 42.716 505.288C44.3928 511.924 46.897 517.245 49.1727 521.161C53.6477 520.241 58.0684 522.338 59.5818 526.351C61.2913 530.908 58.6019 536.22 53.5715 538.219C48.5521 540.217 43.0862 538.137 41.355 533.572C39.8633 529.608 41.6925 525.076 45.5143 522.654C44.4364 517.935 42.7269 512.353 40.0266 506.359C38.6983 503.436 37.2937 500.771 35.8565 498.342C30.4886 499.829 24.903 500.739 19.1323 500.991C18.1959 505.622 17.4338 510.803 17.0636 516.465C16.5083 524.888 16.9546 532.346 17.7385 538.502C22.1156 539.373 25.393 542.913 25.393 547.147C25.393 552.037 21.0268 556 15.6153 556C10.2257 556 5.85959 552.037 5.85959 547.147C5.85959 542.93 9.1152 539.396 13.4705 538.51C14.2 532.215 14.5919 524.775 14.1782 516.465C13.8951 510.859 13.2745 505.685 12.4905 501.006C6.45848 500.771 0.6115 499.821 -4.97413 498.236C-5.45321 499.081 -5.92144 499.959 -6.37874 500.861C-9.41654 506.814 -11.0498 512.396 -11.9317 516.863C-8.04463 519.178 -6.06298 523.678 -7.46756 527.691C-9.05723 532.297 -14.4795 534.523 -19.5643 532.67C-24.6381 530.81 -27.4691 525.57 -25.8685 520.965C-24.4531 516.879 -20.0215 514.669 -15.492 515.514C-13.4124 511.851 -10.9952 506.319 -10.1568 499.236C-10.048 498.358 -9.97179 497.498 -9.92824 496.652C-16.1454 494.443 -22.0033 491.43 -27.3929 487.741C-30.8662 490.641 -34.5246 494.101 -38.1612 498.212C-43.7577 504.531 -47.8299 510.763 -50.7697 516.058C-47.7863 519.486 -47.2746 524.369 -49.7898 527.739C-52.7078 531.614 -58.5221 532.021 -62.8011 528.649C-67.0693 525.279 -68.1799 519.406 -65.2837 515.523C-62.7685 512.176 -58.0756 511.412 -54.0906 513.451C-49.8006 508.991 -45.0426 503.346 -40.4587 496.409C-37.4971 491.924 -35.0472 487.572 -33.0329 483.485C-35.1997 481.69 -37.2684 479.781 -39.25 477.758C-42.4729 474.444 -45.4236 470.845 -48.0368 466.995C-52.8603 468.377 -58.4241 470.4 -64.3254 473.436C-70.02 476.354 -74.7672 479.562 -78.5889 482.551C-77.1408 486.889 -78.5128 491.584 -82.1059 493.679C-86.2434 496.108 -91.7637 494.175 -94.4422 489.374C-97.1207 484.566 -95.9229 478.708 -91.7854 476.279C-88.1706 474.16 -83.4778 475.371 -80.5816 478.929C-76.3134 477.262 -71.1306 474.737 -65.7627 470.862C-60.188 466.841 -55.9743 462.527 -52.9256 458.807C-54.9835 454.844 -56.7255 450.676 -58.1192 446.338C-60.4275 446.42 -62.8774 446.631 -65.4034 447.021C-71.9254 448.028 -77.3587 449.92 -81.5397 451.804C-81.1804 456.435 -83.7282 460.675 -87.7678 461.74C-92.3843 462.958 -97.2186 459.603 -98.5687 454.243C-99.908 448.881 -97.2621 443.552 -92.6347 442.334C-88.5843 441.26 -84.3489 443.731 -82.4652 447.994C-78.0337 447.621 -72.3391 446.622 -66.122 444.153C-63.7702 443.211 -61.5925 442.163 -59.6109 441.066C-60.6017 437.046 -61.2985 432.91 -61.6578 428.67C-65.6756 428.337 -69.9438 428.126 -74.4406 428.117C-82.3672 428.094 -89.5751 428.678 -95.9011 429.539C-96.6633 433.999 -100.006 437.395 -104.089 437.525C-108.858 437.663 -112.854 433.292 -112.996 427.761C-113.148 422.23 -109.413 417.631 -104.655 417.493" fill="#FA645F"/>
<path d="M173.649 286.798V698.903" stroke="#925D51" stroke-width="5.81" stroke-miterlimit="10"/>
<path d="M254.04 285.332C254.04 285.332 183.902 315.068 93.9827 281.834L142.542 171.64L214.471 169.89L254.04 285.332Z" fill="#AC6352"/>
<path d="M123.505 214.839C151.766 246.847 197.664 260.325 245.824 261.365L254.04 285.332C254.04 285.332 183.902 315.068 93.9808 281.834L123.505 214.839Z" fill="#984B39"/>
<rect width="726.385" height="16.939" rx="8.46951" transform="matrix(-1 0 0 1 797.295 762.272)" fill="#925D51"/>
<path fill-rule="evenodd" clip-rule="evenodd" d="M433.473 393.656C434.28 393.529 435.1 393.469 435.93 393.469H620.533H620.693C633.444 393.468 643.754 393.467 643.754 440.304V691.357C643.754 685.046 640.494 686.815 635.373 689.594C631.349 691.777 626.176 694.583 620.533 694.583H435.93C434.161 694.583 432.438 694.308 430.783 693.862H249.924C242.079 693.862 234.888 691.063 229.294 688.886C222.176 686.116 217.644 684.353 217.644 690.643V440.349C217.644 393.654 231.976 393.655 249.701 393.656H249.924H433.473Z" fill="#F5C827"/>
<g opacity="0.699997">
<g opacity="0.699997">
<path d="M628.914 524.238V690.898C628.914 678.92 619.579 694.329 608.063 694.329H442.298C433.908 694.329 426.679 686.159 423.371 686.352V690.898C423.371 688.619 423.034 687.336 422.414 686.745C421.787 687.336 421.448 688.619 421.448 690.898V686.35C418.162 686.189 411.013 694.329 402.716 694.329H238.517C227.109 694.329 217.862 678.92 217.862 690.898V424.073C217.862 421.404 217.893 418.905 217.945 416.514L628.914 524.238Z" fill="#DCB21D"/>
</g>
</g>
<path d="M610.487 648.111C610.487 665.025 620.156 678.737 632.085 678.737H679.602C691.531 678.737 701.202 665.025 701.202 648.111V537.856C701.202 520.941 691.531 507.229 679.602 507.229H632.085C620.156 507.229 610.487 520.941 610.487 537.856V648.111Z" fill="#EBAFB2"/>
<path d="M590.732 660.326C590.732 678.723 604.762 693.636 622.07 693.636H691.013C708.321 693.636 722.352 678.723 722.352 660.326V540.408C722.352 522.01 708.321 507.097 691.013 507.097H622.07C604.762 507.097 590.732 522.01 590.732 540.408V660.326Z" fill="#CAA41E"/>
<path d="M106.896 660.611C106.896 679.066 120.732 694.026 137.801 694.026H205.789C222.857 694.026 236.693 679.066 236.693 660.611V540.317C236.693 521.863 222.857 506.902 205.789 506.902H137.801C120.732 506.902 106.896 521.863 106.896 540.317V660.611Z" fill="#CAA41E"/>
<path d="M671.218 801.411C671.218 807.258 675.034 811.999 679.739 811.999C684.447 811.999 688.262 807.258 688.262 801.411V764.827C688.262 758.98 684.447 754.238 679.739 754.238C675.034 754.238 671.218 758.98 671.218 764.827V801.411Z" fill="#925D51"/>
<path d="M141.903 799.517C141.903 805.364 145.719 810.105 150.426 810.105C155.132 810.105 158.947 805.364 158.947 799.517V762.933C158.947 757.086 155.132 752.344 150.426 752.344C145.719 752.344 141.903 757.086 141.903 762.933V799.517Z" fill="#925D51"/>
<path d="M127.64 507.097H151.537C163.535 507.097 173.261 520.815 173.261 537.738V690.945H658.793V537.738C658.793 520.815 668.519 507.097 680.517 507.097H704.413C716.411 507.097 726.137 520.815 726.137 537.738V747.632C726.137 756.489 723.457 764.443 719.197 770.039C715.232 776.034 709.597 779.805 703.326 779.805L127.64 778.273C115.642 778.273 105.916 764.555 105.916 747.632V537.738C105.916 520.815 115.642 507.097 127.64 507.097Z" fill="#F5C827"/>
<path d="M535.047 523.194H623.463C626.826 523.194 629.553 526.376 629.553 530.3V633.451C629.553 637.375 626.826 640.556 623.463 640.556H535.047C531.684 640.556 528.957 637.375 528.957 633.451V530.3C528.957 526.376 531.684 523.194 535.047 523.194Z" fill="white"/>
<path d="M192.9 534.406L273.303 520.373C276.362 519.84 279.39 522.547 280.067 526.421L297.857 628.247C298.533 632.121 296.602 635.694 293.544 636.228L213.14 650.261C210.081 650.794 207.053 648.087 206.376 644.213L188.586 542.387C187.91 538.513 189.841 534.94 192.9 534.406Z" fill="white"/>
<path fill-rule="evenodd" clip-rule="evenodd" d="M482.851 714.351H638.354C649.967 714.351 659.38 699.43 659.38 681.023V651.028C659.38 632.62 649.967 617.699 638.354 617.699H435.455C433.688 617.699 431.972 618.045 430.332 618.695H202.038C185.712 618.695 172.479 633.463 172.479 651.68V681.366C172.479 699.584 185.712 714.351 202.038 714.351H435.455H482.851Z" fill="#FFE792"/>
<path d="M486.264 344.017C489.292 343.773 492.114 342.391 494.187 340.169C499.603 334.359 507.361 320.848 496.25 296.853C475.566 252.167 399.92 258.871 381.877 291.341C369.04 314.441 356.269 319.024 363.159 325.974C369.808 332.682 448.594 347.058 486.264 344.017Z" fill="#FF504A"/>
<path d="M352.934 612.483C353.016 612.494 353.103 612.506 353.185 612.517C369.545 614.9 386.135 617.089 402.772 618.375C403.725 618.445 404.68 618.52 405.636 618.578C423.242 619.83 440.895 620.018 458.365 618.299C464.095 617.736 469.81 616.958 475.465 615.924C488.106 613.615 496.626 601.667 494.58 588.984C492.652 577.076 491.393 565.795 490.563 555.19C490.44 553.613 490.32 552.056 490.221 550.513C489.382 538.134 489.11 526.734 489.021 516.379C489.017 515.498 489.01 514.627 489.006 513.766C489.006 513.376 488.998 512.988 488.998 512.607C488.994 512.016 488.994 511.43 488.994 510.852C488.987 510.456 488.987 510.067 488.987 509.686C488.987 508.878 488.983 508.091 488.987 507.303C488.975 504.882 488.983 502.53 488.975 500.247V499.641C488.972 491.738 488.939 484.664 488.622 478.462C488.61 478.178 488.599 477.903 488.576 477.625C488.506 476.337 488.441 475.059 488.378 473.8C488.323 472.579 488.262 471.37 488.218 470.173C488.087 466.815 487.998 463.578 487.945 460.487C487.912 457.887 487.912 455.396 487.952 453.032C488.002 450.409 488.095 447.952 488.243 445.676C488.3 444.923 488.352 444.145 488.412 443.346C488.506 442.136 488.606 440.881 488.711 439.592C488.774 438.808 488.84 438.019 488.92 437.216C488.954 436.866 488.983 436.511 489.017 436.151C489.021 436.062 489.032 435.976 489.038 435.894C489.084 435.398 489.129 434.904 489.173 434.4C489.223 433.911 489.272 433.422 489.32 432.928C489.398 432.066 489.483 431.187 489.578 430.301C489.985 426.167 490.459 421.827 490.94 417.378C491.098 415.984 491.252 414.569 491.408 413.152C491.657 410.957 491.908 408.738 492.151 406.53C492.319 405.104 492.48 403.677 492.64 402.253C495.08 380.802 497.376 360.264 496.56 353.746C495.147 342.46 440.488 312.672 440.488 312.672L407.679 311.641C407.679 311.641 361.626 330.192 353.13 341.39C353.084 341.445 353.046 341.502 353.005 341.553C351.078 344.191 349.865 347.856 349.17 352.386C348.549 356.369 348.328 361.015 348.374 366.226C348.394 369.935 348.556 373.932 348.796 378.171C349.049 382.666 349.393 387.435 349.771 392.43C349.88 393.883 349.994 395.355 350.108 396.844C350.226 398.358 350.338 399.885 350.454 401.431C350.528 402.43 350.603 403.438 350.677 404.449C350.876 407.118 351.072 409.835 351.249 412.589C351.306 413.477 351.369 414.375 351.426 415.275C351.464 415.841 351.496 416.418 351.527 416.988C351.563 417.572 351.597 418.154 351.63 418.742V418.753C351.66 419.293 351.694 419.828 351.719 420.366C351.759 420.952 351.785 421.539 351.814 422.129C351.869 423.209 351.926 424.291 351.97 425.383C352.016 426.283 352.052 427.192 352.086 428.099C352.099 428.259 352.105 428.428 352.105 428.591C352.135 429.177 352.158 429.765 352.173 430.347L352.183 430.653L352.191 430.799C352.213 431.566 352.24 432.346 352.261 433.118C352.291 434.046 352.314 434.972 352.337 435.894C352.347 436.321 352.35 436.76 352.358 437.193C352.369 437.576 352.373 437.971 352.381 438.359C352.381 438.557 352.385 438.747 352.385 438.949C352.396 439.483 352.404 440.018 352.409 440.567C352.417 441.478 352.419 442.401 352.419 443.346V444.841C352.417 447.456 352.388 450.189 352.337 453.032C352.318 454.206 352.291 455.396 352.265 456.604C352.236 457.884 352.202 459.177 352.17 460.487C352.086 463.241 351.997 466.054 351.884 468.918C351.873 469.337 351.86 469.751 351.841 470.173C351.833 470.345 351.829 470.514 351.822 470.685C351.787 471.619 351.751 472.556 351.707 473.505C351.649 474.869 351.586 476.248 351.531 477.625C351.468 479.116 351.365 480.696 351.234 482.362C351.072 484.447 350.865 486.657 350.614 488.992C350.559 489.538 350.496 490.091 350.429 490.647C350.327 491.543 350.226 492.455 350.1 493.382C350.032 493.964 349.963 494.542 349.886 495.133C349.838 495.506 349.79 495.881 349.739 496.257C349.558 497.661 349.363 499.104 349.155 500.573C349.132 500.736 349.11 500.898 349.089 501.061C348.982 501.805 348.866 502.552 348.763 503.313C348.552 504.762 348.324 506.242 348.094 507.741C348.026 508.161 347.963 508.589 347.896 509.013C347.497 511.565 347.067 514.182 346.618 516.858C346.54 517.324 346.455 517.803 346.375 518.281C346.196 519.334 346.011 520.396 345.827 521.464C345.18 525.188 344.496 528.998 343.781 532.868C342.946 537.343 342.077 541.896 341.175 546.483C340.437 550.256 339.673 554.051 338.9 557.845C337.094 566.721 335.215 575.593 333.36 584.153C330.468 597.481 339.439 610.515 352.934 612.483Z" fill="white"/>
<path d="M349.169 352.387C373.138 357.523 395.374 358.99 412.938 358.99C416.129 358.99 419.164 358.942 422.031 358.86C449.164 358.067 466.813 354.134 467.553 353.971L466.275 348.322L465.001 342.676H464.997C464.651 342.754 447.34 346.563 421.384 347.295C403.853 347.788 379.627 346.911 353.128 341.39C353.085 341.445 353.045 341.5 353.005 341.554C351.078 344.191 349.863 347.856 349.169 352.387Z" fill="#88C1FF"/>
<path d="M348.375 366.226C348.398 369.935 348.559 373.932 348.799 378.171C372.241 383.154 394.097 384.623 411.691 384.623C416.048 384.623 420.143 384.533 423.937 384.383C451.054 383.322 468.657 379.214 469.393 379.039L466.727 367.768C466.554 367.81 449.249 371.829 423.176 372.822C404.234 373.548 377.452 372.747 348.375 366.226Z" fill="#88C1FF"/>
<path d="M349.77 392.43C349.878 393.883 349.992 395.355 350.106 396.844C350.224 398.358 350.337 399.885 350.453 401.431C350.527 402.429 350.601 403.437 350.677 404.449C372.763 408.913 393.417 410.28 410.424 410.28C415.979 410.28 421.137 410.136 425.836 409.908C452.932 408.574 470.492 404.289 471.228 404.111L468.449 392.867C468.278 392.907 451.015 397.099 424.961 398.354C405.956 399.269 379.039 398.73 349.77 392.43Z" fill="#88C1FF"/>
<path d="M351.627 418.741V418.753C351.658 419.295 351.69 419.827 351.716 420.366C351.755 420.953 351.781 421.539 351.812 422.129C351.867 423.209 351.922 424.291 351.968 425.383C352.011 426.282 352.049 427.191 352.082 428.099C352.095 428.258 352.103 428.428 352.103 428.591C352.133 429.177 352.154 429.765 352.169 430.346L352.181 430.653C373.084 434.69 392.69 435.972 409.158 435.972C415.925 435.972 422.157 435.759 427.739 435.426C454.816 433.825 472.332 429.363 473.064 429.177L470.173 417.964H470.169C470.011 418.005 465.637 419.107 458.062 420.388C450.487 421.67 439.715 423.131 426.75 423.886C407.781 424.991 380.908 424.723 351.627 418.741Z" fill="#88C1FF"/>
<path d="M471.898 443.062L473.397 448.654L471.894 443.062H471.898ZM352.333 453.032C352.384 450.188 352.412 447.455 352.416 444.84C382.125 450.711 409.375 450.727 428.534 449.416C454.447 447.649 471.58 443.144 471.894 443.062L473.397 448.654L474.897 454.245C474.169 454.439 456.702 459.076 429.643 460.947C423.203 461.396 415.894 461.697 407.893 461.697C391.625 461.697 372.534 460.447 352.262 456.603C352.287 455.396 352.314 454.205 352.333 453.032Z" fill="#88C1FF"/>
<path d="M351.232 482.361C371.31 486.182 390.292 487.453 406.635 487.453C415.88 487.453 424.276 487.046 431.549 486.471C458.586 484.322 476.007 479.514 476.737 479.313L475.178 473.737L473.624 468.16H473.622C473.344 468.238 456.248 472.919 430.324 474.952C410.676 476.49 382.497 476.721 351.82 470.684C351.786 471.62 351.748 472.557 351.706 473.504C351.647 474.868 351.584 476.247 351.527 477.626C351.464 479.115 351.362 480.695 351.232 482.361Z" fill="#88C1FF"/>
<path d="M348.091 507.74C368.762 511.863 388.403 513.238 405.386 513.238C415.885 513.238 425.363 512.711 433.45 511.991C460.471 509.573 477.845 504.591 478.573 504.381L475.346 493.261V493.257C475.178 493.307 458.1 498.185 432.113 500.483C411.674 502.293 381.959 502.776 349.736 496.257C349.556 497.662 349.36 499.104 349.152 500.572C349.13 500.736 349.107 500.897 349.084 501.061C348.979 501.804 348.863 502.552 348.761 503.313C348.55 504.764 348.321 506.241 348.091 507.74Z" fill="#88C1FF"/>
<path d="M343.778 532.867C365.469 537.51 386.197 539.052 404.156 539.052C415.908 539.052 426.474 538.392 435.358 537.51C462.36 534.821 479.688 529.667 480.413 529.446L477.073 518.36C476.906 518.408 459.873 523.459 433.905 526.017C412.291 528.147 380.282 528.896 345.825 521.464C345.178 525.188 344.495 528.997 343.778 532.867Z" fill="#88C1FF"/>
<path d="M338.901 557.846C361.817 563.146 383.836 564.902 402.937 564.902C415.951 564.902 427.606 564.088 437.265 563.026C464.245 560.067 481.529 554.738 482.25 554.514L480.523 548.985L478.801 543.458L478.798 543.462C478.529 543.542 461.563 548.738 435.696 551.551C412.775 554.04 378.129 555.094 341.176 546.482C340.438 550.255 339.674 554.05 338.901 557.846Z" fill="#88C1FF"/>
<path d="M427.134 596.906C426.025 549.164 434.2 493.613 434.131 445.857C434.068 403.039 430.94 360.529 430.974 317.711C441.189 318.479 445.576 320.223 445.576 320.223C445.576 320.223 455.344 328.557 487.128 338.914C517.099 348.68 511.529 459.379 509.707 521.338C507.887 583.298 508.609 622.581 449.69 630.11C444.156 630.818 438.72 631.442 433.397 631.965C433.308 617.796 427.463 611.109 427.134 596.906Z" fill="#F0413C"/>
<path d="M491.053 471.021C491.686 471.021 492.256 470.578 492.393 469.931C492.553 469.191 492.08 468.461 491.338 468.301C490.587 468.139 472.901 464.113 466.804 442.938C466.597 442.208 465.834 441.789 465.104 441.997C464.375 442.206 463.953 442.968 464.164 443.697C470.729 466.508 489.951 470.817 490.767 470.99C490.862 471.011 490.959 471.021 491.053 471.021Z" fill="#BE1712"/>
<path d="M439.616 587.501C440.187 587.501 440.666 587.056 440.698 586.478C445.442 500.988 449.215 417.42 443.365 334.937C443.321 334.34 442.8 333.893 442.207 333.933C441.607 333.975 441.159 334.494 441.2 335.091C447.045 417.447 443.273 500.94 438.532 586.356C438.5 586.955 438.958 587.466 439.555 587.499C439.576 587.501 439.595 587.501 439.616 587.501Z" fill="#BE1712"/>
<path d="M324.866 382.275C323.445 338.169 344.689 326.528 387.083 320.17C387.248 320.145 387.41 320.121 387.576 320.098C388.256 327.384 388.007 334.784 387.532 342.058C386.771 353.692 385.421 365.259 384.953 376.912C382.994 425.538 378.236 458.566 382.142 522.388C385.08 570.356 377.412 595.533 376.069 631.881C352.003 628.205 333.063 618.41 321.399 598.534C299.518 561.245 326.285 426.381 324.866 382.275Z" fill="#F0413C"/>
<path d="M329.845 469.533C329.948 469.533 330.049 469.524 330.153 469.499C330.437 469.434 358.624 462.517 363.388 421.523C363.476 420.77 362.936 420.087 362.18 420.001C361.422 419.908 360.745 420.454 360.659 421.207C356.116 460.294 329.805 466.76 329.539 466.819C328.799 466.989 328.337 467.726 328.506 468.466C328.651 469.101 329.218 469.533 329.845 469.533Z" fill="#BE1712"/>
<path d="M372.835 579.658C373.356 579.658 373.816 579.281 373.904 578.749C375.891 566.679 375.129 534.299 374.389 502.987C373.828 479.166 373.297 456.667 373.917 443.113C376.011 397.225 382.282 333.136 382.344 332.495C382.403 331.9 381.968 331.369 381.372 331.31C380.781 331.253 380.245 331.687 380.188 332.282C380.125 332.925 373.849 397.067 371.751 443.012C371.129 456.642 371.66 479.177 372.223 503.038C372.959 534.251 373.719 566.527 371.764 578.397C371.667 578.986 372.067 579.546 372.658 579.643C372.717 579.652 372.776 579.658 372.835 579.658Z" fill="#BE1712"/>
<path d="M411.379 219.014L432.225 226.585C432.225 226.585 438.478 235.208 446.677 233.43C449.965 232.715 453.565 230.328 457.204 225.047C469.912 206.584 439.26 181.004 420.837 185.302C411.801 187.409 409.351 195.564 409.205 203.326C409.051 211.384 411.379 219.014 411.379 219.014Z" fill="#002014"/>
<path d="M411.379 219.014L432.225 226.585C432.225 226.585 438.478 235.208 446.677 233.43C446.677 223.868 433.263 206.384 409.205 203.326C409.051 211.384 411.379 219.014 411.379 219.014Z" fill="#FFD339"/>
<path d="M411.724 182.13C412.101 182.13 412.51 182.174 412.953 182.262C414.033 182.478 414.733 183.003 415.153 183.914C417.026 187.969 413.076 197.627 410.254 203.332C408.51 197.003 406.42 186.423 409.373 183.089C409.942 182.448 410.716 182.13 411.724 182.13ZM409.925 208.094C410.395 208.094 410.834 207.842 411.066 207.423C412.064 205.633 420.722 189.74 417.527 182.819C416.758 181.155 415.353 180.075 413.464 179.698C410.246 179.057 408.398 180.246 407.416 181.354C402.285 187.148 408.012 205.162 408.681 207.197C408.845 207.689 409.282 208.039 409.799 208.089C409.841 208.093 409.883 208.094 409.925 208.094Z" fill="#FFD339"/>
<path d="M394.097 188.562C394.22 188.562 394.346 188.57 394.471 188.589C398.889 189.176 404.228 198.547 407.05 204.475C401.183 202.004 391.877 197.286 390.641 192.995C390.363 192.029 390.55 191.175 391.225 190.304C392.134 189.135 393.075 188.562 394.097 188.562ZM409.559 208.178C409.91 208.178 410.255 208.037 410.504 207.775C410.863 207.398 410.966 206.846 410.766 206.367C409.941 204.391 402.489 187.02 394.817 185.996C393.347 185.801 391.173 186.109 389.161 188.699C387.978 190.22 387.621 191.957 388.129 193.718C390.24 201.042 407.187 207.398 409.112 208.1C409.258 208.153 409.408 208.178 409.559 208.178Z" fill="#FFD339"/>
<path d="M448.254 236.145C452.807 235.464 457.927 233.037 461.141 226.333C468.731 210.508 450.578 197.153 450.394 197.02C450.023 196.752 449.505 196.837 449.237 197.206C448.969 197.577 449.053 198.096 449.424 198.364C449.597 198.49 466.635 211.044 459.648 225.616C453.412 238.617 439.682 234.043 439.102 233.839C438.667 233.691 438.197 233.921 438.047 234.353C437.898 234.785 438.127 235.256 438.56 235.407C438.642 235.435 443.083 236.917 448.254 236.145Z" fill="#002014"/>
<path d="M387.856 238.1C387.856 238.1 379.72 272.263 391.02 294.376C402.319 316.489 413.673 322.512 397.447 329.381C381.22 336.249 362.759 323.166 350.37 329.971C335.414 338.185 352.185 269.243 359.659 240.067C367.31 210.213 403.643 206.872 403.643 206.872L387.856 238.1Z" fill="#002014"/>
<path d="M366.35 262.648C366.35 262.648 351.812 229.352 379.069 213.679C406.328 198.006 433.861 209.843 441.197 227.888C448.532 245.932 437.3 257.802 437.3 257.802L366.35 262.648Z" fill="#002014"/>
<path d="M413.067 332.95C405.199 335.135 402.051 331.647 399.636 329.053L398.01 314.947L397.059 306.72L396.861 305.508L400.479 305.107L427.169 297.408L430.779 314.356L432.494 322.391C429.063 325.63 424.505 329.774 413.067 332.95Z" fill="#FBB990"/>
<path d="M398.011 314.947C406.282 318.676 422.594 316.982 430.78 314.355C430.808 314.352 430.829 314.342 430.858 314.332L427.17 297.408L400.479 305.107L396.862 305.508L397.06 306.719L398.011 314.947Z" fill="#181818"/>
<path d="M376.219 262.853C376.219 262.853 360.371 258.247 363.48 272.248C366.905 287.665 379.522 283.288 381.694 282.29L376.219 262.853Z" fill="#FB9476"/>
<path d="M387.604 288.459C388.481 294.325 384.422 299.81 378.557 300.686C372.69 301.563 367.205 297.505 366.328 291.637C365.581 286.634 368.432 281.917 372.922 280.091C372.93 280.101 372.937 280.112 372.945 280.129C373.7 280.327 373.858 280.909 373.928 281.542C369.946 282.959 367.384 287.048 368.03 291.384C368.766 296.308 373.373 299.72 378.302 298.984C383.226 298.248 386.638 293.638 385.902 288.714C385.571 286.489 384.449 284.576 382.865 283.216C382.454 282.866 382.013 282.55 381.547 282.276C381.961 281.902 382.355 281.466 382.703 280.968C383.131 281.234 383.55 281.537 383.934 281.868C385.847 283.49 387.207 285.787 387.604 288.459Z" fill="white"/>
<path d="M374.445 277.713C374.476 277.709 374.506 277.702 374.537 277.694C374.995 277.574 375.273 277.105 375.153 276.644C373.39 269.849 368.386 267.494 368.175 267.397C367.743 267.202 367.232 267.39 367.034 267.824C366.838 268.255 367.026 268.765 367.456 268.963C367.644 269.05 371.939 271.11 373.487 277.078C373.599 277.508 374.015 277.778 374.445 277.713Z" fill="#FA7764"/>
<path d="M368.775 274.853C369.019 274.817 369.245 274.678 369.382 274.452C369.407 274.414 370.466 272.732 371.982 272.713C372.455 272.711 372.838 272.32 372.834 271.844C372.826 271.369 372.438 270.988 371.963 270.994C369.492 271.019 367.977 273.451 367.914 273.554C367.667 273.961 367.796 274.49 368.201 274.737C368.38 274.845 368.583 274.881 368.775 274.853Z" fill="#FA7764"/>
<path d="M367.527 260.933C368.512 266.501 370.03 271.912 371.918 276.986C372.768 279.285 373.704 281.512 374.695 283.654C381.678 298.747 391.716 309.622 399.735 310.563C412.429 312.056 426.84 305.854 433.905 289.299C435.059 286.594 436.269 283.327 436.847 279.477C436.925 278.943 437.001 278.395 437.066 277.836C439.137 260.636 434.774 236.115 434.774 236.115C424.369 220.581 402 224.721 389.023 226.857C376.038 228.997 363.006 235.45 367.527 260.933Z" fill="#FFC29C"/>
<path d="M403.247 301.674C406.002 301.263 407.63 300.014 407.701 299.96C408.075 299.668 408.144 299.127 407.851 298.753C407.56 298.378 407.022 298.31 406.647 298.601C406.619 298.622 405.16 299.709 402.727 300.008C400.247 300.31 398.585 299.738 398.57 299.732C398.123 299.574 397.631 299.808 397.471 300.253C397.311 300.698 397.541 301.191 397.986 301.351C398.068 301.381 400.023 302.071 402.935 301.716C403.041 301.704 403.144 301.689 403.247 301.674Z" fill="#FB9476"/>
<path d="M451.566 466.759C452.118 466.759 452.631 466.407 452.81 465.853C454.68 460.096 455.969 453.602 456.024 453.328C456.163 452.618 455.703 451.932 454.994 451.791C454.288 451.652 453.598 452.112 453.459 452.822C453.445 452.888 452.143 459.44 450.323 465.047C450.1 465.733 450.477 466.471 451.163 466.694C451.296 466.738 451.433 466.759 451.566 466.759Z" fill="#108E59"/>
<path d="M444.586 464.416C445.131 464.416 445.639 464.073 445.824 463.528C447.769 457.797 449.144 451.323 449.201 451.051C449.352 450.344 448.899 449.65 448.192 449.501C447.486 449.351 446.794 449.804 446.643 450.509C446.63 450.576 445.242 457.107 443.348 462.687C443.116 463.372 443.483 464.113 444.165 464.345C444.306 464.393 444.447 464.416 444.586 464.416Z" fill="#108E59"/>
<path d="M437.599 462.073C438.137 462.073 438.641 461.738 438.832 461.201C440.851 455.498 442.312 449.045 442.373 448.773C442.531 448.069 442.089 447.369 441.384 447.211C440.682 447.054 439.98 447.495 439.822 448.2C439.807 448.265 438.333 454.775 436.367 460.329C436.125 461.009 436.483 461.755 437.162 461.996C437.306 462.048 437.455 462.073 437.599 462.073Z" fill="#108E59"/>
<path d="M430.619 459.73C431.152 459.73 431.65 459.403 431.846 458.875C433.942 453.2 435.486 446.767 435.551 446.496C435.72 445.794 435.286 445.088 434.583 444.921C433.881 444.753 433.177 445.187 433.008 445.889C432.993 445.953 431.433 452.443 429.393 457.969C429.143 458.646 429.49 459.4 430.167 459.649C430.315 459.704 430.469 459.73 430.619 459.73Z" fill="#108E59"/>
<path d="M423.635 457.388C424.16 457.388 424.656 457.068 424.856 456.549C427.026 450.9 428.658 444.489 428.724 444.219C428.903 443.519 428.479 442.808 427.779 442.631C427.079 442.454 426.368 442.878 426.191 443.578C426.174 443.641 424.529 450.111 422.416 455.611C422.157 456.285 422.492 457.042 423.167 457.3C423.321 457.359 423.479 457.388 423.635 457.388Z" fill="#108E59"/>
<path d="M416.655 455.046C417.174 455.046 417.665 454.734 417.868 454.222C420.114 448.602 421.83 442.21 421.902 441.94C422.088 441.244 421.674 440.527 420.976 440.341C420.278 440.154 419.563 440.569 419.376 441.267C419.359 441.331 417.627 447.781 415.441 453.252C415.173 453.924 415.5 454.684 416.17 454.952C416.33 455.015 416.493 455.046 416.655 455.046Z" fill="#108E59"/>
<path d="M409.673 452.703C410.187 452.703 410.672 452.398 410.881 451.896C413.201 446.303 415.002 439.932 415.078 439.664C415.274 438.969 414.869 438.247 414.173 438.051C413.479 437.855 412.756 438.26 412.562 438.956C412.543 439.021 410.727 445.449 408.466 450.894C408.19 451.56 408.506 452.326 409.173 452.602C409.337 452.67 409.506 452.703 409.673 452.703Z" fill="#108E59"/>
<path d="M372.054 313.328C372.32 316.738 372.953 320.143 374.115 323.324C374.41 324.138 374.743 324.935 375.115 325.715V325.719C376.989 329.682 379.823 333.174 383.988 335.728C383.988 335.728 404.297 344.361 428.223 333.766H428.227C429.584 333.163 430.956 332.495 432.338 331.763C433.546 331.124 434.756 330.434 435.969 329.69C446.361 323.324 450.48 314.745 451.606 306.575C451.707 305.846 451.785 305.126 451.84 304.401C452.281 298.64 451.351 293.212 450.239 289.076C450.162 288.802 450.088 288.532 450.014 288.271C448.81 284.057 447.492 281.375 447.492 281.375C447.492 281.375 442.114 279.038 435.058 277.965C432.374 277.558 429.448 277.334 426.481 277.492C423.112 277.667 419.691 278.336 416.515 279.785C393.83 290.135 382.341 294.757 375.758 285.873C375.758 285.873 374.615 289.179 373.573 294.158C373.425 294.865 373.282 295.601 373.139 296.37C372.755 298.481 372.411 300.81 372.185 303.266C371.886 306.482 371.783 309.903 372.054 313.328Z" fill="#0CAD69"/>
<path d="M373.138 296.369C373.441 296.837 373.781 297.311 374.154 297.782C377.027 301.413 382.611 305.593 393.092 305.593C393.735 305.593 394.393 305.578 395.072 305.544C405.236 305.059 413.159 300.863 420.823 296.807C429.971 291.967 438.615 287.391 450.083 289.806L450.237 289.076L450.389 288.345C450.262 288.321 450.135 288.294 450.011 288.271C438.208 285.919 429.42 290.569 420.125 295.489C412.605 299.466 404.829 303.583 395.002 304.049C386.096 304.479 379.492 302.075 375.369 296.911C374.629 295.985 374.04 295.048 373.572 294.157C373.422 294.863 373.281 295.601 373.138 296.369Z" fill="#108E59"/>
<path d="M374.117 323.324C374.412 324.138 374.744 324.935 375.117 325.715V325.718C378.917 327.9 383.47 329.395 388.736 330.186C391.73 330.639 394.953 330.861 398.394 330.861C402.873 330.861 407.717 330.481 412.886 329.72C428.396 327.426 441.655 322.421 441.79 322.367L441.256 320.971C441.125 321.023 427.996 325.979 412.643 328.244C400.429 330.039 384.602 330.418 374.117 323.324Z" fill="#108E59"/>
<path d="M409.977 442.994L455.963 458.011C455.963 458.011 456.572 455.331 457.513 450.774C457.723 449.759 457.951 448.646 458.189 447.45C458.839 444.215 459.586 440.356 460.376 436.05C460.573 434.958 460.773 433.842 460.975 432.695C461.614 429.093 462.268 425.24 462.903 421.212C463.078 420.095 463.255 418.968 463.426 417.825C463.997 414.059 464.55 410.175 465.054 406.233C465.201 405.09 465.345 403.943 465.484 402.791C465.956 398.89 466.374 394.957 466.72 391.056C466.829 389.888 466.926 388.723 467.015 387.561C467.333 383.496 467.565 379.489 467.681 375.615C467.715 374.423 467.742 373.243 467.755 372.078C467.808 367.738 467.7 363.599 467.39 359.778C467.289 358.525 467.165 357.312 467.019 356.136C466.918 355.284 466.798 354.451 466.673 353.641C466.072 349.856 465.239 346.424 464.233 343.308C463.814 342 463.362 340.75 462.884 339.554C454.372 318.173 437.652 313.959 437.652 313.959C425.269 315.188 419.826 328.419 419.826 328.419C422.422 330.893 424.298 334.292 425.583 338.369C425.916 339.427 426.211 340.53 426.464 341.673C427.152 344.735 427.571 348.097 427.765 351.675C427.827 352.785 427.865 353.917 427.884 355.064C427.94 358.407 427.824 361.903 427.567 365.495C427.489 366.617 427.396 367.745 427.291 368.881C426.97 372.34 426.532 375.87 426.005 379.413C425.836 380.543 425.661 381.667 425.479 382.795C424.904 386.321 424.25 389.85 423.541 393.333C423.316 394.453 423.08 395.565 422.845 396.676C422.08 400.257 421.266 403.772 420.433 407.165C420.163 408.27 419.891 409.36 419.613 410.436C418.693 414.078 417.753 417.553 416.85 420.78C416.54 421.889 416.23 422.973 415.928 424.021C414.811 427.891 413.765 431.324 412.871 434.171C412.502 435.345 412.162 436.415 411.852 437.379C410.697 440.944 409.977 442.994 409.977 442.994Z" fill="#0CAD69"/>
<path d="M425.588 338.37C425.921 339.427 426.215 340.528 426.468 341.671C434.608 340.667 449.393 339.733 464.237 343.309C463.819 342 463.366 340.749 462.889 339.555C455.511 337.959 448.425 337.428 442.577 337.369C435.673 337.295 429.734 337.832 425.588 338.37Z" fill="#108E59"/>
<path d="M427.768 351.675C427.831 352.784 427.869 353.916 427.888 355.063C437.603 354.646 452.861 355.038 467.393 359.777C467.292 358.526 467.169 357.313 467.022 356.135C457.389 353.174 447.785 352.048 440.244 351.694C435.545 351.474 431.298 351.521 427.768 351.675Z" fill="#108E59"/>
<path d="M427.294 368.88C437.663 369.055 453.233 370.352 467.684 375.617C467.718 374.424 467.745 373.243 467.76 372.077C457.121 368.35 446.248 366.714 437.914 366.02C434.122 365.702 430.626 365.552 427.572 365.497C427.492 366.617 427.399 367.745 427.294 368.88Z" fill="#108E59"/>
<path d="M425.477 382.795C436.186 383.516 452.129 385.532 466.72 391.057C466.827 389.887 466.924 388.723 467.013 387.561C452.339 382.126 436.694 380.132 426.004 379.414C425.834 380.541 425.659 381.667 425.477 382.795Z" fill="#108E59"/>
<path d="M422.848 396.675C433.73 397.908 450.157 400.57 465.057 406.234C465.204 405.091 465.348 403.944 465.487 402.79C450.516 397.191 434.402 394.557 423.544 393.332C423.32 394.454 423.084 395.566 422.848 396.675Z" fill="#108E59"/>
<path d="M419.615 410.437C430.526 412.158 447.542 415.49 462.905 421.212C463.08 420.096 463.255 418.968 463.428 417.825C448.116 412.203 431.355 408.9 420.433 407.163C420.165 408.27 419.893 409.36 419.615 410.437Z" fill="#108E59"/>
<path d="M415.921 424.022C426.712 426.218 444.411 430.283 460.369 436.049C460.567 434.959 460.769 433.843 460.97 432.696C445.082 427.006 427.642 422.987 416.844 420.779C416.534 421.888 416.224 422.972 415.921 424.022Z" fill="#108E59"/>
<path d="M411.853 437.379C422.303 440.009 440.801 444.941 457.512 450.774C457.723 449.758 457.95 448.646 458.189 447.449C441.575 441.675 423.33 436.809 412.872 434.171C412.501 435.344 412.163 436.415 411.853 437.379Z" fill="#108E59"/>
<path d="M428.222 333.766H428.226C428.567 333.747 428.917 333.707 429.28 333.638C430.385 333.429 431.4 332.773 432.34 331.763C440.246 323.235 442.283 289.58 442.283 289.58C442.283 289.58 439.32 282.256 435.058 277.967C432.376 277.56 429.447 277.336 426.48 277.494C425.866 283.814 423.74 303.962 421.267 309.506C418.424 315.873 418.787 334.27 428.222 333.766Z" fill="#108E59"/>
<path d="M372.052 313.328C383.605 322.294 408.82 317.132 431.844 310.348C439.71 308.03 446.264 306.948 451.606 306.577C451.703 305.848 451.783 305.126 451.838 304.403C441.83 305.029 428.422 307.841 411.813 311.615C387.181 317.208 375.96 307.767 372.181 303.268C371.882 306.484 371.781 309.907 372.052 313.328Z" fill="#108E59"/>
<path d="M388.747 267.722C389.128 270.152 388.34 272.296 386.986 272.509C385.626 272.724 384.215 270.923 383.835 268.49C383.685 267.532 383.717 266.623 383.892 265.854C381.477 266.337 380.44 264.949 380.44 264.949C382.043 264.924 384.088 264.259 385.052 263.912C385.392 263.785 385.602 263.703 385.602 263.703C386.956 263.488 388.365 265.286 388.747 267.722Z" fill="#181818"/>
<path d="M385.6 263.702C385.6 263.702 385.392 263.784 385.049 263.912C385.218 263.805 385.401 263.733 385.6 263.702Z" fill="#181818"/>
<path d="M371.915 276.986C372.767 279.285 373.701 281.512 374.692 283.654C375.784 283.663 376.955 283.587 378.163 283.416C383.558 282.653 387.684 280.291 387.377 278.142C387.071 275.995 382.45 274.875 377.06 275.636C375.137 275.908 373.374 276.383 371.915 276.986Z" fill="#FD9B7E"/>
<path d="M411.517 273.925C411.825 276.097 416.493 277.229 421.943 276.457C427.394 275.683 431.563 273.298 431.253 271.126C430.947 268.956 426.278 267.822 420.829 268.594C415.378 269.368 411.209 271.753 411.517 273.925Z" fill="#FD9B7E"/>
<path d="M434.018 260.194C433.723 258.138 434.598 256.1 436.275 254.879C440.435 251.853 446.005 250.139 448.765 255.639C453.889 265.849 444.579 279.53 436.527 277.728L434.018 260.194Z" fill="#FBB990"/>
<path d="M432.329 277.057C432.485 277.202 432.639 277.341 432.797 277.468C433.259 277.851 433.731 278.176 434.212 278.446C435.094 278.946 435.988 279.271 436.844 279.479C436.926 278.94 437 278.394 437.061 277.835C436.448 277.689 435.819 277.476 435.197 277.162C434.693 276.924 434.189 276.622 433.71 276.247C433.52 276.097 433.326 275.933 433.145 275.764C432.844 275.471 432.415 275.536 432.19 275.901C431.966 276.259 432.021 276.784 432.329 277.057Z" fill="#FB9476"/>
<path d="M440.122 270.63C440.544 270.568 440.866 270.197 440.854 269.759C440.687 262.867 445.059 259.187 445.103 259.151C445.468 258.849 445.523 258.308 445.223 257.941C444.922 257.572 444.382 257.517 444.013 257.818C443.808 257.987 438.945 262.034 439.133 269.799C439.145 270.275 439.54 270.651 440.014 270.638C440.052 270.638 440.086 270.634 440.122 270.63Z" fill="#FB9476"/>
<path d="M445.618 265.802C445.815 265.772 446.002 265.675 446.141 265.513C446.451 265.154 446.413 264.614 446.053 264.302C445.952 264.214 443.535 262.155 440.821 262.873C440.363 262.995 440.089 263.467 440.211 263.927C440.334 264.385 440.808 264.656 441.264 264.538C443.09 264.055 444.91 265.589 444.929 265.605C445.127 265.774 445.38 265.838 445.618 265.802Z" fill="#FB9476"/>
<path d="M395.036 276.925H395.03H395.036ZM399.355 281.269C399.703 281.217 400.011 280.955 400.081 280.55C400.148 280.17 399.925 279.797 399.575 279.629C397.459 278.625 395.418 277.334 395.062 276.788C395.355 275.219 396.517 268.985 396.941 266.703C397.029 266.235 396.721 265.79 396.253 265.702C395.787 265.615 395.338 265.921 395.251 266.387C394.811 268.745 393.588 275.308 393.345 276.607C393.259 277.056 393.004 278.42 398.86 281.195C399.02 281.271 399.193 281.293 399.355 281.269" fill="#FB9476"/>
<path d="M410.281 264.505C410.629 266.941 412.008 268.76 413.366 268.569C414.728 268.377 415.551 266.241 415.205 263.803C415.068 262.845 414.771 261.983 414.379 261.3C416.831 261.057 417.417 259.425 417.417 259.425C415.876 259.87 413.725 259.832 412.702 259.783C412.339 259.76 412.116 259.741 412.116 259.741C410.758 259.933 409.933 262.063 410.281 264.505Z" fill="#181818"/>
<path d="M412.11 259.741C412.11 259.741 412.333 259.76 412.697 259.781C412.504 259.73 412.308 259.711 412.11 259.741Z" fill="#181818"/>
<path d="M376.317 263.833C376.81 262.815 377.456 261.801 378.154 260.889C378.858 259.97 379.649 259.135 380.496 258.401C381.336 257.655 382.261 257.045 383.217 256.556C384.16 256.035 385.191 255.75 386.186 255.493L386.289 255.468C387.371 255.191 388.021 254.088 387.744 253.007C387.468 251.925 386.365 251.273 385.284 251.551C385.159 251.583 385.032 251.63 384.919 251.684C383.662 252.281 382.443 252.937 381.403 253.812C380.349 254.656 379.408 255.609 378.62 256.653C377.824 257.688 377.146 258.785 376.587 259.928C376.03 261.079 375.579 262.233 375.26 263.49C375.184 263.789 375.363 264.091 375.661 264.167C375.922 264.234 376.186 264.105 376.298 263.871L376.317 263.833Z" fill="#111111"/>
<path d="M422.669 256.454C421.803 255.269 420.841 254.24 419.77 253.266C418.701 252.3 417.528 251.431 416.257 250.68C414.997 249.915 413.612 249.312 412.159 248.871C410.706 248.388 409.162 248.211 407.604 248.11C406.491 248.038 405.531 248.883 405.459 249.995C405.388 251.108 406.231 252.068 407.344 252.14C407.454 252.148 407.564 252.144 407.671 252.135L407.8 252.121C408.991 251.998 410.225 251.897 411.457 252.085C412.692 252.23 413.937 252.521 415.141 252.989C416.349 253.441 417.532 254.023 418.658 254.727C419.772 255.429 420.868 256.256 421.805 257.156L421.836 257.184C422.056 257.397 422.408 257.388 422.621 257.167C422.811 256.969 422.825 256.667 422.669 256.454Z" fill="#111111"/>
<path d="M423.645 234.183C423.645 234.183 407.688 255.961 370.408 254.896C350.351 254.324 367.77 223.004 397.668 221.243C427.566 219.484 423.645 234.183 423.645 234.183Z" fill="#002014"/>
<path d="M370.312 251.488C370.312 251.488 368.072 268.096 371.916 276.986C371.916 276.986 364.708 262.119 366.956 252.722C369.203 243.325 370.312 251.488 370.312 251.488Z" fill="#181818"/>
<path d="M413.649 234.248C413.649 234.248 431.418 264.539 427.07 288.991C422.726 313.441 416.38 332.907 433.905 334.732C451.25 336.541 462.755 329.729 478.285 335.87H478.289C478.451 335.936 478.61 335.999 478.776 336.068C479.183 336.235 479.548 336.336 479.885 336.381C482.574 336.727 483.089 333.217 482.081 327.226C481.722 325.107 481.176 322.684 480.47 320.008C477.199 307.618 470.47 289.891 463.162 272.854C457.42 259.474 451.321 246.519 446.252 236.911C444.406 233.411 442.694 230.361 441.19 227.887C425.149 201.575 389.425 208.994 389.425 208.994L413.649 234.248Z" fill="#002014"/>
<path d="M445.186 238.062C445.349 238.361 454.398 255.002 463.164 272.853C470.317 287.417 477.279 302.792 479.084 310.76C479.86 314.193 480.288 317.274 480.474 320.009C481.064 328.754 479.173 333.963 478.293 335.869C478.453 335.935 478.614 336 478.778 336.066C479.185 336.236 479.552 336.336 479.889 336.38C480.587 334.838 481.669 331.816 482.083 327.225C482.471 322.982 482.285 317.394 480.703 310.393C476.638 292.434 447.863 239.511 446.642 237.267C446.553 237.102 446.414 236.984 446.254 236.912C446.026 236.807 445.754 236.807 445.518 236.938C445.115 237.155 444.965 237.659 445.186 238.062Z" fill="#002014"/>
<g opacity="0.399994">
<g opacity="0.399994">
<g opacity="0.399994">
<g opacity="0.399994">
<g opacity="0.399994">
<g opacity="0.399994">
<path opacity="0.399994" d="M392.559 254.942C392.559 254.942 411.916 249.063 417.43 270.345C422.945 291.624 403.864 301.179 391.761 298.84C379.655 296.499 371.692 258.551 392.559 254.942Z" fill="#FFC29C"/>
</g>
</g>
</g>
</g>
</g>
</g>
<path d="M411.866 252.681C419.107 252.681 424.995 258.572 424.995 265.812C424.995 273.05 419.107 278.94 411.866 278.94C404.626 278.94 398.738 273.05 398.738 265.812C398.738 258.572 404.626 252.681 411.866 252.681ZM411.866 280.747C420.103 280.747 426.803 274.047 426.803 265.812C426.803 257.575 420.103 250.875 411.866 250.875C403.629 250.875 396.929 257.575 396.929 265.812C396.929 274.047 403.629 280.747 411.866 280.747Z" fill="white"/>
<path d="M378.776 259.392C386.017 259.392 391.905 265.282 391.905 272.52C391.905 279.761 386.017 285.651 378.776 285.651C371.536 285.651 365.648 279.761 365.648 272.52C365.648 265.282 371.536 259.392 378.776 259.392ZM378.776 287.458C387.013 287.458 393.713 280.757 393.713 272.52C393.713 264.285 387.013 257.585 378.776 257.585C370.539 257.585 363.839 264.285 363.839 272.52C363.839 280.757 370.539 287.458 378.776 287.458Z" fill="white"/>
<path d="M392.861 268.642C394.453 266.189 397.385 267.227 397.511 267.273L398.131 265.576C396.611 265.021 393.239 264.741 391.345 267.657L392.861 268.642Z" fill="white"/>
<path d="M369.109 611.712C373.287 614.711 378.982 623.673 388.871 626.818C445.05 644.694 497.476 610 497.476 610C500.59 594.614 498.663 577.133 493.48 570.733C495.11 568.46 494.032 565.742 494.032 565.742L518.771 519.879C518.172 520.256 479.964 544.409 451.651 561.52H451.64C443.481 566.448 436.145 570.792 430.771 573.81C422.568 578.415 412.098 578.865 401.84 577.452C381.846 574.689 362.664 564.837 362.664 564.837C362.664 564.837 314.823 536.627 302.748 537.601C293.36 538.354 327.329 590.118 369.109 611.712Z" fill="#108E59"/>
<path d="M474.92 658.116C474.92 658.116 477.944 658.683 482.858 659.691C484.258 659.978 485.81 660.296 487.485 660.651C489.71 661.121 492.156 661.646 494.765 662.226C496.253 662.555 497.793 662.901 499.377 663.261C519.073 667.747 545.153 674.571 555.655 681.243C556.391 681.71 557.106 682.174 557.793 682.64C573.795 693.399 577.068 702.69 580.037 700.805C583.135 698.842 583.829 690.786 578.774 685.489C575.275 681.819 572.825 676.465 568.125 670.678C566.855 669.113 565.421 667.515 563.757 665.91C556.406 658.827 544.643 651.507 538.074 645.88C537.65 645.518 537.249 645.161 536.871 644.813C531.464 639.826 529.354 629.564 519.488 626.445C514.666 624.923 508.889 625.517 503.314 626.987C502.323 627.247 501.338 627.538 500.37 627.846C498.919 628.31 497.5 628.82 496.133 629.347C494.244 630.087 492.453 630.864 490.819 631.627C489.254 632.357 487.828 633.073 486.599 633.715C483.634 635.269 481.801 636.424 481.801 636.424L474.92 658.116Z" fill="white"/>
<path d="M503.32 626.987C509.151 634.619 522.58 649.208 538.08 645.881C537.656 645.518 537.255 645.162 536.876 644.813C531.469 639.826 529.358 629.564 519.494 626.444C514.672 624.923 508.895 625.518 503.32 626.987Z" fill="#80D7B2"/>
<path d="M557.794 682.639C573.796 693.398 577.069 702.689 580.036 700.806C583.136 698.843 583.828 690.785 578.775 685.488C575.274 681.818 572.824 676.466 568.126 670.679C564.167 673.488 559.956 677.47 557.794 682.639Z" fill="#80D7B2"/>
<path d="M482.862 659.691C484.262 659.976 485.812 660.296 487.489 660.651C490.403 655.33 491.866 648.841 491.776 641.439C491.731 637.698 491.301 634.299 490.823 631.627C489.256 632.358 487.832 633.073 486.603 633.715C486.951 635.965 487.231 638.643 487.263 641.528C487.33 647.361 486.369 654.041 482.862 659.691Z" fill="#80D7B2"/>
<path d="M496.137 629.347C497.504 628.82 498.923 628.31 500.374 627.846C501.316 630.579 502.664 635.184 503.273 640.598C504.26 649.373 502.921 657.079 499.382 663.26C497.797 662.901 496.257 662.555 494.77 662.226C502.255 650.76 498.138 635.222 496.137 629.347Z" fill="#80D7B2"/>
<path d="M238.766 574.855C259.855 600.611 307.274 626.958 357.989 642.245C375.598 647.553 390.716 651.537 403.618 654.523C413.778 656.879 422.568 658.61 430.113 659.875C459.241 664.761 469.947 662.726 469.947 662.726C469.947 662.726 487.921 656.946 480.215 627.749C480.215 627.749 446.141 619.917 419.74 606.867C414.358 604.208 409.291 601.328 404.9 598.253C403.871 597.532 402.848 596.8 401.836 596.056C377.298 578.082 356.317 553.668 301.021 531.599C301.021 531.599 272.1 514.035 248.851 521.911C245.384 523.082 242.102 524.775 239.135 527.111C222.288 540.366 224.527 557.477 238.766 574.855Z" fill="#0CAD69"/>
<path d="M342.055 634.354L353.047 635.864L419.732 606.867C414.35 604.206 409.285 601.329 404.892 598.253C403.865 597.532 402.84 596.8 401.828 596.057L342.055 634.354Z" fill="#108E59"/>
<path d="M403.613 654.522C413.773 656.879 422.563 658.609 430.108 659.874C451.328 654.111 476.737 643.358 476.737 643.358L475.082 630.179L403.613 654.522Z" fill="#108E59"/>
<path d="M238.767 574.856C256.173 551.462 252.715 531.873 248.853 521.911C245.384 523.084 242.103 524.775 239.134 527.111C222.289 540.366 224.528 557.477 238.767 574.856Z" fill="#108E59"/>
<path d="M477.318 636.457C459.584 632.984 423.112 618.098 379.755 596.636C347.329 580.584 309.838 559.9 304.147 552.416C301.074 548.374 300.199 544.997 301.548 542.38C303.565 538.464 309.826 537.802 312.689 537.709C313.427 537.684 314.031 538.283 314.009 539.023C313.988 539.692 313.457 540.233 312.786 540.255C309.973 540.356 305.096 541.046 303.811 543.547C302.742 545.626 304.507 548.679 306.177 550.873C310.766 556.91 342.184 575.194 380.885 594.352C414.209 610.848 457.172 629.916 477.807 633.958L477.318 636.457Z" fill="#108E59"/>
<path d="M473.485 624.111C472.167 639.687 468.751 653.942 460.459 665.113C460.459 665.113 468.181 670.191 474.862 666.028C479.965 662.848 489.016 638.221 484.622 625.467C480.147 623.265 476.34 622.592 473.485 624.111Z" fill="#108E59"/>
<path d="M351.365 664.405C351.365 664.405 348.385 665.166 343.546 666.495C342.17 666.871 340.64 667.294 338.992 667.756C336.803 668.37 334.397 669.055 331.831 669.804C330.369 670.23 328.853 670.675 327.297 671.137C307.936 676.904 282.358 685.42 272.317 692.761C271.611 693.279 270.928 693.788 270.272 694.298C255.01 706.08 252.349 715.563 249.266 713.879C246.044 712.124 244.827 704.129 249.523 698.513C252.777 694.621 254.871 689.119 259.18 683.035C260.346 681.392 261.672 679.703 263.228 677.993C270.099 670.443 281.358 662.372 287.545 656.326C287.944 655.938 288.323 655.555 288.676 655.181C293.745 649.852 295.181 639.475 304.821 635.715C309.532 633.882 315.336 634.095 320.994 635.198C322.002 635.394 323.005 635.618 323.99 635.864C325.469 636.233 326.917 636.647 328.316 637.085C330.249 637.699 332.086 638.359 333.767 639.011C335.378 639.639 336.846 640.259 338.115 640.822C341.175 642.176 343.081 643.207 343.081 643.207L351.365 664.405Z" fill="white"/>
<path d="M320.995 635.197C315.675 643.197 303.228 658.63 287.545 656.325C287.944 655.937 288.321 655.555 288.677 655.182C293.745 649.851 295.181 639.475 304.821 635.715C309.532 633.883 315.335 634.096 320.995 635.197Z" fill="#80D7B2"/>
<path d="M270.275 694.298C255.013 706.08 252.352 715.564 249.269 713.879C246.048 712.124 244.83 704.128 249.526 698.512C252.78 694.621 254.872 689.119 259.184 683.035C263.318 685.58 267.78 689.281 270.275 694.298Z" fill="#80D7B2"/>
<path d="M343.545 666.494C342.168 666.871 340.641 667.293 338.99 667.755C335.736 662.637 333.852 656.257 333.456 648.864C333.258 645.129 333.464 641.709 333.766 639.012C335.377 639.638 336.847 640.258 338.116 640.821C337.912 643.088 337.809 645.777 337.965 648.661C338.281 654.484 339.677 661.085 343.545 666.494Z" fill="#80D7B2"/>
<path d="M331.83 669.804C330.367 670.23 328.853 670.675 327.296 671.137C323.361 665.201 321.52 657.6 321.931 648.777C322.186 643.336 323.23 638.653 323.99 635.863C325.468 636.232 326.915 636.647 328.315 637.084C326.702 643.075 323.612 658.849 331.83 669.804Z" fill="#80D7B2"/>
<path d="M345.724 634.856C339.946 664.498 358.257 669.087 358.257 669.087C358.257 669.087 385.543 672.444 468.634 641.328C516.542 623.389 560.714 595.354 581.121 569.067C596.106 549.767 598.276 531.401 579.704 518.664C575.425 515.729 570.629 514.048 565.636 513.265C542.645 509.657 515.484 525.13 515.484 525.13C459.53 551.828 473.535 561.003 426.874 590.727C400.187 607.726 345.724 634.856 345.724 634.856Z" fill="#0CAD69"/>
<path d="M565.636 513.265C564.746 523.287 563.221 556.8 581.121 569.067C596.106 549.767 598.276 531.401 579.703 518.664C575.423 515.729 570.629 514.048 565.636 513.265Z" fill="#108E59"/>
<path d="M349.18 643.356C366.65 638.731 402.07 621.491 443.93 597.239C475.236 579.101 511.294 556.008 516.482 548.169C519.285 543.933 519.938 540.506 518.422 537.985C516.151 534.207 509.86 533.958 506.997 534.051C506.259 534.076 505.696 534.713 505.767 535.447C505.832 536.115 506.398 536.619 507.068 536.6C509.882 536.516 514.791 536.885 516.238 539.299C517.442 541.301 515.879 544.462 514.358 546.763C510.173 553.085 480.016 573.387 442.652 595.036C410.479 613.676 368.855 635.513 348.528 640.894L349.18 643.356Z" fill="#108E59"/>
<path d="M352.2 630.786C354.536 646.245 358.876 660.242 367.881 670.847C367.881 670.847 360.508 676.419 353.57 672.703C348.271 669.866 337.628 645.883 341.175 632.869C345.498 630.378 349.253 629.459 352.2 630.786Z" fill="#108E59"/>
<path d="M268.422 512.719C274.626 520.657 283.184 525.098 289.977 529.639C306.316 540.565 339.467 547.473 336.976 509.835C334.481 472.202 306.01 487.452 326.957 421.352C335.897 393.149 342.056 335.014 342.056 335.014C342.056 335.014 295.259 367.798 267.57 448.653C265.411 454.952 263.779 460.701 262.6 465.956C257.245 489.828 261.275 503.586 268.422 512.719Z" fill="#F0413C"/>
<path d="M268.425 512.719C278.578 494.592 270.158 476.673 262.604 465.956C257.248 489.828 261.278 503.586 268.425 512.719Z" fill="#BE1712"/>
<path d="M337.086 516.572C337.603 516.572 338.069 516.212 338.179 515.685C338.248 515.364 339.821 507.705 336.698 497.523C333.828 488.175 326.266 474.875 306.534 464.604C305.983 464.316 305.308 464.531 305.022 465.079C304.735 465.629 304.95 466.306 305.498 466.591C324.482 476.475 331.757 489.16 334.516 498.063C337.512 507.715 336.004 515.145 335.988 515.219C335.859 515.824 336.247 516.419 336.852 516.547C336.932 516.564 337.01 516.572 337.086 516.572Z" fill="#BE1712"/>
<path d="M320.083 475.561C320.236 475.576 320.395 475.559 320.549 475.508C321.139 475.31 321.455 474.675 321.255 474.089C317.622 463.275 315.295 458.646 315.198 458.454C314.918 457.902 314.245 457.682 313.691 457.963C313.14 458.243 312.919 458.916 313.199 459.468C313.224 459.513 315.561 464.173 319.131 474.802C319.277 475.234 319.657 475.519 320.083 475.561Z" fill="#BE1712"/>
<path d="M318.816 470.636C319.435 470.636 319.937 470.134 319.937 469.516C319.937 447.486 349.373 397.609 349.672 397.106C349.988 396.574 349.813 395.885 349.28 395.57C348.748 395.254 348.061 395.431 347.744 395.962C346.517 398.031 317.696 446.876 317.696 469.516C317.696 470.134 318.196 470.636 318.816 470.636Z" fill="#BE1712"/>
<path d="M339.654 414.025C339.888 414.025 340.123 413.953 340.325 413.802C344.134 410.955 353.773 408.437 353.87 408.413C354.469 408.258 354.829 407.646 354.673 407.049C354.519 406.448 353.906 406.088 353.309 406.244C352.896 406.351 343.145 408.896 338.982 412.007C338.488 412.378 338.385 413.08 338.756 413.576C338.977 413.869 339.313 414.025 339.654 414.025Z" fill="#BE1712"/>
<path d="M353.374 571.348C353.192 573.338 353.02 575.416 352.777 577.094C352.319 580.264 351.596 581.999 350.019 578.984C349.669 578.305 349.386 577.438 349.154 576.441C347.796 570.626 348.243 560.39 347.615 558.159C346.906 555.624 343.949 548.414 343.69 548.007C343.823 548.307 345.156 552.716 345.31 555.436C345.457 557.986 345.31 561.086 345.31 567.366C345.31 570.104 345.21 572.936 344.863 574.996V575.002C344.418 577.664 343.559 579.02 341.963 577.174C341.178 576.265 340.676 574.669 340.348 572.78C339.489 567.875 339.797 560.949 339.344 558.682C338.736 555.643 336.269 550.732 336.111 550.424C337.047 553.551 337.047 553.243 337.566 557.351C337.933 560.221 338.603 567.856 337.893 571.278C337.593 572.754 337.028 573.45 336.073 572.642C334.584 571.381 333.549 569.532 332.819 567.417C331.997 565.044 331.564 562.33 331.288 559.73C330.767 554.808 328.776 551.774 328.776 551.774C329.881 557.105 330.485 562.261 330.158 564.924C329.932 566.807 329.242 567.442 327.941 566.01C325.404 563.222 322.842 554.003 321.956 550.536C321.925 550.43 321.901 550.323 321.876 550.223C321.843 550.116 321.824 550.023 321.798 549.933C321.68 549.469 321.617 549.205 321.617 549.205L321.611 549.199C320.875 546.31 320.212 543.422 319.238 540.835C317.793 536.991 315.645 533.808 311.513 532.277C302.137 528.791 305.016 510.959 318.158 509.888C321.986 509.576 325.777 510.845 328.781 513.237C330.695 514.761 333.393 516.889 336.124 518.975L336.13 518.981C336.393 519.316 344.94 529.901 347.615 536.495C350.333 543.189 352.638 553.764 353.161 556.797C353.688 559.831 353.893 565.589 353.374 571.348Z" fill="#FAB893"/>
<path d="M559.955 521.514C553.712 529.653 545.101 534.208 538.266 538.865C521.827 550.069 488.471 557.15 490.978 518.556C493.489 479.967 522.133 495.606 501.057 427.824C492.063 398.905 490.978 341.272 490.978 341.272C490.978 341.272 532.95 372.908 560.812 455.82C562.984 462.277 564.626 468.172 565.81 473.563C571.199 498.042 567.144 512.149 559.955 521.514Z" fill="#F0413C"/>
<path d="M559.697 523.099C549.545 504.97 557.964 487.053 565.516 476.336C570.872 500.208 566.842 513.966 559.697 523.099Z" fill="#BE1712"/>
<path d="M491.037 526.952C490.519 526.952 490.054 526.592 489.943 526.065C489.875 525.744 488.302 518.085 491.427 507.903C494.295 498.555 501.856 485.256 521.59 474.982C522.14 474.696 522.815 474.911 523.102 475.459C523.387 476.007 523.174 476.684 522.625 476.971C503.64 486.853 496.366 499.54 493.604 508.443C490.613 518.093 492.119 525.525 492.134 525.599C492.262 526.204 491.875 526.798 491.271 526.927C491.193 526.944 491.115 526.952 491.037 526.952Z" fill="#BE1712"/>
<path d="M508.035 485.94C507.881 485.956 507.723 485.939 507.567 485.887C506.981 485.689 506.666 485.054 506.861 484.468C510.496 473.655 512.824 469.025 512.921 468.833C513.2 468.282 513.874 468.061 514.427 468.343C514.979 468.622 515.199 469.295 514.92 469.849C514.897 469.893 512.557 474.552 508.986 485.182C508.841 485.613 508.461 485.899 508.035 485.94Z" fill="#BE1712"/>
<path d="M509.303 481.015C508.683 481.015 508.183 480.513 508.183 479.895C508.183 457.866 478.744 407.988 478.448 407.486C478.13 406.953 478.307 406.265 478.839 405.949C479.37 405.633 480.058 405.81 480.374 406.343C481.603 408.41 510.423 457.255 510.423 479.895C510.423 480.513 509.921 481.015 509.303 481.015Z" fill="#BE1712"/>
<path d="M488.467 424.405C488.233 424.405 487.999 424.333 487.797 424.181C483.988 421.334 474.349 418.818 474.252 418.793C473.653 418.639 473.292 418.026 473.448 417.427C473.604 416.828 474.216 416.469 474.813 416.623C475.226 416.729 484.977 419.276 489.14 422.387C489.635 422.756 489.735 423.46 489.366 423.956C489.146 424.249 488.809 424.405 488.467 424.405Z" fill="#BE1712"/>
<path d="M474.746 581.727C474.928 583.718 475.098 585.797 475.341 587.472C475.801 590.642 476.524 592.379 478.099 589.364C478.451 588.684 478.734 587.818 478.966 586.82C480.322 581.004 479.877 570.768 480.505 568.539C481.214 566.002 484.171 558.794 484.428 558.387C484.297 558.688 482.964 563.096 482.81 565.816C482.663 568.364 482.81 571.466 482.81 577.746C482.81 580.485 482.909 583.317 483.255 585.376V585.382C483.7 588.045 484.561 589.401 486.157 587.554C486.94 586.645 487.443 585.049 487.77 583.159C488.629 578.254 488.323 571.327 488.774 569.06C489.384 566.021 491.851 561.111 492.009 560.804C491.073 563.931 491.073 563.623 490.552 567.731C490.187 570.599 489.516 578.235 490.225 581.658C490.525 583.134 491.092 583.83 492.047 583.022C493.534 581.759 494.571 579.912 495.299 577.797C496.123 575.424 496.554 572.71 496.832 570.11C497.353 565.186 499.342 562.153 499.342 562.153C498.237 567.486 497.635 572.641 497.962 575.302C498.188 577.187 498.878 577.82 500.179 576.388C502.716 573.602 505.278 564.382 506.162 560.917C506.195 560.81 506.219 560.702 506.244 560.603C506.277 560.494 506.294 560.401 506.32 560.314C506.438 559.85 506.501 559.585 506.501 559.585L506.509 559.578C507.243 556.691 507.908 553.802 508.882 551.215C510.326 547.372 512.473 544.188 516.605 542.655C525.984 539.171 523.104 521.339 509.962 520.266C506.132 519.955 502.342 521.223 499.337 523.616C497.423 525.141 494.727 527.269 491.996 529.355L491.99 529.361C491.726 529.694 483.179 540.281 480.505 546.875C477.785 553.57 475.48 564.144 474.959 567.177C474.432 570.209 474.225 575.97 474.746 581.727Z" fill="#FAB893"/>
</svg>
